<svg id="Capa_1" enable-background="new 0 0 512 512" height="512" viewBox="0 0 512 512" width="512" xmlns="http://www.w3.org/2000/svg"><g><g fill="#518fcc"><path d="m256 196.239c-4.143 0-7.5-3.358-7.5-7.5v-115.173c0-4.142 3.357-7.5 7.5-7.5s7.5 3.358 7.5 7.5v115.173c0 4.142-3.357 7.5-7.5 7.5z"/><path d="m197.752 229.871c-1.272 0-2.562-.324-3.742-1.006l-99.752-57.581c-3.588-2.071-4.817-6.658-2.746-10.245 2.07-3.588 6.657-4.818 10.244-2.746l99.752 57.581c3.588 2.071 4.817 6.658 2.746 10.245-1.389 2.406-3.91 3.752-6.502 3.752z"/><path d="m98.013 354.714c-2.592 0-5.113-1.345-6.502-3.752-2.071-3.587-.842-8.174 2.746-10.245l99.752-57.581c3.586-2.069 8.174-.842 10.244 2.746 2.071 3.587.842 8.174-2.746 10.245l-99.752 57.581c-1.18.682-2.469 1.006-3.742 1.006z"/><path d="m413.987 354.714c-1.272 0-2.562-.324-3.742-1.006l-99.752-57.581c-3.588-2.071-4.818-6.658-2.746-10.245 2.07-3.588 6.658-4.816 10.244-2.746l99.752 57.581c3.588 2.071 4.817 6.658 2.746 10.245-1.389 2.406-3.91 3.752-6.502 3.752z"/><path d="m314.249 229.871c-2.592 0-5.113-1.345-6.502-3.752-2.071-3.587-.842-8.174 2.746-10.245l99.752-57.581c3.585-2.071 8.174-.842 10.244 2.746 2.071 3.587.842 8.174-2.746 10.245l-99.752 57.581c-1.181.682-2.47 1.006-3.742 1.006z"/><path d="m256 445.935c-4.143 0-7.5-3.358-7.5-7.5v-115.174c0-4.142 3.357-7.5 7.5-7.5s7.5 3.358 7.5 7.5v115.173c0 4.143-3.357 7.501-7.5 7.501z"/></g><g fill="#6cbff8"><path d="m293.108 32.254-28.832-28.833c-4.563-4.562-11.989-4.562-16.551 0 0 0 0 0-.001.001l-28.832 28.832c-2.21 2.21-3.428 5.15-3.428 8.276s1.218 6.065 3.428 8.276l28.832 28.832c2.211 2.211 5.151 3.428 8.277 3.428s6.066-1.217 8.277-3.428l28.832-28.832c2.21-2.21 3.428-5.15 3.428-8.276s-1.22-6.065-3.43-8.276z"/><path d="m105.672 159.652-10.553-39.384c-.81-3.021-2.746-5.545-5.453-7.108-2.709-1.564-5.86-1.978-8.881-1.169l-39.387 10.553c-3.019.809-5.542 2.746-7.106 5.453-1.564 2.708-1.978 5.863-1.169 8.879l10.553 39.386c.81 3.021 2.746 5.545 5.453 7.108 1.804 1.041 3.805 1.573 5.833 1.573 1.017 0 2.04-.134 3.049-.404l39.386-10.553c6.233-1.671 9.945-8.101 8.275-14.334z"/><path d="m97.396 338.014-39.385-10.553c-3.022-.809-6.175-.394-8.882 1.169s-4.644 4.087-5.452 7.107l-10.553 39.383c-.81 3.02-.396 6.175 1.168 8.883 1.564 2.707 4.087 4.644 7.106 5.453h.001l39.385 10.552c1.009.271 2.032.404 3.05.404 2.027 0 4.029-.532 5.832-1.573 2.707-1.563 4.644-4.087 5.452-7.106l10.554-39.386c1.67-6.232-2.042-12.661-8.276-14.333z"/><path d="m293.108 463.195-28.832-28.832c-2.211-2.211-5.151-3.428-8.277-3.428s-6.066 1.217-8.277 3.428l-28.832 28.832c-2.21 2.211-3.428 5.15-3.428 8.276s1.218 6.065 3.428 8.276l28.833 28.833c2.283 2.28 5.28 3.42 8.277 3.42s5.994-1.14 8.276-3.421c0 0 0 0 .001-.001l28.832-28.832c2.21-2.21 3.428-5.15 3.428-8.276-.001-3.126-1.219-6.065-3.429-8.275z"/><path d="m478.876 375.122-10.552-39.384c-.81-3.021-2.746-5.545-5.453-7.108-2.708-1.563-5.861-1.977-8.882-1.169l-39.386 10.553c-6.233 1.671-9.945 8.1-8.275 14.334l10.553 39.384c.81 3.021 2.746 5.545 5.453 7.108 1.804 1.042 3.805 1.573 5.833 1.573 1.016 0 2.039-.134 3.046-.404l39.389-10.553c3.019-.809 5.542-2.746 7.106-5.453 1.564-2.708 1.978-5.863 1.168-8.881z"/><g><path d="m256 129.931c-1.838 0-3.676-.672-5.116-2.017l-63.954-59.674c-3.029-2.826-3.193-7.572-.367-10.6 2.824-3.028 7.57-3.194 10.6-.367l58.837 54.9 58.837-54.9c3.029-2.827 7.776-2.661 10.6.367 2.826 3.028 2.662 7.775-.367 10.6l-63.954 59.674c-1.44 1.345-3.278 2.017-5.116 2.017z"/><path d="m256 172.559c-1.319 0-2.638-.348-3.815-1.042l-25.998-15.358c-3.566-2.107-4.75-6.706-2.643-10.273 2.107-3.566 6.706-4.748 10.272-2.643l22.184 13.105 22.183-13.105c3.566-2.106 8.165-.924 10.272 2.643 2.107 3.566.924 8.166-2.643 10.273l-25.998 15.358c-1.176.695-2.494 1.042-3.814 1.042z"/><path d="m56.667 222.265c-3.212 0-6.183-2.08-7.17-5.312-1.21-3.962 1.021-8.154 4.983-9.363l76.963-23.504-18.126-78.404c-.933-4.036 1.583-8.064 5.618-8.997 4.034-.934 8.064 1.582 8.997 5.618l19.703 85.222c.888 3.84-1.348 7.712-5.117 8.863l-83.658 25.548c-.73.224-1.468.329-2.193.329z"/><path d="m150.95 232.867c-2.618 0-5.161-1.374-6.539-3.817-2.035-3.607-.761-8.182 2.848-10.217l22.441-12.658-.259-25.763c-.041-4.142 3.283-7.533 7.425-7.575h.077c4.107 0 7.456 3.309 7.498 7.425l.303 30.194c.027 2.733-1.435 5.265-3.816 6.608l-26.3 14.835c-1.164.656-2.43.968-3.678.968z"/><path d="m120.63 415.509c-.56 0-1.128-.063-1.696-.194-4.035-.933-6.551-4.961-5.618-8.997l18.126-78.404-76.963-23.504c-3.962-1.21-6.193-5.402-4.983-9.363s5.404-6.194 9.363-4.983l83.656 25.548c3.77 1.151 6.005 5.023 5.117 8.862l-19.703 85.222c-.8 3.468-3.887 5.813-7.299 5.813z"/><path d="m176.943 339.165c-.026 0-.052 0-.077 0-4.142-.042-7.466-3.433-7.425-7.575l.259-25.763-22.441-12.659c-3.608-2.035-4.883-6.61-2.848-10.217 2.035-3.608 6.611-4.883 10.217-2.848l26.3 14.835c2.381 1.343 3.843 3.875 3.816 6.608l-.303 30.194c-.042 4.116-3.392 7.425-7.498 7.425z"/><path d="m319.952 456.744c-1.832 0-3.669-.667-5.114-2.017l-58.838-54.899-58.837 54.9c-3.028 2.828-7.775 2.662-10.6-.367-2.826-3.028-2.662-7.775.367-10.6l63.954-59.674c2.881-2.689 7.352-2.689 10.233 0l63.954 59.674c3.029 2.826 3.193 7.572.367 10.6-1.477 1.583-3.479 2.383-5.486 2.383z"/><path d="m281.991 369.801c-1.297 0-2.61-.336-3.808-1.043l-22.183-13.106-22.183 13.105c-3.566 2.105-8.164.924-10.272-2.643-2.107-3.566-.924-8.166 2.643-10.273l25.998-15.358c2.354-1.39 5.276-1.39 7.629 0l25.998 15.358c3.566 2.107 4.75 6.706 2.643 10.273-1.4 2.369-3.9 3.687-6.465 3.687z"/><path d="m391.37 415.509c-3.413 0-6.499-2.345-7.301-5.812l-19.703-85.222c-.888-3.84 1.348-7.712 5.117-8.862l83.656-25.548c3.959-1.211 8.153 1.021 9.363 4.983s-1.021 8.154-4.983 9.363l-76.963 23.504 18.126 78.404c.933 4.036-1.583 8.064-5.618 8.997-.566.13-1.134.193-1.694.193z"/><path d="m335.058 339.165c-4.107 0-7.456-3.309-7.498-7.425l-.303-30.194c-.027-2.733 1.435-5.265 3.816-6.608l26.3-14.835c3.607-2.035 8.183-.76 10.217 2.848 2.035 3.607.761 8.182-2.848 10.217l-22.441 12.659.259 25.763c.041 4.142-3.283 7.533-7.425 7.575-.026 0-.051 0-.077 0z"/><path d="m455.334 222.265c-.726 0-1.464-.106-2.193-.329l-83.656-25.548c-3.77-1.151-6.005-5.023-5.117-8.863l19.703-85.222c.934-4.036 4.967-6.547 8.997-5.618 4.035.933 6.551 4.961 5.618 8.997l-18.126 78.404 76.963 23.504c3.962 1.21 6.193 5.402 4.983 9.363-.989 3.232-3.96 5.312-7.172 5.312z"/><path d="m361.05 232.867c-1.248 0-2.514-.312-3.678-.969l-26.3-14.835c-2.381-1.343-3.843-3.875-3.816-6.608l.303-30.194c.042-4.116 3.392-7.425 7.498-7.425h.077c4.142.042 7.466 3.433 7.425 7.575l-.259 25.763 22.441 12.658c3.608 2.035 4.883 6.61 2.848 10.217-1.377 2.444-3.92 3.817-6.539 3.818z"/></g><path d="m477.708 127.997c-1.564-2.707-4.087-4.644-7.106-5.453-.001 0-.001 0-.001 0l-39.385-10.552c-3.019-.81-6.175-.396-8.882 1.169-2.707 1.563-4.644 4.087-5.452 7.106l-10.554 39.386c-1.67 6.233 2.042 12.662 8.276 14.333l39.385 10.553c1.009.27 2.032.404 3.049.404 2.028 0 4.029-.532 5.833-1.573 2.707-1.563 4.644-4.087 5.452-7.107l10.553-39.383c.81-3.02.396-6.175-1.168-8.883z"/><path d="m253.26 183.547-58.637 33.854c-1.695.979-2.74 2.788-2.74 4.745v67.708c0 1.958 1.044 3.767 2.74 4.745l58.637 33.854c1.695.979 3.784.979 5.48 0l58.637-33.854c1.695-.979 2.74-2.788 2.74-4.745v-67.708c0-1.958-1.044-3.767-2.74-4.745l-58.637-33.854c-1.695-.979-3.784-.979-5.48 0z"/></g><path d="m317.377 217.401-17.062-9.851c.174.542.276 1.11.276 1.696v68.798c0 1.989-1.061 3.827-2.784 4.822l-59.581 34.399c-.952.55-2.027.784-3.089.726l18.124 10.464c1.695.979 3.784.979 5.48 0l58.637-33.854c1.695-.979 2.74-2.788 2.74-4.745v-67.708c-.001-1.96-1.046-3.769-2.741-4.747z" fill="#5fa7ee"/></g></svg>