<svg id="Capa_1" enable-background="new 0 0 512 512" height="512" viewBox="0 0 512 512" width="512" xmlns="http://www.w3.org/2000/svg"><g><path d="m121.836 76.423h-6.241c-5.274-25.919-28.199-45.425-55.674-45.425s-50.4 19.505-55.674 45.425c-.745 3.682-1.14 7.488-1.14 11.389 0 12.835 4.254 24.673 11.431 34.183 1.425 1.888 3.687 2.957 6.052 2.957h101.784c6.699 0 12.77-2.718 17.16-7.108 4.465-4.465 7.2-10.661 7.106-17.504-.185-13.355-11.448-23.917-24.804-23.917z" fill="#ddebfd"/><path d="m486.628 160.549c-52.974 8.129-103.389-27.692-113.139-80.392-4.71-25.456.68-50.37 13.285-70.693 2.941-4.743-1.375-10.637-6.784-9.26-17.007 4.329-33.279 12.661-47.364 25.111-46.894 41.451-51.437 113.775-10.151 160.814 41.252 47 112.763 52.077 160.254 11.181 10.537-9.074 19.009-19.653 25.375-31.145 2.692-4.859-1.952-10.487-7.263-8.86-4.584 1.403-9.329 2.494-14.213 3.244z" fill="#ebb34c"/><path d="m500.842 157.303c-4.585 1.404-9.329 2.496-14.214 3.245-52.974 8.129-103.389-27.692-113.139-80.392-4.71-25.456.68-50.37 13.285-70.693 2.942-4.743-1.375-10.637-6.784-9.26-10.565 2.689-20.846 6.926-30.496 12.733 1.499-.448 3.003-.876 4.515-1.261 5.408-1.376 9.725 4.518 6.784 9.26-12.605 20.323-17.995 45.238-13.285 70.693 9.751 52.7 60.165 88.521 113.139 80.392 4.885-.75 9.629-1.841 14.214-3.245 5.311-1.627 9.955 4.001 7.263 8.86-6.366 11.492-14.838 22.071-25.375 31.145-5.016 4.32-10.303 8.12-15.791 11.419 14.936-4.457 29.196-12.061 41.772-22.89 10.537-9.074 19.009-19.653 25.375-31.145 2.692-4.859-1.952-10.487-7.263-8.861z" fill="#e69642"/><path d="m416.539 278.62c-5.6-5.6-13.344-9.065-21.884-9.065h-43.925c5.225-12.733 8.16-26.653 8.29-41.237.045-5.049-.251-10.026-.867-14.908-2.443-19.371-19.917-31.251-31.071-46.263-10.846-14.599-15.172-32.485-31.733-40.392-14.211-6.785-30.069-10.641-46.787-10.767-60.375-.453-109.727 47.148-112.086 106.833-.082 2.064-1.778 3.694-3.844 3.694-8.81.001-30.054.003-30.054.003-28.975 0-52.464 23.489-52.464 52.464s23.489 52.463 52.464 52.463h291.575c16.831 0 30.97-13.237 31.438-30.062.248-8.886-3.26-16.971-9.052-22.763z" fill="#ddebfd"/><path d="m331.076 228.318c-.118 13.247-2.551 25.945-6.911 37.705-.635 1.714.627 3.532 2.455 3.532h24.111c5.225-12.733 8.16-26.653 8.29-41.237.548-61.284-49.173-111.87-110.458-112.33-5.039-.038-10 .267-14.865.877 55.122 6.954 97.887 54.596 97.378 111.453z" fill="#bed9fd"/><path d="m416.539 278.62c-5.6-5.6-13.344-9.065-21.884-9.065h-27.945c8.54 0 16.284 3.465 21.884 9.065 5.792 5.792 9.3 13.877 9.053 22.764-.468 16.824-14.607 30.062-31.438 30.062h27.945c16.831 0 30.97-13.237 31.438-30.062.247-8.887-3.261-16.972-9.053-22.764z" fill="#bed9fd"/><g fill="#6cbff8"><path d="m280.155 485.521c0 14.624-11.855 26.479-26.479 26.479s-26.479-11.855-26.479-26.479c0-20.434 21.999-43.885 26.479-43.885s26.479 23.451 26.479 43.885z"/><g><path d="m382.623 432.13c0 14.624-11.855 26.479-26.479 26.479s-26.479-11.855-26.479-26.479c0-20.434 21.999-43.885 26.479-43.885s26.479 23.452 26.479 43.885z"/><path d="m177.686 432.13c0 14.624-11.855 26.479-26.479 26.479s-26.479-11.855-26.479-26.479c0-20.434 21.999-43.885 26.479-43.885s26.479 23.452 26.479 43.885z"/></g></g></g></svg>