<svg id="Capa_1" enable-background="new 0 0 512 512" height="512" viewBox="0 0 512 512" width="512" xmlns="http://www.w3.org/2000/svg"><g><g><g><path d="m481.48 70.729h-8.526c-6.633-32.597-35.463-57.127-70.017-57.127s-63.383 24.53-70.017 57.127c-.937 4.63-1.433 9.417-1.433 14.323 0 17.86 6.551 34.186 17.382 46.708h132.61c8.425 0 16.059-3.418 21.581-8.939s8.94-13.147 8.94-21.581c0-16.849-13.671-30.511-30.52-30.511z" fill="#ddebfd"/><path d="m460.82 235.584c-7.043-7.043-16.781-11.4-27.521-11.4h-55.24c6.571-16.013 10.262-33.519 10.426-51.86.689-77.071-61.841-140.69-138.913-141.268-75.928-.57-137.994 59.294-140.961 134.355-.103 2.596-2.237 4.645-4.835 4.646-11.08.002-37.796.004-37.796.004-36.44-.001-65.98 29.539-65.98 65.979 0 36.439 29.54 65.979 65.979 65.979h366.689c21.167 0 38.948-16.647 39.536-37.806.312-11.178-4.1-21.345-11.384-28.629z" fill="#ddebfd"/><g fill="#bed9fd"><path d="m460.82 235.584c-7.043-7.043-16.781-11.4-27.521-11.4h-35.144c10.74 0 20.479 4.358 27.521 11.4 7.284 7.284 11.696 17.452 11.385 28.628-.589 21.159-18.37 37.806-39.536 37.806h35.144c21.167 0 38.948-16.647 39.536-37.806.311-11.177-4.101-21.344-11.385-28.628z"/><path d="m353.34 172.323c-.149 16.659-3.208 32.629-8.692 47.418-.799 2.155.789 4.442 3.088 4.442h30.322c6.571-16.013 10.262-33.519 10.426-51.86.689-77.071-61.841-140.69-138.913-141.268-6.338-.048-12.576.335-18.694 1.103 69.322 8.746 123.103 68.66 122.463 140.165z"/></g></g><path d="m349.334 405.064c.001 51.547-41.787 93.334-93.334 93.334s-93.334-41.787-93.334-93.334c0-65.211 77.377-152.329 93.334-152.329 12.808 0 93.333 87.117 93.334 152.329z" fill="#6cbff8"/><path d="m256 252.735c-1.282 0-2.966.57-4.97 1.639 28.063 27.636 73.181 88.72 73.181 137.533.001 51.547-41.787 93.334-93.334 93.334-10.562 0-20.712-1.757-30.179-4.99 15.478 11.404 34.601 18.147 55.301 18.147 51.547 0 93.335-41.787 93.334-93.334 0-65.212-80.525-152.329-93.333-152.329z" fill="#5fa7ee"/><g fill="#6cbff8"><path d="m472.718 420.879c0 20.627-16.721 37.348-37.348 37.348s-37.348-16.721-37.348-37.348c0-26.095 30.963-60.955 37.348-60.955 5.126 0 37.348 34.86 37.348 60.955z"/><path d="m113.978 420.879c0 20.627-16.721 37.348-37.348 37.348s-37.348-16.721-37.348-37.348c0-26.095 30.963-60.955 37.348-60.955 5.125 0 37.347 34.86 37.348 60.955z"/></g></g><g fill="#ddebfd"><g><path d="m284.75 457.932c-12.265 0-22.243-9.978-22.243-22.242s9.979-22.242 22.243-22.242 22.242 9.978 22.242 22.242-9.978 22.242-22.242 22.242zm0-29.032c-3.744 0-6.791 3.046-6.791 6.79s3.046 6.79 6.791 6.79c3.743 0 6.79-3.046 6.79-6.79s-3.047-6.79-6.79-6.79z"/><path d="m227.251 396.685c-12.265 0-22.242-9.978-22.242-22.242s9.978-22.243 22.242-22.243 22.243 9.978 22.243 22.243-9.979 22.242-22.243 22.242zm0-29.033c-3.743 0-6.79 3.046-6.79 6.79s3.046 6.79 6.79 6.79 6.791-3.046 6.791-6.79c-.001-3.744-3.047-6.79-6.791-6.79z"/></g><path d="m222.121 446.672c-1.977 0-3.955-.755-5.464-2.263-3.017-3.017-3.017-7.909 0-10.927l67.759-67.759c3.018-3.017 7.909-3.017 10.928 0 3.017 3.017 3.017 7.909 0 10.927l-67.759 67.759c-1.51 1.508-3.487 2.263-5.464 2.263z"/></g></g></svg>