<svg id="Capa_1" enable-background="new 0 0 512 512" height="512" viewBox="0 0 512 512" width="512" xmlns="http://www.w3.org/2000/svg"><g><ellipse cx="256" cy="325.306" fill="#ddebfd" rx="186.694" ry="186.694" transform="matrix(.707 -.707 .707 .707 -155.045 276.299)"/><path d="m318.477 149.334c56.286 32.154 94.227 92.753 94.227 162.218 0 103.109-83.586 186.695-186.694 186.695-21.915 0-42.942-3.788-62.477-10.725 27.26 15.574 58.823 24.478 92.467 24.478 103.109 0 186.694-83.586 186.694-186.694 0-81.194-51.836-150.271-124.217-175.972z" fill="#bed9fd"/><path d="m442.694 325.306c0 51.022-20.476 97.255-53.653 130.955l-22.365-23.219c-5.576-5.789-5.946-14.784-.96-21.088 18.842-23.823 30.09-53.921 30.09-86.645 0-77.218-62.589-139.816-139.807-139.816v-46.88c103.109-.001 186.695 83.585 186.695 186.693z" fill="#df646e"/><path d="m442.408 315.019c-4.193-77.228-55.295-141.367-123.913-165.673 56.276 32.157 94.208 92.75 94.208 162.207 0 46.679-17.132 89.356-45.45 122.088l21.788 22.62c10.368-10.531 19.496-22.288 27.146-35.03 18.841-31.39 28.296-68.019 26.221-106.212z" fill="#cd5668"/><path d="m256 138.612v46.88c-77.218 0-139.807 62.598-139.807 139.816 0 32.724 11.248 62.822 30.09 86.645 4.986 6.304 4.616 15.299-.96 21.088l-22.365 23.219c-33.177-33.7-53.653-79.932-53.653-130.954.001-103.108 83.587-186.694 186.695-186.694z" fill="#6cbff8"/><path d="m141.88 68.79v123.843c0 2.454 1.309 4.722 3.434 5.949l107.251 61.921c2.125 1.227 4.744 1.227 6.869 0l107.251-61.922c2.125-1.227 3.434-3.495 3.434-5.949v-123.842c0-2.454-1.309-4.722-3.434-5.949l-107.251-61.921c-2.125-1.227-4.744-1.227-6.869 0l-107.251 61.922c-2.125 1.227-3.434 3.494-3.434 5.948z" fill="#5d91b9"/><path d="m366.686 62.842-20.592-11.889c.212.67.336 1.373.336 2.097v125.842c0 2.494-1.33 4.798-3.49 6.045l-108.983 62.921c-.626.362-1.297.606-1.983.758l20.592 11.889c2.125 1.227 4.744 1.227 6.869 0l107.251-61.922c2.125-1.227 3.434-3.495 3.434-5.949v-123.844c0-2.453-1.309-4.721-3.434-5.948z" fill="#4980ac"/><path d="m162.654 375.091c-2.936 0-5.742-1.682-7.037-4.529-1.767-3.884-.051-8.465 3.833-10.232l74.297-33.8c3.885-1.766 8.466-.051 10.232 3.833 1.767 3.884.051 8.465-3.833 10.232l-74.297 33.8c-1.037.472-2.125.696-3.195.696z" fill="#5d91b9"/><g fill="#4980ac"><path d="m226.758 432.455c-13.201 0-23.94-10.739-23.94-23.94s10.739-23.94 23.94-23.94 23.94 10.739 23.94 23.94-10.739 23.94-23.94 23.94zm0-32.427c-4.68 0-8.487 3.807-8.487 8.487s3.807 8.487 8.487 8.487 8.487-3.807 8.487-8.487-3.807-8.487-8.487-8.487z"/><path d="m291.697 468.162h-16.5c-9.635 0-17.474-7.839-17.474-17.474v-26.243c0-9.635 7.839-17.474 17.474-17.474h16.5c9.635 0 17.474 7.839 17.474 17.474 0 4.267-3.459 7.726-7.726 7.726s-7.726-3.459-7.726-7.726c0-1.115-.907-2.022-2.022-2.022h-16.5c-1.115 0-2.022.907-2.022 2.022v26.243c0 1.115.907 2.021 2.022 2.021h16.5c1.115 0 2.022-.906 2.022-2.021 0-4.267 3.459-7.726 7.726-7.726s7.726 3.459 7.726 7.726c0 9.635-7.839 17.474-17.474 17.474z"/></g><g><g fill="#e6f7fe"><path d="m248.269 87.768v22.01c0 4.267 3.459 7.726 7.726 7.726s7.726-3.459 7.726-7.726v-22.01l13.649-14.79c2.894-3.136 2.698-8.024-.438-10.918s-8.024-2.698-10.918.438l-10.02 10.857-10.02-10.857c-2.894-3.136-7.782-3.331-10.918-.438-3.136 2.894-3.332 7.782-.438 10.918z"/><path d="m193.602 120.548c.562 0 1.134-.062 1.706-.191l19.633-4.426 19.061 11.005c1.217.703 2.545 1.037 3.856 1.037 2.67 0 5.267-1.386 6.698-3.865 2.134-3.695.868-8.421-2.828-10.554l-19.061-11.005-5.984-19.215c-1.268-4.074-5.601-6.348-9.674-5.079-4.074 1.269-6.349 5.6-5.079 9.674l4.392 14.106-14.412 3.249c-4.162.939-6.777 5.073-5.838 9.236.809 3.59 3.997 6.028 7.53 6.028z"/><path d="m241.728 147.871c3.695-2.133 4.962-6.859 2.828-10.554-2.133-3.695-6.86-4.963-10.554-2.828l-19.061 11.004-19.633-4.426c-4.167-.939-8.298 1.675-9.236 5.838-.939 4.163 1.676 8.298 5.838 9.236l14.412 3.249-4.392 14.106c-1.269 4.074 1.006 8.405 5.079 9.674.765.238 1.539.352 2.3.352 3.292 0 6.344-2.122 7.374-5.431l5.984-19.216z"/></g><path d="m263.721 173.656v-22.01c0-4.267-3.459-7.726-7.726-7.726s-7.726 3.459-7.726 7.726v22.01l-13.649 14.79c-2.894 3.136-2.698 8.024.438 10.918 3.136 2.893 8.024 2.698 10.918-.438l10.02-10.857 10.02 10.857c1.523 1.65 3.598 2.486 5.68 2.486 1.874 0 3.753-.678 5.238-2.048 3.136-2.894 3.332-7.782.438-10.918z" fill="#dcf2f6"/><path d="m316.681 141.067-19.633 4.426-19.061-11.004c-3.696-2.135-8.421-.867-10.554 2.828-2.134 3.696-.867 8.421 2.828 10.554l19.061 11.004 5.984 19.216c1.03 3.31 4.081 5.432 7.374 5.432.761 0 1.535-.113 2.299-.352 4.074-1.268 6.349-5.6 5.081-9.674l-4.393-14.107 14.412-3.249c4.162-.939 6.777-5.073 5.838-9.236-.938-4.163-5.072-6.775-9.236-5.838z" fill="#dcf2f6"/><path d="m270.261 113.554c-3.696 2.133-4.962 6.859-2.828 10.554 1.431 2.479 4.028 3.865 6.698 3.865 1.311 0 2.639-.334 3.856-1.037l19.061-11.005 19.632 4.426c.572.129 1.143.191 1.706.191 3.532 0 6.721-2.438 7.53-6.029.939-4.163-1.676-8.298-5.838-9.236l-14.412-3.249 4.392-14.106c1.269-4.074-1.006-8.405-5.079-9.674-4.074-1.27-8.406 1.006-9.674 5.079l-5.983 19.215z" fill="#e6f7fe"/></g><circle cx="256" cy="327.397" fill="#6bbdd5" r="26.052"/><circle cx="256" cy="130.712" fill="#dcf2f6" r="23.419"/></g></svg>