<svg id="Capa_1" enable-background="new 0 0 512 512" height="512" viewBox="0 0 512 512" width="512" xmlns="http://www.w3.org/2000/svg"><g><g><path d="m282.161 125.839-18.951-15.232c-11.625-9.344-17.683-23.97-16.07-38.796l2.63-24.171c.714-6.562-4.825-12.102-11.388-11.388l-24.172 2.63c-14.827 1.613-29.453-4.445-38.796-16.07l-15.233-18.953c-4.135-5.145-11.969-5.145-16.105 0l-15.232 18.951c-9.344 11.625-23.97 17.683-38.796 16.07l-24.172-2.63c-6.562-.714-12.102 4.826-11.388 11.388l2.63 24.171c1.613 14.827-4.445 29.453-16.07 38.796l-18.951 15.232c-5.145 4.135-5.145 11.969 0 16.105l18.951 15.232c11.625 9.344 17.683 23.97 16.07 38.796l-2.63 24.171c-.714 6.562 4.825 12.102 11.388 11.388l24.171-2.63c14.827-1.613 29.453 4.445 38.797 16.07l15.232 18.951c4.135 5.145 11.969 5.145 16.105 0l15.232-18.951c9.344-11.625 23.97-17.683 38.797-16.07l24.171 2.63c6.562.714 12.102-4.826 11.388-11.388l-2.63-24.171c-1.613-14.827 4.445-29.453 16.07-38.797l18.951-15.232c5.146-4.133 5.146-11.967.001-16.102z" fill="#ecc52e"/><circle cx="152.129" cy="133.891" fill="#e69642" r="66.301"/><path d="m169.685 69.957c14.446 12.162 23.633 30.371 23.633 50.733 0 36.617-29.684 66.301-66.301 66.301-6.08 0-11.962-.835-17.556-2.367 11.532 9.709 26.413 15.568 42.668 15.568 36.617 0 66.301-29.684 66.301-66.301 0-30.537-20.652-56.236-48.745-63.934z" fill="#e27c48"/></g><path d="m474.27 60.051h-4.904c-4.145-20.367-22.158-35.693-43.747-35.693s-39.603 15.327-43.747 35.693c-.585 2.893-.895 5.884-.895 8.949 0 10.085 3.343 19.388 8.982 26.86 1.12 1.483 2.897 2.324 4.756 2.324h79.979c5.264 0 10.034-2.135 13.484-5.585 3.509-3.509 5.658-8.377 5.583-13.754-.146-10.495-8.996-18.794-19.491-18.794z" fill="#ddebfd"/><path d="m420.181 233.508c-4.693-4.693-11.183-7.597-18.34-7.597h-36.813c4.379-10.671 6.839-22.338 6.948-34.56.459-51.361-41.211-93.757-92.573-94.142-50.599-.38-91.96 39.514-93.938 89.535-.068 1.73-1.491 3.096-3.222 3.096-7.384.001-25.188.003-25.188.003-24.284 0-43.969 19.686-43.969 43.969 0 24.284 19.686 43.969 43.969 43.969h244.365c14.106 0 25.955-11.094 26.347-25.194.208-7.449-2.732-14.225-7.586-19.079z" fill="#ddebfd"/><path d="m348.555 191.351c-.099 11.102-2.138 21.744-5.792 31.6-.533 1.436.526 2.96 2.058 2.96h20.207c4.379-10.672 6.839-22.338 6.948-34.56.459-51.361-41.211-93.757-92.573-94.142-4.223-.032-8.381.223-12.458.735 46.196 5.827 82.036 45.755 81.61 93.407z" fill="#bed9fd"/><path d="m420.181 233.508c-4.693-4.693-11.183-7.597-18.34-7.597h-23.421c7.157 0 13.647 2.904 18.34 7.597 4.854 4.854 7.794 11.63 7.587 19.078-.392 14.1-12.242 25.194-26.347 25.194h23.421c14.106 0 25.955-11.094 26.347-25.194.207-7.448-2.733-14.224-7.587-19.078z" fill="#bed9fd"/><g fill="#6cbff8"><path d="m142.198 328.582-8.825 2.867v-9.279c0-4.204-3.407-7.611-7.611-7.611s-7.612 3.408-7.612 7.611v9.278l-8.824-2.867c-3.993-1.299-8.291.889-9.591 4.886-1.299 3.998.889 8.292 4.887 9.591l8.824 2.867-5.453 7.506c-2.471 3.401-1.718 8.161 1.684 10.632 1.351.982 2.916 1.454 4.468 1.454 2.353 0 4.675-1.088 6.163-3.138l5.453-7.506 5.454 7.506c1.49 2.05 3.81 3.138 6.164 3.138 1.551 0 3.117-.473 4.468-1.454 3.401-2.471 4.155-7.231 1.684-10.631l-5.454-7.506 8.824-2.867c3.998-1.299 6.186-5.593 4.887-9.591-1.297-3.997-5.597-6.185-9.59-4.886z"/><path d="m435.018 333.469c-1.298-3.998-5.598-6.186-9.591-4.886l-8.825 2.867v-9.279c0-4.204-3.407-7.611-7.611-7.611s-7.612 3.408-7.612 7.611v9.279l-8.825-2.867c-3.991-1.299-8.291.889-9.591 4.886-1.299 3.998.889 8.292 4.887 9.591l8.824 2.867-5.454 7.506c-2.471 3.4-1.718 8.161 1.684 10.631 1.351.982 2.916 1.454 4.468 1.454 2.353 0 4.675-1.088 6.164-3.138l5.454-7.507 5.454 7.507c1.49 2.05 3.81 3.138 6.163 3.138 1.551 0 3.117-.473 4.468-1.454 3.402-2.471 4.155-7.231 1.684-10.631l-5.454-7.506 8.824-2.867c4-1.299 6.188-5.593 4.889-9.591z"/></g><g fill="#5fa7ee"><path d="m262.822 361.193v30.61c0 4.204 3.407 7.612 7.612 7.612s7.612-3.408 7.612-7.612v-30.609l19.046-20.636c2.85-3.089 2.658-7.905-.431-10.756-3.089-2.852-7.906-2.659-10.756.431l-15.47 16.762-15.469-16.761c-2.85-3.089-7.666-3.282-10.756-.432-3.089 2.851-3.281 7.667-.431 10.756z"/><path d="m186.719 403.498c.554 0 1.117-.061 1.681-.188l27.394-6.175 26.508 15.304c1.199.692 2.507 1.021 3.799 1.021 2.63 0 5.189-1.366 6.599-3.807 2.102-3.641.854-8.296-2.786-10.397l-26.508-15.304-8.348-26.811c-1.251-4.014-5.517-6.256-9.53-5.005-4.014 1.25-6.255 5.517-5.005 9.53l6.781 21.778-22.251 5.016c-4.101.924-6.676 4.998-5.751 9.099.796 3.537 3.936 5.939 7.417 5.939z"/><path d="m249.913 440.528c3.64-2.102 4.888-6.757 2.786-10.397-2.101-3.641-6.758-4.889-10.397-2.786l-26.508 15.305-27.394-6.175c-4.105-.925-8.174 1.651-9.099 5.751-.925 4.101 1.65 8.175 5.751 9.099l22.251 5.016-6.781 21.778c-1.25 4.013.991 8.281 5.005 9.53.753.234 1.515.346 2.265.346 3.244 0 6.25-2.091 7.266-5.351l8.348-26.811z"/><path d="m278.045 478.59v-30.609c0-4.204-3.407-7.612-7.612-7.612s-7.612 3.408-7.612 7.612v30.609l-19.045 20.636c-2.85 3.089-2.658 7.904.431 10.756 3.088 2.849 7.904 2.657 10.756-.432l15.469-16.762 15.47 16.762c1.5 1.626 3.545 2.449 5.596 2.449 1.845 0 3.697-.667 5.161-2.018 3.089-2.851 3.281-7.667.431-10.755z"/><path d="m352.467 436.474-27.394 6.175-26.508-15.305c-3.643-2.103-8.297-.855-10.397 2.786-2.102 3.641-.854 8.296 2.786 10.397l26.508 15.304 8.349 26.812c1.016 3.26 4.021 5.351 7.266 5.351.749 0 1.511-.112 2.265-.346 4.014-1.25 6.255-5.516 5.005-9.53l-6.782-21.778 22.251-5.016c4.101-.924 6.676-4.998 5.751-9.099-.926-4.099-4.992-6.674-9.1-5.751z"/><path d="m290.953 399.256c-3.64 2.102-4.888 6.757-2.786 10.397 1.409 2.442 3.968 3.807 6.599 3.807 1.291 0 2.601-.329 3.799-1.021l26.508-15.304 27.394 6.175c.564.127 1.127.188 1.681.188 3.48 0 6.62-2.402 7.418-5.939.925-4.101-1.65-8.175-5.751-9.099l-22.251-5.016 6.782-21.777c1.25-4.014-.991-8.281-5.005-9.53-4.014-1.251-8.279.991-9.53 5.004l-8.349 26.812z"/></g><circle cx="270.433" cy="419.892" fill="#6cbff8" r="32.6"/></g></svg>