<svg id="Capa_1" enable-background="new 0 0 512 512" height="512" viewBox="0 0 512 512" width="512" xmlns="http://www.w3.org/2000/svg"><g><path d="m504.622 240.604-36.235-29.124c-22.227-17.865-33.81-45.83-30.726-74.179l5.028-46.216c1.365-12.547-9.226-23.139-21.774-21.774l-46.216 5.028c-28.349 3.084-56.314-8.499-74.179-30.726l-29.124-36.235c-7.907-9.838-22.886-9.838-30.793 0l-29.123 36.235c-17.865 22.227-45.83 33.81-74.179 30.726l-46.216-5.028c-12.547-1.365-23.139 9.226-21.774 21.774l5.028 46.216c3.084 28.349-8.499 56.314-30.726 74.179l-36.235 29.124c-9.838 7.907-9.838 22.886 0 30.793l36.235 29.124c22.227 17.865 33.81 45.83 30.726 74.179l-5.028 46.216c-1.365 12.547 9.226 23.139 21.774 21.774l46.216-5.028c28.349-3.084 56.314 8.499 74.179 30.726l29.124 36.235c7.907 9.838 22.886 9.838 30.793 0l29.124-36.235c17.865-22.227 45.83-33.81 74.179-30.726l46.216 5.028c12.547 1.365 23.139-9.226 21.774-21.774l-5.028-46.216c-3.084-28.349 8.499-56.314 30.726-74.179l36.235-29.124c9.836-7.908 9.836-22.886-.001-30.793z" fill="#ecc52e"/><circle cx="256" cy="256" fill="#e69642" r="155.433"/><path d="m360.069 140.554c16.611 24.736 26.306 54.505 26.306 86.541 0 85.844-69.59 155.433-155.433 155.433-40.027 0-76.517-15.134-104.069-39.987 27.901 41.548 75.319 68.893 129.127 68.893 85.844 0 155.433-69.59 155.433-155.433 0-45.817-19.827-86.999-51.364-115.447z" fill="#e27c48"/></g></svg>