<svg id="Capa_1" enable-background="new 0 0 512 512" height="512" viewBox="0 0 512 512" width="512" xmlns="http://www.w3.org/2000/svg"><g><path d="m337.83 281.77v19.13c0 3.8-1.62 7.42-4.45 9.95l-24.17 21.63c-2.29 2.06-3.61 4.99-3.61 8.07v130.83l-49.6 20-49.6-20v-130.83c0-3.08-1.32-6.01-3.61-8.07l-24.17-21.63c-2.83-2.53-4.45-6.15-4.45-9.95v-19.13c0-1.79 1.45-3.24 3.24-3.24h157.18c1.79 0 3.24 1.45 3.24 3.24z" fill="#ddebfd"/><path d="m337.83 281.77v19.13c0 3.8-1.62 7.42-4.45 9.95l-24.17 21.63c-2.29 2.06-3.61 4.99-3.61 8.07v130.83h-26.5v-130.83c0-3.08 1.31-6.01 3.61-8.07l24.17-21.63c2.83-2.53 4.45-6.15 4.45-9.95v-19.13c0-1.79-1.45-3.24-3.24-3.24h26.5c1.79 0 3.24 1.45 3.24 3.24z" fill="#bed9fd"/><path d="m206.396 471.375v28.424c0 6.739 5.462 12.201 12.201 12.201h74.806c6.738 0 12.201-5.463 12.201-12.201v-28.424z" fill="#6cbff8"/><path d="m279.103 499.799c0 6.738-5.463 12.201-12.201 12.201h26.501c4.633 0 8.662-2.582 10.729-6.385.939-1.729 1.473-3.71 1.473-5.816v-28.424h-26.501v28.424z" fill="#5fa7ee"/><g><path d="m453.345 49.999h-7.462c-5.805-28.53-31.038-49.999-61.28-49.999s-55.475 21.469-61.28 49.999c-.82 4.053-1.254 8.242-1.254 12.536 0 15.632 5.733 29.92 15.213 40.88h116.063c7.374 0 14.056-2.991 18.888-7.824 4.833-4.833 7.824-11.507 7.824-18.888 0-14.747-11.965-26.704-26.712-26.704z" fill="#ddebfd"/><path d="m435.263 179.012c-6.164-6.164-14.687-9.978-24.087-9.978h-48.348c5.751-14.015 8.982-29.337 9.125-45.389.604-67.455-54.124-123.135-121.58-123.641-66.454-.499-120.776 51.895-123.372 117.591-.09 2.272-1.958 4.066-4.231 4.066-9.697.002-33.08.004-33.08.004-31.893 0-57.747 25.854-57.747 57.747s25.854 57.746 57.747 57.746h320.935c18.526 0 34.088-14.57 34.603-33.089.272-9.783-3.59-18.682-9.965-25.057z" fill="#ddebfd"/><g fill="#bed9fd"><path d="m435.263 179.012c-6.164-6.164-14.687-9.978-24.087-9.978h-30.759c9.4 0 17.923 3.814 24.087 9.978 6.375 6.375 10.236 15.274 9.964 25.056-.515 18.519-16.078 33.089-34.603 33.089h30.759c18.526 0 34.088-14.57 34.603-33.089.273-9.782-3.589-18.681-9.964-25.056z"/><path d="m341.194 123.645c-.13 14.58-2.808 28.558-7.607 41.501-.699 1.886.69 3.888 2.702 3.888h26.539c5.751-14.015 8.982-29.337 9.125-45.389.604-67.455-54.124-123.135-121.58-123.641-5.547-.042-11.007.293-16.361.966 60.672 7.653 107.742 60.092 107.182 122.675z"/></g></g><path d="m301.65 200.815c0 25.212-20.438 45.65-45.65 45.65s-45.65-20.438-45.65-45.65c0-31.895 37.846-74.505 45.65-74.505 6.264 0 45.65 42.61 45.65 74.505z" fill="#6cbff8"/><g fill="#5d91b9"><path d="m239.286 433.841c0-4.267-3.459-7.726-7.726-7.726h-25.163v15.453h25.163c4.267-.001 7.726-3.46 7.726-7.727z"/><path d="m239.286 396.307c0-4.267-3.459-7.726-7.726-7.726h-25.163v15.453h25.163c4.267-.001 7.726-3.46 7.726-7.727z"/><path d="m231.559 351.047h-25.163v15.453h25.163c4.268 0 7.726-3.459 7.726-7.726.001-4.268-3.458-7.727-7.726-7.727z"/></g></g></svg>