<svg id="Capa_1" enable-background="new 0 0 512 512" height="512" viewBox="0 0 512 512" width="512" xmlns="http://www.w3.org/2000/svg"><g><g><path d="m450.623 49.309h-7.359c-5.726-28.136-30.61-49.309-60.435-49.309s-54.709 21.173-60.435 49.309c-.809 3.997-1.237 8.128-1.237 12.363 0 15.416 5.654 29.508 15.004 40.316h114.462c7.272 0 13.862-2.95 18.628-7.716s7.716-11.348 7.716-18.628c-.001-14.543-11.801-26.335-26.344-26.335z" fill="#ddebfd"/><path d="m432.79 191.603c-6.079-6.079-14.485-9.84-23.755-9.84h-47.681c5.672-13.822 8.858-28.932 8.999-44.763.595-66.524-53.378-121.436-119.903-121.935-65.538-.492-119.109 51.179-121.67 115.968-.089 2.241-1.931 4.009-4.173 4.01-9.564.002-32.624.004-32.624.004-31.453 0-56.95 25.497-56.95 56.95s25.497 56.949 56.95 56.949h316.507c18.27 0 33.618-14.369 34.126-32.632.269-9.648-3.539-18.424-9.826-24.711z" fill="#ddebfd"/><g fill="#bed9fd"><path d="m432.79 191.603c-6.079-6.079-14.485-9.84-23.755-9.84h-30.335c9.27 0 17.676 3.761 23.755 9.84 6.287 6.287 10.095 15.063 9.827 24.711-.508 18.263-15.856 32.632-34.126 32.632h30.335c18.27 0 33.618-14.369 34.126-32.632.268-9.648-3.54-18.424-9.827-24.711z"/><path d="m340.019 137c-.129 14.379-2.769 28.164-7.502 40.929-.69 1.86.681 3.834 2.665 3.834h26.173c5.672-13.822 8.858-28.932 8.999-44.763.595-66.524-53.378-121.436-119.903-121.935-5.47-.041-10.855.289-16.136.952 59.835 7.548 106.256 59.263 105.704 120.983z"/></g></g><path d="m282.584 437.938-21.243-12.265c-3.293-1.901-7.386-1.901-10.68 0l-21.243 12.264c-3.294 1.901-5.341 5.446-5.341 9.25v24.53c0 3.803 2.046 7.347 5.34 9.249l21.243 12.264c1.647.951 3.494 1.426 5.341 1.426 1.846 0 3.693-.476 5.34-1.426l21.244-12.264c3.293-1.902 5.339-5.446 5.339-9.249v-24.53c-.001-3.804-2.047-7.348-5.34-9.249z" fill="#6cbff8"/><path d="m384.234 458.521c-14.744 0-26.739 11.995-26.739 26.739s11.995 26.74 26.739 26.74 26.74-11.996 26.74-26.74-11.996-26.739-26.74-26.739z" fill="#6cbff8"/><path d="m384.234 436.992c-4.225 0-7.649-3.425-7.649-7.649v-129.608c0-4.225 3.425-7.649 7.649-7.649s7.649 3.425 7.649 7.649v129.607c0 4.225-3.424 7.65-7.649 7.65z" fill="#bed9fd"/><path d="m127.766 458.521c-14.744 0-26.739 11.995-26.739 26.739s11.995 26.74 26.739 26.74 26.74-11.996 26.74-26.74-11.996-26.739-26.74-26.739z" fill="#6cbff8"/><g fill="#bed9fd"><path d="m127.766 436.992c-4.225 0-7.649-3.425-7.649-7.649v-129.608c0-4.225 3.425-7.649 7.649-7.649s7.649 3.425 7.649 7.649v129.607c0 4.225-3.424 7.65-7.649 7.65z"/><path d="m256 404.374c-4.225 0-7.649-3.425-7.649-7.649v-96.989c0-4.225 3.425-7.649 7.649-7.649 4.225 0 7.649 3.425 7.649 7.649v96.989c0 4.224-3.424 7.649-7.649 7.649z"/><path d="m320.117 375.357c-4.225 0-7.649-3.425-7.649-7.649v-67.972c0-4.225 3.425-7.649 7.649-7.649s7.649 3.425 7.649 7.649v67.972c0 4.224-3.424 7.649-7.649 7.649z"/><path d="m191.883 375.357c-4.225 0-7.649-3.425-7.649-7.649v-67.972c0-4.225 3.425-7.649 7.649-7.649 4.225 0 7.649 3.425 7.649 7.649v67.972c0 4.224-3.424 7.649-7.649 7.649z"/></g></g></svg>