<svg id="Capa_1" enable-background="new 0 0 512 512" height="512" viewBox="0 0 512 512" width="512" xmlns="http://www.w3.org/2000/svg"><g><path d="m206.035 168.572c-3.039-3.039-7.242-4.92-11.878-4.92h-23.841c2.836-6.911 4.429-14.466 4.5-22.382.298-33.262-26.689-60.719-59.952-60.968-32.769-.246-59.555 25.59-60.836 57.985-.044 1.12-.965 2.005-2.086 2.005-4.782.001-16.312.002-16.312.002-15.726 0-28.475 12.749-28.475 28.475s12.749 28.475 28.475 28.475h158.255c9.135 0 16.809-7.185 17.063-16.316.135-4.824-1.769-9.213-4.913-12.356z" fill="#ddebfd"/><g><g fill="#bed9fd"><path d="m151.638 141.27c-.055 6.165-1.034 12.111-2.803 17.705-.733 2.316.975 4.677 3.404 4.677h18.079c3.458-8.428 5.068-17.814 4.323-27.644-2.21-29.15-25.456-52.766-54.566-55.446-5.974-.55-11.785-.218-17.327.865 27.976 5.457 49.154 30.361 48.89 59.843z"/><path d="m206.035 168.572c-3.039-3.039-7.242-4.92-11.878-4.92h-23.179c4.635 0 8.838 1.881 11.878 4.92 3.144 3.144 5.048 7.532 4.913 12.355-.254 9.132-7.928 16.316-17.063 16.316h23.179c9.135 0 16.809-7.185 17.063-16.316.135-4.824-1.769-9.212-4.913-12.355z"/></g></g><path d="m512 408.785v72.539c0 2.845-2.306 5.151-5.151 5.151h-501.698c-2.845 0-5.151-2.306-5.151-5.151v-72.539c0-.865 1.002-1.346 1.672-.798 8.39 6.854 19.106 10.969 30.787 10.969 13.413 0 25.552-5.429 34.359-14.206 1.606-1.601 4.197-1.601 5.803.001 8.801 8.777 20.94 14.205 34.352 14.205 13.413 0 25.552-5.429 34.359-14.206 1.606-1.601 4.197-1.601 5.803.001 8.801 8.777 20.94 14.205 34.352 14.205 13.413 0 25.552-5.429 34.359-14.206 1.606-1.601 4.197-1.601 5.803.001 8.801 8.777 20.94 14.205 34.352 14.205s25.551-5.429 34.352-14.205c1.606-1.602 4.196-1.602 5.803-.001 8.806 8.777 20.946 14.206 34.359 14.206 13.412 0 25.551-5.429 34.352-14.205 1.606-1.602 4.196-1.602 5.803-.001 8.806 8.777 20.946 14.206 34.358 14.206s25.551-5.429 34.352-14.205c1.606-1.602 4.196-1.602 5.803-.001 8.806 8.777 20.946 14.206 34.359 14.206 11.681 0 22.398-4.114 30.787-10.969.669-.548 1.671-.067 1.671.798z" fill="#75cff9"/><path d="m510.329 407.986c-3.008 2.457-6.318 4.555-9.861 6.244v50.435c0 2.845-2.306 5.151-5.151 5.151h-495.317v11.507c0 2.845 2.306 5.151 5.151 5.151h501.698c2.845 0 5.151-2.306 5.151-5.151v-72.539c0-.864-1.002-1.345-1.671-.798z" fill="#5fa7ee"/><path d="m494.346 134.691-9.605-7.72c-5.892-4.735-8.962-12.148-8.145-19.663l1.333-12.251c.362-3.326-2.446-6.133-5.772-5.772l-12.251 1.333c-7.515.818-14.927-2.253-19.663-8.145l-7.72-9.605c-2.096-2.608-6.066-2.608-8.162 0l-7.72 9.605c-4.735 5.892-12.148 8.962-19.663 8.145l-12.251-1.333c-3.326-.362-6.133 2.446-5.772 5.772l1.333 12.251c.818 7.515-2.253 14.927-8.145 19.663l-9.605 7.72c-2.608 2.096-2.608 6.066 0 8.162l9.605 7.72c5.892 4.735 8.962 12.148 8.145 19.663l-1.333 12.251c-.362 3.326 2.446 6.133 5.772 5.772l12.251-1.333c7.515-.818 14.927 2.253 19.663 8.145l7.72 9.605c2.096 2.608 6.066 2.608 8.162 0l7.72-9.605c4.736-5.892 12.148-8.962 19.663-8.145l12.251 1.333c3.326.362 6.133-2.446 5.772-5.772l-1.333-12.251c-.818-7.515 2.253-14.927 8.145-19.663l9.605-7.72c2.607-2.096 2.607-6.066 0-8.162z" fill="#ecc52e"/><circle cx="428.443" cy="138.772" fill="#e69642" r="33.85"/><g fill="#9abbd4"><path d="m416.668 271.624-21.93-17.515c-.022-.018-.048-.029-.07-.047-1.362-1.066-3.09-1.642-4.752-1.642-1.808 0-3.533.649-4.822 1.689l-21.929 17.515c-3.334 2.663-3.878 7.525-1.215 10.859 1.526 1.91 3.774 2.905 6.042 2.905 1.69 0 3.393-.553 4.817-1.69l9.38-7.492v8.662c0 .484-.175.95-.487 1.306l-2.248 2.556c-5.789 6.563-5.789 16.462-.012 23.013l9.344 10.644c.649.736.646 1.851-.008 2.596l-9.333 10.621c-2.817 3.206-2.502 8.088.704 10.904 1.467 1.29 3.286 1.923 5.097 1.923 2.145 0 4.28-.888 5.807-2.626l9.332-10.62c5.775-6.568 5.771-16.463.004-23.004l-9.345-10.644c-.65-.737-.65-1.848.007-2.593l2.261-2.57c2.793-3.182 4.331-7.268 4.331-11.505v-8.663l9.381 7.493c3.332 2.663 8.195 2.118 10.859-1.215 2.663-3.335 2.119-8.197-1.215-10.86z"/><path d="m493.719 271.624-21.93-17.515c-1.327-1.059-3.032-1.689-4.823-1.689-1.779.001-3.497.627-4.821 1.69l-21.928 17.515c-3.334 2.663-3.878 7.525-1.215 10.859 2.664 3.335 7.525 3.879 10.859 1.215l9.379-7.492v8.662c0 .485-.174.951-.485 1.304l-2.251 2.559c-5.786 6.562-5.786 16.461-.011 23.012l9.345 10.645c.649.735.646 1.85-.009 2.595l-9.333 10.621c-2.817 3.206-2.502 8.088.704 10.904 1.467 1.29 3.286 1.923 5.097 1.923 2.145 0 4.28-.888 5.807-2.626l9.331-10.619c5.777-6.568 5.774-16.464.005-23.005l-9.344-10.644c-.65-.737-.65-1.849.005-2.592l2.263-2.572c2.793-3.181 4.33-7.267 4.33-11.505v-8.663l9.381 7.493c1.424 1.137 3.126 1.69 4.817 1.69 2.269-.001 4.516-.995 6.042-2.905 2.664-3.335 2.119-8.197-1.215-10.86z"/></g><g fill="#75cff9"><path d="m68.627 270.603c-4.268 0-7.726-3.459-7.726-7.726v-4.121c0-4.267 3.459-7.726 7.726-7.726 4.268 0 7.726 3.459 7.726 7.726v4.121c0 4.266-3.459 7.726-7.726 7.726z"/><path d="m68.627 310.211c-4.268 0-7.726-3.459-7.726-7.726v-4.121c0-4.267 3.459-7.726 7.726-7.726 4.268 0 7.726 3.459 7.726 7.726v4.121c0 4.267-3.459 7.726-7.726 7.726z"/><path d="m68.627 349.82c-4.268 0-7.726-3.459-7.726-7.726v-4.121c0-4.267 3.459-7.726 7.726-7.726 4.268 0 7.726 3.459 7.726 7.726v4.121c0 4.267-3.459 7.726-7.726 7.726z"/><path d="m109.055 270.603c-4.268 0-7.726-3.459-7.726-7.726v-4.121c0-4.267 3.459-7.726 7.726-7.726 4.268 0 7.726 3.459 7.726 7.726v4.121c.001 4.266-3.458 7.726-7.726 7.726z"/><path d="m109.055 310.211c-4.268 0-7.726-3.459-7.726-7.726v-4.121c0-4.267 3.459-7.726 7.726-7.726 4.268 0 7.726 3.459 7.726 7.726v4.121c.001 4.267-3.458 7.726-7.726 7.726z"/><path d="m109.055 349.82c-4.268 0-7.726-3.459-7.726-7.726v-4.121c0-4.267 3.459-7.726 7.726-7.726 4.268 0 7.726 3.459 7.726 7.726v4.121c.001 4.267-3.458 7.726-7.726 7.726z"/><path d="m149.484 270.603c-4.268 0-7.726-3.459-7.726-7.726v-4.121c0-4.267 3.459-7.726 7.726-7.726s7.726 3.459 7.726 7.726v4.121c0 4.266-3.458 7.726-7.726 7.726z"/><path d="m149.484 310.211c-4.268 0-7.726-3.459-7.726-7.726v-4.121c0-4.267 3.459-7.726 7.726-7.726s7.726 3.459 7.726 7.726v4.121c0 4.267-3.458 7.726-7.726 7.726z"/><path d="m149.484 349.82c-4.268 0-7.726-3.459-7.726-7.726v-4.121c0-4.267 3.459-7.726 7.726-7.726s7.726 3.459 7.726 7.726v4.121c0 4.267-3.458 7.726-7.726 7.726z"/></g><g fill="#5d91b9"><path d="m295.992 45.745h-44.047l5.845-7.897c2.538-3.43 1.816-8.268-1.614-10.807-3.429-2.538-8.269-1.816-10.807 1.614l-14.967 20.22c-1.972 2.673-2.053 6.409 0 9.193l14.966 20.225c1.516 2.048 3.851 3.131 6.217 3.131 1.597 0 3.208-.493 4.59-1.516 3.431-2.538 4.154-7.377 1.615-10.807l-5.848-7.903h44.05c4.268 0 7.726-3.459 7.726-7.726s-3.458-7.727-7.726-7.727z"/><path d="m302.201 289.697-14.967-20.219c-2.539-3.429-7.377-4.151-10.807-1.613-3.43 2.539-4.152 7.377-1.614 10.807l5.845 7.896h-44.047c-4.268 0-7.726 3.459-7.726 7.726s3.459 7.726 7.726 7.726h44.05l-5.848 7.903c-2.538 3.43-1.815 8.269 1.616 10.807 1.382 1.023 2.993 1.516 4.59 1.516 2.366 0 4.701-1.083 6.217-3.131l14.967-20.226c1.992-2.68 2.02-6.454-.002-9.192z"/></g></g></svg>