<svg id="Capa_1" enable-background="new 0 0 512 512" height="512" viewBox="0 0 512 512" width="512" xmlns="http://www.w3.org/2000/svg"><g><g><g fill="#ddebfd"><path d="m165.462 335.572c-52.236 0-98.154 27.022-124.56 67.844-.844 1.305-.844 3.002 0 4.307 26.406 40.822 72.324 67.843 124.56 67.843s98.154-27.021 124.56-67.843c.844-1.305.844-3.002 0-4.307-26.406-40.822-72.324-67.844-124.56-67.844z"/><path d="m472.662 54.893h-8.192c-6.375-31.322-34.077-54.893-67.279-54.893s-60.904 23.571-67.278 54.893c-.9 4.449-1.377 9.049-1.377 13.763 0 17.162 6.294 32.849 16.703 44.882h127.424c8.095 0 15.431-3.284 20.737-8.59s8.59-12.633 8.59-20.737c-.002-16.191-13.138-29.318-29.328-29.318z"/><path d="m452.81 196.534c-6.767-6.767-16.125-10.954-26.445-10.954h-53.08c6.314-15.387 9.861-32.208 10.018-49.832.663-74.058-59.422-135.188-133.48-135.744-72.959-.547-132.597 56.975-135.448 129.101-.099 2.494-2.149 4.463-4.645 4.464-10.646.002-36.318.004-36.318.004-35.014 0-63.399 28.385-63.399 63.399s28.385 63.398 63.399 63.398h352.348c20.339 0 37.425-15.996 37.99-36.327.298-10.74-3.941-20.51-10.94-27.509z"/></g><path d="m452.81 196.534c-6.767-6.767-16.125-10.954-26.445-10.954h-33.77c10.32 0 19.678 4.187 26.445 10.954 6.999 6.999 11.238 16.769 10.94 27.509-.565 20.331-17.651 36.327-37.99 36.327h33.77c20.339 0 37.425-15.996 37.99-36.327.298-10.74-3.941-20.51-10.94-27.509z" fill="#bed9fd"/><path d="m349.533 135.747c-.143 16.008-3.082 31.353-8.352 45.563-.768 2.071.758 4.269 2.967 4.269h29.136c6.314-15.387 9.861-32.208 10.018-49.832.664-74.057-59.421-135.187-133.479-135.743-6.09-.046-12.084.322-17.963 1.06 66.61 8.403 118.288 65.975 117.673 134.683z" fill="#bed9fd"/><path d="m131.064 339.593c-23.774 12.421-40.011 37.295-40.011 65.976 0 28.68 16.237 53.554 40.01 65.975 11.04 2.624 22.555 4.021 34.398 4.021s23.358-1.397 34.398-4.021c23.773-12.421 40.01-37.294 40.01-65.975 0-28.682-16.237-53.556-40.011-65.976-11.04-2.624-22.555-4.021-34.397-4.021s-23.357 1.397-34.397 4.021z" fill="#75cff9"/><circle cx="165.462" cy="405.569" fill="#5d91b9" r="37.37"/></g><path d="m264.281 512c-1.948 0-3.896-.743-5.382-2.229l-197.639-197.639c-2.973-2.973-2.973-7.792 0-10.765 2.972-2.971 7.792-2.971 10.764 0l197.639 197.639c2.973 2.973 2.973 7.792 0 10.765-1.486 1.486-3.434 2.229-5.382 2.229z" fill="#df646e"/><g fill="#bed9fd"><path d="m463.765 316.65h-229.116c-4.204 0-7.611-3.407-7.611-7.611s3.408-7.612 7.611-7.612h229.115c4.204 0 7.612 3.407 7.612 7.612s-3.408 7.611-7.611 7.611z"/><path d="m463.765 364.916h-164.516c-4.204 0-7.612-3.407-7.612-7.612s3.408-7.611 7.612-7.611h164.515c4.204 0 7.612 3.407 7.612 7.611s-3.408 7.612-7.611 7.612z"/><path d="m463.765 413.18h-127.006c-4.204 0-7.611-3.407-7.611-7.612s3.408-7.611 7.611-7.611h127.006c4.204 0 7.612 3.407 7.612 7.611s-3.409 7.612-7.612 7.612z"/></g></g></svg>