<svg id="Capa_1" enable-background="new 0 0 512 512" height="512" viewBox="0 0 512 512" width="512" xmlns="http://www.w3.org/2000/svg"><g><g><path d="m475.931 55.721h-8.316c-6.47-31.795-34.59-55.721-68.293-55.721s-61.824 23.926-68.294 55.721c-.914 4.516-1.398 9.185-1.398 13.971 0 17.421 6.389 33.345 16.955 45.559h129.346c8.217 0 15.664-3.334 21.05-8.719 5.386-5.386 8.719-12.824 8.719-21.05 0-16.436-13.334-29.761-29.769-29.761z" fill="#ddebfd"/><path d="m455.78 199.5c-6.869-6.869-16.368-11.12-26.844-11.12h-53.881c6.409-15.619 10.01-32.694 10.17-50.584.672-75.175-60.32-137.228-135.495-137.792-74.06-.556-134.598 57.835-137.492 131.049-.1 2.532-2.182 4.531-4.716 4.531-10.807.002-36.866.004-36.866.004-35.543 0-64.356 28.813-64.356 64.356s28.813 64.355 64.356 64.355h357.666c20.646 0 37.99-16.238 38.564-36.876.302-10.901-4.001-20.819-11.106-27.923z" fill="#ddebfd"/><g fill="#bed9fd"><path d="m455.78 199.5c-6.869-6.869-16.368-11.12-26.844-11.12h-34.28c10.476 0 19.975 4.25 26.844 11.12 7.105 7.105 11.408 17.022 11.105 27.924-.574 20.638-17.918 36.876-38.564 36.876h34.28c20.646 0 37.99-16.238 38.564-36.876.303-10.902-4-20.82-11.105-27.924z"/><path d="m350.945 137.796c-.145 16.249-3.129 31.826-8.478 46.251-.78 2.102.77 4.333 3.012 4.333h29.576c6.409-15.619 10.01-32.694 10.17-50.584.672-75.175-60.32-137.228-135.495-137.792-6.182-.046-12.266.327-18.234 1.076 67.615 8.53 120.073 66.97 119.449 136.716z"/></g></g><g><path d="m238.847 200.773-162.534 281.518c-7.623 13.204 1.906 29.709 17.153 29.709h325.068c15.247 0 24.776-16.505 17.153-29.709l-162.536-281.52c-7.623-13.204-26.68-13.202-34.304.002z" fill="#df646e"/><path d="m435.687 482.291-162.536-281.52c-7.623-13.204-26.687-13.205-34.304.003l-.1.173 155.639 269.573c2.103 3.642-.526 8.196-4.732 8.196h-296.188c-4.889 0-9.186-1.703-12.522-4.445l-4.63 8.02c-7.624 13.204 1.905 29.709 17.152 29.709 60.964 0 331.949 0 325.068 0 15.247 0 24.776-16.505 17.153-29.709z" fill="#cd5668"/><g fill="#ddebfd"><circle cx="256" cy="450.104" r="19.698"/><path d="m227.147 302.92 12.487 87.083c.661 4.607 4.607 8.028 9.262 8.028h14.209c4.654 0 8.601-3.421 9.262-8.028l12.487-87.083c1.083-7.554-4.778-14.316-12.409-14.316h-32.888c-7.632.001-13.493 6.762-12.41 14.316z"/></g></g></g></svg>