<svg id="Capa_1" enable-background="new 0 0 512 512" height="512" viewBox="0 0 512 512" width="512" xmlns="http://www.w3.org/2000/svg"><g><path d="m283.691 189.739-20.371-16.373c-12.496-10.043-19.008-25.765-17.274-41.702l2.827-25.982c.767-7.054-5.187-13.008-12.241-12.241l-25.982 2.827c-15.937 1.734-31.659-4.778-41.702-17.274l-16.373-20.371c-4.445-5.531-12.866-5.531-17.311 0l-16.373 20.371c-10.043 12.496-25.765 19.008-41.702 17.274l-25.982-2.828c-7.054-.767-13.008 5.187-12.241 12.241l2.827 25.982c1.734 15.937-4.778 31.659-17.274 41.702l-20.371 16.374c-5.531 4.445-5.531 12.866 0 17.311l20.371 16.373c12.496 10.043 19.008 25.765 17.274 41.702l-2.827 25.982c-.767 7.054 5.187 13.008 12.241 12.241l25.982-2.827c15.937-1.734 31.659 4.778 41.702 17.274l16.373 20.371c4.445 5.531 12.866 5.531 17.311 0l16.373-20.371c10.043-12.496 25.765-19.008 41.702-17.274l25.982 2.827c7.054.767 13.008-5.187 12.241-12.241l-2.827-25.982c-1.734-15.937 4.778-31.659 17.274-41.702l20.371-16.373c5.531-4.445 5.531-12.866 0-17.311z" fill="#ecc52e"/><circle cx="143.92" cy="198.394" fill="#e69642" r="80.685"/><path d="m165.284 120.591c17.58 14.801 28.76 36.96 28.76 61.739 0 44.561-36.124 80.685-80.685 80.685-7.399 0-14.557-1.016-21.365-2.881 14.034 11.815 32.143 18.946 51.924 18.946 44.561 0 80.685-36.124 80.685-80.685.001-37.162-25.13-68.437-59.319-77.804z" fill="#e27c48"/><path d="m483.428 240.997h-7.982c-6.21-30.516-33.2-53.481-65.548-53.481s-59.338 22.965-65.548 53.481c-.877 4.335-1.342 8.816-1.342 13.409 0 16.72 6.133 32.004 16.273 43.727h124.147c7.887 0 15.035-3.2 20.204-8.369 5.168-5.169 8.368-12.308 8.368-20.204 0-15.774-12.798-28.563-28.572-28.563z" fill="#ddebfd"/><path d="m464.086 395.331c-6.593-6.593-15.71-10.673-25.765-10.673h-51.715c6.152-14.991 9.607-31.38 9.761-48.551.645-72.153-57.894-131.711-130.048-132.253-71.083-.533-129.187 55.51-131.965 125.781-.096 2.43-2.094 4.349-4.526 4.349-10.373.002-35.384.004-35.384.004-34.114 0-61.769 27.655-61.769 61.769s27.655 61.768 61.769 61.768h343.288c19.816 0 36.462-15.585 37.013-35.393.291-10.464-3.84-19.982-10.659-26.801z" fill="#ddebfd"/><g fill="#bed9fd"><path d="m464.086 395.331c-6.593-6.593-15.71-10.673-25.765-10.673h-32.901c10.055 0 19.172 4.08 25.765 10.673 6.819 6.819 10.949 16.338 10.658 26.801-.551 19.808-17.197 35.393-37.013 35.393h32.902c19.816 0 36.462-15.585 37.013-35.393.291-10.464-3.84-19.982-10.659-26.801z"/><path d="m363.466 336.107c-.14 15.596-3.003 30.547-8.137 44.392-.748 2.018.739 4.159 2.891 4.159h28.387c6.152-14.992 9.607-31.38 9.761-48.551.645-72.153-57.894-131.711-130.048-132.253-5.933-.045-11.773.314-17.501 1.033 64.897 8.187 115.245 64.279 114.647 131.22z"/></g></g></svg>