<svg id="Capa_1" enable-background="new 0 0 480.347 480.347" height="512" viewBox="0 0 480.347 480.347" width="512" xmlns="http://www.w3.org/2000/svg"><g><path d="m479.361 308.898c-4.85-48.969-27.702-95.953-63.23-130.002-25.297-24.244-46.503-38.584-77.387-55.213-17.604-9.479-74.839-24.336-98.571-24.336-.022 0-.045 0-.067 0-2.456.001-3.819-2.864-2.209-4.72 43.217-49.819 117.114-63.476 175.486-30.707 11.089 6.226 25.109 1.162 29.55-10.755 3.507-9.41-.221-20.044-8.921-25.06-37.557-21.653-81.951-31.395-125.114-27.119-48.969 4.85-95.953 27.702-130.002 63.23-24.244 25.297-49.148 60.19-61.254 93.111-2.72 7.398-18.296 59.114-18.296 82.847v.063c.001 2.457-2.899 3.793-4.755 2.182-49.635-43.087-63.348-116.639-30.974-174.912 5.852-10.534 2.264-24.005-8.568-29.285-9.835-4.795-21.59-1.173-26.944 8.113-21.653 37.556-31.395 81.951-27.119 125.114 4.85 48.969 27.702 95.953 63.23 130.002 25.297 24.244 59.162 48.287 92.082 60.393 7.398 2.72 60.143 19.156 83.875 19.156h.067c2.456-.001 3.819 2.864 2.209 4.72-43.217 49.819-117.114 63.476-175.486 30.707-11.089-6.226-25.109-1.162-29.55 10.755-3.507 9.41.221 20.044 8.921 25.06 37.557 21.653 81.952 31.395 125.115 27.119 48.969-4.85 95.953-27.702 130.002-63.23 24.244-25.297 46.434-50.466 58.54-83.387 2.72-7.398 21.01-68.838 21.01-92.571v-.063c-.001-2.457 2.899-3.793 4.755-2.182 49.636 43.087 63.348 116.639 30.975 174.912-5.852 10.534-2.264 24.005 8.568 29.285 9.835 4.795 21.59 1.173 26.944-8.113 21.652-37.557 31.393-81.951 27.118-125.114z" fill="#ddebfd"/><g fill="#bed9fd"><path d="m310.265 399.703c-54.456 44.539-78.062 52.287-127.792 57.137-43.834 4.275-88.919-5.466-127.061-27.119-5.021-2.851-8.405-7.517-9.743-12.741-3.643 2.308-6.609 5.782-8.256 10.201-3.507 9.41.221 20.044 8.921 25.06 37.557 21.653 81.952 31.395 125.115 27.119 48.969-4.85 95.953-27.702 130.002-63.23 15.023-15.676 31.685-31.842 41.737-50.871-7.2 10.577-21.824 25.366-32.923 34.444z"/><path d="m397.725 168.705c42.454 49.665 54.265 79.438 59.115 129.169 4.275 43.834-5.466 88.919-27.119 127.061-2.851 5.021-7.517 8.405-12.741 9.743 2.308 3.643 5.782 6.609 10.201 8.256 9.41 3.507 20.044-.221 25.06-8.921 21.653-37.557 31.395-81.952 27.119-125.115-4.85-48.969-27.702-95.953-63.23-130.002-15.676-15.023-27.965-25.079-48.817-38.64 10.577 7.199 21.628 18.173 30.412 28.449z"/><path d="m165.851 86.736c34.578-35.528 82.292-58.38 132.023-63.23 43.834-4.275 88.919 5.466 127.061 27.119 5.021 2.851 8.405 7.517 9.743 12.741 3.643-2.308 6.609-5.782 8.256-10.201 3.507-9.41-.221-20.044-8.921-25.06-37.558-21.653-81.952-31.395-125.115-27.119-48.969 4.85-95.953 27.702-130.002 63.23-15.023 15.676-28.456 32.771-39.751 50.695 7.199-10.576 17.658-18.878 26.706-28.175z"/><path d="m86.736 314.495c-35.528-34.578-58.38-82.292-63.23-132.023-4.275-43.834 5.466-88.919 27.119-127.061 2.851-5.021 7.517-8.405 12.741-9.743-2.308-3.643-5.782-6.609-10.201-8.256-9.41-3.507-20.044.221-25.06 8.921-21.653 37.558-31.395 81.953-27.119 125.116 4.85 48.969 28.801 94.843 63.23 130.002 15.443 15.771 32.043 29.805 51.072 39.857-10.576-7.2-19.255-17.764-28.552-26.813z"/></g><circle cx="240.173" cy="240.173" fill="#cde2ff" r="68.777"/><path d="m288.906 191.646c3.281 8.025 5.104 16.801 5.104 26.007 0 37.984-30.792 68.777-68.776 68.777-19.044 0-36.278-7.743-48.732-20.249 10.258 25.087 34.894 42.769 63.673 42.769 37.984 0 68.776-30.792 68.776-68.776-.001-18.941-7.659-36.09-20.045-48.528z" fill="#bed9fd"/></g></svg>