<svg id="Capa_1" enable-background="new 0 0 512 512" height="512" viewBox="0 0 512 512" width="512" xmlns="http://www.w3.org/2000/svg"><g><path d="m320.082 62.774c-102.061-67.921-212.495-83.087-246.661-33.874-13.112 18.886-13.072 44.512-2.293 72.758-2.902 3.553-5.332 7.409-7.23 11.577-7.937 17.435-5.681 37.962 4.801 59.193-1.232 2.506-2.298 5.098-3.168 7.784-5.639 17.399-2.782 36.339 6.868 54.958-44.949 60.709 29.456 133.604 113.032 162.026 102.27 34.779 165.708 64.279 172.836 99.593 1.771 8.773 9.253 15.213 18.203 15.213 9.092 0 16.928-6.594 18.276-15.586 6.324-42.185-17.132-67.566-53.589-91.407-28.638-18.728-40.402-39.921-18.962-66.03 25.15-4.895 45.848-14.853 59.21-29.255 9.408-2.579 17.838-6.059 25.09-10.428 15.771-4.56 28.337-12.642 36.52-24.429 34.167-49.215-20.872-144.173-122.933-212.093z" fill="#ddebfd"/><path d="m320.082 62.774c-8.091-5.384-16.234-10.434-24.388-15.15 94.178 68.246 145.098 160.257 114.639 211.34-7.713 12.935-19.953 22.063-35.534 27.531-7.075 4.949-15.362 8.99-24.662 12.1-12.785 15.929-33.076 27.363-58.016 33.535-20.396 28.774-7.805 51.058 21.552 70.079 37.373 24.215 61.813 50.558 57.157 96.008-.422 4.119-2.041 7.808-4.452 10.723 2.91 1.933 6.37 3.06 10.093 3.06 9.092 0 16.928-6.594 18.276-15.586 6.324-42.185-17.132-67.566-53.589-91.407-28.638-18.728-40.402-39.921-18.962-66.03 25.15-4.895 45.848-14.852 59.21-29.255 9.408-2.578 17.838-6.059 25.09-10.428 15.771-4.56 28.337-12.642 36.52-24.429 34.166-49.213-20.873-144.171-122.934-212.091z" fill="#bed9fd"/><ellipse cx="273.369" cy="141.163" fill="#9ec8fc" rx="28.624" ry="153.757" transform="matrix(.554 -.833 .833 .554 4.403 290.544)"/><g fill="#bed9fd"><path d="m264.689 345.641c5.095.194 10.115.234 15.052.122 14.517-.33 28.285-1.987 40.968-4.896.482-.628.966-1.257 1.487-1.891 9.142-1.779 17.687-4.236 25.514-7.324 1.875-1.723 2.563-4.499 1.507-6.974-1.34-3.139-4.971-4.6-8.111-3.259-20.784 8.869-47.047 12.977-75.944 11.867-3.41-.117-6.282 2.529-6.413 5.941-.131 3.413 2.529 6.284 5.94 6.414z"/><path d="m191.832 336.658c.633.205 1.275.303 1.907.303 2.607 0 5.031-1.663 5.878-4.278 1.053-3.247-.727-6.733-3.974-7.786-57.364-18.59-104.183-53.463-123.295-89.834.018.035.034.07.052.105-2.971 4.013-5.407 8.081-7.367 12.184 22.358 36.954 69.011 70.578 126.799 89.306z"/><path d="m166.793 264.074c-7.734-4.363-15.292-9-22.461-13.781-31.862-21.251-56.427-45.295-71.04-69.535-1.563-2.593-3.121-5.378-4.599-8.315-1.229 2.501-2.292 5.088-3.161 7.768-.881 2.72-1.531 5.48-2.004 8.268 15.628 25.328 41.155 50.23 73.945 72.099 7.424 4.951 15.245 9.749 23.245 14.263.96.542 2.003.799 3.032.799 2.157 0 4.254-1.132 5.389-3.145 1.677-2.974.627-6.744-2.346-8.421z"/><path d="m111.128 181.178c1.464 0 2.934-.517 4.113-1.568 2.547-2.273 2.77-6.18.498-8.727-21.705-24.33-37.365-49.052-45.592-71.873.317.88.644 1.763.982 2.648-2.902 3.553-5.332 7.409-7.23 11.577-.231.507-.451 1.017-.665 1.529 9.252 20.654 23.794 42.505 43.28 64.348 1.221 1.368 2.914 2.066 4.614 2.066z"/><path d="m443.016 274.865c-.409-1.216-1.195-2.314-2.33-3.102-2.805-1.949-6.656-1.251-8.603 1.552-15.129 21.793-47.784 30.454-91.951 24.39-45.683-6.274-97.607-27.541-146.208-59.885-18.478-12.297-35.784-25.755-51.437-40.003-.63-.572-1.257-1.148-1.88-1.723-2.511-2.314-6.421-2.156-8.734.354-2.314 2.509-2.156 6.42.353 8.734.644.594 1.292 1.187 1.942 1.779 16.112 14.665 33.912 28.51 52.908 41.151 50.122 33.356 103.881 55.318 151.375 61.84 9.677 1.329 18.876 1.986 27.553 1.986 4.771 0 9.377-.205 13.822-.6.531-.536 1.071-1.067 1.581-1.616 9.408-2.578 17.838-6.059 25.09-10.428 15.767-4.56 28.335-12.646 36.519-24.429z"/></g></g></svg>