<svg id="Capa_1" enable-background="new 0 0 512 512" height="512" viewBox="0 0 512 512" width="512" xmlns="http://www.w3.org/2000/svg"><g><path d="m426.319 207.992-24.823-19.952c-15.227-12.238-23.162-31.396-21.049-50.816l3.445-31.66c.935-8.596-6.321-15.851-14.916-14.916l-31.66 3.445c-19.421 2.113-38.578-5.822-50.816-21.049l-19.952-24.823c-5.417-6.739-15.678-6.739-21.095 0l-19.952 24.823c-12.238 15.227-31.396 23.162-50.816 21.049l-31.66-3.445c-8.596-.935-15.851 6.321-14.916 14.916l3.445 31.66c2.113 19.421-5.822 38.578-21.049 50.816l-24.823 19.952c-6.739 5.417-6.739 15.678 0 21.095l24.823 19.952c15.226 12.238 23.162 31.396 21.049 50.816l-3.445 31.66c-.935 8.596 6.321 15.851 14.916 14.916l31.66-3.445c19.421-2.113 38.578 5.822 50.817 21.049l19.951 24.823c5.417 6.739 15.678 6.739 21.095 0l19.951-24.823c12.238-15.227 31.396-23.162 50.817-21.049l31.66 3.445c8.596.935 15.851-6.321 14.916-14.916l-3.445-31.66c-2.113-19.421 5.822-38.578 21.049-50.817l24.823-19.952c6.739-5.416 6.739-15.677 0-21.094z" fill="#ecc52e"/><circle cx="256" cy="218.54" fill="#e69642" r="85.642"/><path d="m313.341 154.93c9.152 13.629 14.494 30.032 14.494 47.683 0 47.299-38.343 85.642-85.642 85.642-22.055 0-42.16-8.339-57.341-22.033 15.373 22.893 41.5 37.959 71.148 37.959 47.299 0 85.642-38.343 85.642-85.642 0-25.244-10.924-47.935-28.301-63.609z" fill="#e27c48"/><path d="m447.996 339.446c-32.002 0-32.002-21.255-64.004-21.255-32.001 0-32.001 21.255-64.001 21.255s-32-21.255-63.999-21.255c-31.998 0-31.998 21.255-63.996 21.255-31.999 0-31.999-21.255-63.999-21.255s-32 21.255-64 21.255c-29.26 0-31.764-17.773-56.445-20.815-4.017-.495-7.552 2.684-7.552 6.732v138.317c0 2.845 2.306 5.151 5.151 5.151h501.698c2.845 0 5.151-2.306 5.151-5.151v-138.317c0-4.048-3.535-7.226-7.552-6.731-24.684 3.041-27.188 20.814-56.452 20.814z" fill="#e5936a"/><path d="m504.448 318.631c-5.092.627-9.232 1.888-12.866 3.484.526.964.834 2.066.834 3.248v138.317c0 2.845-2.306 5.151-5.151 5.151h19.584c2.845 0 5.151-2.306 5.151-5.151v-138.317c0-4.048-3.535-7.227-7.552-6.732z" fill="#e27c48"/><path d="m512 386.11v77.573c0 2.843-2.308 5.151-5.151 5.151h-501.698c-2.843 0-5.151-2.308-5.151-5.151v-77.573c31.997 0 31.997 21.253 63.995 21.253s31.997-21.253 64.005-21.253c31.997 0 31.997 21.253 63.995 21.253s31.997-21.253 63.995-21.253 31.997 21.253 64.005 21.253c31.997 0 31.997-21.253 63.995-21.253 32.008 0 32.008 21.253 64.005 21.253 32.008 0 32.008-21.253 64.005-21.253z" fill="#e27c48"/><path d="m492.416 463.68c0 2.845-2.306 5.151-5.151 5.151h19.584c2.845 0 5.151-2.306 5.151-5.151v-77.57c-8.319 0-14.466 1.443-19.584 3.569z" fill="#df6937"/><g fill="#e8eef8"><path d="m256 296.321c-1.894 0-3.789-.693-5.273-2.079l-27.912-26.065c-3.119-2.912-3.286-7.802-.374-10.921s7.801-3.287 10.92-.373l22.639 21.141 22.639-21.141c3.119-2.913 8.008-2.743 10.92.373 2.912 3.119 2.745 8.008-.374 10.921l-27.912 26.065c-1.484 1.386-3.379 2.079-5.273 2.079z"/><path d="m256 350.022c-1.894 0-3.789-.693-5.273-2.079l-27.912-26.065c-3.119-2.912-3.286-7.802-.374-10.921s7.801-3.287 10.92-.373l22.639 21.14 22.639-21.141c3.119-2.912 8.008-2.744 10.92.373 2.912 3.119 2.745 8.008-.374 10.921l-27.912 26.065c-1.484 1.386-3.379 2.08-5.273 2.08z"/><path d="m256 403.722c-1.894 0-3.789-.693-5.273-2.079l-27.912-26.065c-3.119-2.912-3.286-7.802-.374-10.921s7.801-3.287 10.92-.373l22.639 21.14 22.639-21.141c3.119-2.912 8.008-2.743 10.92.373 2.912 3.119 2.745 8.008-.374 10.921l-27.912 26.065c-1.484 1.387-3.379 2.08-5.273 2.08z"/></g></g></svg>