<svg id="Capa_1" enable-background="new 0 0 512 512" height="512" viewBox="0 0 512 512" width="512" xmlns="http://www.w3.org/2000/svg"><g><path d="m420.83 54.33v403.34l-164.83 20-164.83-20v-403.34l164.83-20z" fill="#5d91b9"/><path d="m387.01 54.33h33.82v403.34h-33.82z" fill="#407194"/><path d="m410.527 0h-309.054c-5.69 0-10.302 4.612-10.302 10.302v44.026h329.658v-44.026c0-5.69-4.612-10.302-10.302-10.302z" fill="#6cbff8"/><path d="m410.527 0h-33.816c5.69 0 10.302 4.612 10.302 10.302v44.026h33.816v-44.026c0-5.69-4.612-10.302-10.302-10.302z" fill="#5fa7ee"/><g><path d="m294.384 213.504-10.673-8.578c-6.547-5.262-9.958-13.498-9.05-21.848l1.481-13.612c.402-3.696-2.717-6.815-6.413-6.413l-13.612 1.481c-8.35.908-16.586-2.503-21.848-9.05l-8.578-10.673c-2.329-2.898-6.741-2.898-9.07 0l-8.578 10.673c-5.262 6.547-13.498 9.958-21.848 9.05l-13.612-1.481c-3.696-.402-6.815 2.717-6.413 6.413l1.481 13.612c.908 8.35-2.503 16.586-9.05 21.848l-10.673 8.578c-2.898 2.329-2.898 6.741 0 9.07l10.673 8.578c6.547 5.262 9.958 13.498 9.05 21.848l-1.481 13.612c-.402 3.696 2.717 6.815 6.413 6.413l13.612-1.481c8.35-.908 16.587 2.503 21.848 9.05l8.578 10.672c2.329 2.898 6.741 2.898 9.07 0l8.578-10.672c5.262-6.547 13.499-9.958 21.848-9.05l13.612 1.481c3.696.402 6.815-2.717 6.413-6.413l-1.481-13.612c-.908-8.35 2.503-16.587 9.05-21.848l10.673-8.578c2.897-2.33 2.897-6.741 0-9.07z" fill="#ecc52e"/><ellipse cx="221.156" cy="218.038" fill="#e69642" rx="36.576" ry="36.576" transform="matrix(1 -.019 .019 1 -4.066 4.203)"/><path d="m361.819 282.598c-2.734-2.734-6.515-4.426-10.685-4.426h-21.448c2.551-6.217 3.984-13.014 4.048-20.135.268-29.924-24.01-54.624-53.934-54.848-29.48-.221-53.577 23.021-54.729 52.164-.04 1.008-.868 1.804-1.877 1.804-4.302.001-14.675.002-14.675.002-14.148 0-25.617 11.469-25.617 25.617s11.469 25.617 25.617 25.617h142.37c8.218 0 15.122-6.463 15.35-14.678.121-4.342-1.592-8.289-4.42-11.117z" fill="#ddebfd"/></g><path d="m257.545 34.89h-3.091c-4.268 0-7.726-3.459-7.726-7.726s3.459-7.726 7.726-7.726h3.091c4.268 0 7.726 3.459 7.726 7.726s-3.458 7.726-7.726 7.726z" fill="#ddebfd"/><g fill="#94d8e6"><g><path d="m255.286 346.629c-1.096 0-2.209-.234-3.268-.729-3.865-1.808-5.534-6.406-3.726-10.272l1.306-2.793c1.808-3.864 6.406-5.533 10.272-3.726 3.865 1.808 5.534 6.406 3.726 10.272l-1.306 2.793c-1.313 2.806-4.098 4.455-7.004 4.455z"/><path d="m241.043 377.091c-1.096 0-2.208-.234-3.267-.728-3.865-1.807-5.535-6.405-3.728-10.272l1.305-2.792c1.807-3.866 6.403-5.534 10.272-3.728 3.865 1.807 5.535 6.405 3.728 10.272l-1.305 2.792c-1.313 2.807-4.097 4.456-7.005 4.456z"/></g><g><path d="m286.068 346.629c-1.096 0-2.208-.234-3.267-.728-3.865-1.807-5.535-6.405-3.728-10.272l1.305-2.792c1.807-3.866 6.403-5.534 10.272-3.728 3.865 1.807 5.535 6.405 3.728 10.272l-1.305 2.792c-1.312 2.807-4.097 4.456-7.005 4.456z"/><path d="m271.825 377.091c-1.097 0-2.21-.234-3.269-.729-3.865-1.809-5.533-6.407-3.725-10.273l1.306-2.792c1.808-3.865 6.409-5.532 10.273-3.725 3.865 1.809 5.533 6.407 3.725 10.273l-1.306 2.792c-1.313 2.806-4.098 4.454-7.004 4.454z"/></g><g><path d="m316.85 346.629c-1.097 0-2.21-.234-3.269-.729-3.865-1.809-5.533-6.407-3.725-10.273l1.306-2.792c1.808-3.866 6.409-5.532 10.273-3.725 3.865 1.809 5.533 6.407 3.725 10.273l-1.306 2.792c-1.313 2.806-4.097 4.454-7.004 4.454z"/><path d="m302.608 377.091c-1.096 0-2.208-.234-3.267-.728-3.865-1.807-5.535-6.405-3.728-10.272l1.305-2.792c1.807-3.866 6.404-5.534 10.272-3.728 3.865 1.807 5.535 6.405 3.728 10.272l-1.305 2.792c-1.313 2.807-4.098 4.456-7.005 4.456z"/></g></g><path d="m410.527 512h-309.054c-5.69 0-10.302-4.612-10.302-10.302v-44.026h329.658v44.026c0 5.69-4.612 10.302-10.302 10.302z" fill="#6cbff8"/><path d="m410.527 512h-33.816c5.69 0 10.302-4.612 10.302-10.302v-44.026h33.816v44.026c0 5.69-4.612 10.302-10.302 10.302z" fill="#5fa7ee"/><path d="m286.725 492.562h-61.451c-4.268 0-7.726-3.459-7.726-7.726 0-4.268 3.459-7.726 7.726-7.726h61.451c4.268 0 7.726 3.459 7.726 7.726.001 4.268-3.458 7.726-7.726 7.726z" fill="#ddebfd"/></g></svg>