<svg id="Capa_1" enable-background="new 0 0 512 512" height="512" viewBox="0 0 512 512" width="512" xmlns="http://www.w3.org/2000/svg"><g><path d="m414.242 286.087h-29.844v-60.175h29.844c2.845 0 5.151 2.306 5.151 5.151v49.873c0 2.845-2.306 5.151-5.151 5.151z" fill="#5fa7ee"/><path d="m352.611 106.557-16.299-26.221c-6.089-9.795-9.315-21.098-9.315-32.631v-37.403c0-5.69-4.612-10.302-10.302-10.302h-148.658c-5.69 0-10.302 4.612-10.302 10.302v37.403c0 11.533-3.227 22.836-9.315 32.631l-16.299 26.221-.002 298.885 16.302 26.224c6.089 9.795 9.314 21.097 9.314 32.63v37.403c0 5.69 4.612 10.302 10.302 10.302h148.658c5.69 0 10.302-4.612 10.302-10.302v-37.403c0-11.533 3.226-22.836 9.314-32.631l16.301-26.223z" fill="#6cbff8"/><path d="m336.312 80.336c-6.089-9.795-9.315-21.098-9.315-32.631v-37.403c0-5.69-4.612-10.302-10.302-10.302h-31.788c5.69 0 10.302 4.612 10.302 10.302v37.403c0 11.533 3.227 22.836 9.315 32.631l16.299 26.221v298.886l-16.299 26.221c-6.089 9.795-9.315 21.098-9.315 32.631v37.403c0 5.69-4.612 10.302-10.302 10.302h31.788c5.689 0 10.302-4.612 10.302-10.302v-37.403c0-11.533 3.226-22.836 9.314-32.631l16.301-26.223-.001-298.885z" fill="#5fa7ee"/><path d="m100.333 115.629v280.743c0 11.379 9.225 20.604 20.604 20.604h242.858c11.379 0 20.604-9.225 20.604-20.604v-280.743c0-11.379-9.225-20.604-20.604-20.604h-242.858c-11.379 0-20.604 9.225-20.604 20.604z" fill="#5d91b9"/><path d="m363.795 95.025h-28.492c11.379 0 20.604 9.225 20.604 20.604v280.743c0 11.379-9.224 20.604-20.604 20.604h28.492c11.379 0 20.604-9.224 20.604-20.604v-280.743c0-11.379-9.225-20.604-20.604-20.604z" fill="#407194"/><path d="m280.749 213.504-10.673-8.578c-6.547-5.262-9.958-13.498-9.05-21.848l1.481-13.612c.402-3.696-2.717-6.815-6.413-6.413l-13.612 1.481c-8.35.908-16.586-2.503-21.848-9.05l-8.578-10.673c-2.329-2.898-6.741-2.898-9.07 0l-8.578 10.673c-5.262 6.547-13.498 9.958-21.848 9.05l-13.612-1.481c-3.696-.402-6.815 2.717-6.413 6.413l1.481 13.612c.908 8.35-2.503 16.586-9.05 21.848l-10.673 8.578c-2.898 2.329-2.898 6.741 0 9.07l10.673 8.578c6.547 5.262 9.958 13.498 9.05 21.848l-1.481 13.612c-.402 3.696 2.717 6.815 6.413 6.413l13.612-1.481c8.35-.908 16.587 2.503 21.848 9.05l8.578 10.672c2.329 2.898 6.741 2.898 9.07 0l8.578-10.672c5.262-6.547 13.499-9.958 21.848-9.05l13.612 1.481c3.696.402 6.815-2.717 6.413-6.413l-1.48-13.612c-.908-8.35 2.503-16.587 9.05-21.848l10.672-8.578c2.898-2.33 2.898-6.741 0-9.07z" fill="#ecc52e"/><circle cx="207.522" cy="218.038" fill="#e69642" r="29.641"/><path d="m348.185 282.598c-2.734-2.734-6.515-4.426-10.685-4.426h-21.448c2.551-6.217 3.984-13.014 4.048-20.135.268-29.924-24.01-54.624-53.934-54.848-29.48-.221-53.577 23.021-54.729 52.164-.04 1.008-.868 1.804-1.877 1.804-4.302.001-14.675.002-14.675.002-14.148 0-25.617 11.469-25.617 25.617s11.469 25.617 25.617 25.617h142.37c8.218 0 15.122-6.463 15.35-14.678.121-4.342-1.592-8.289-4.42-11.117z" fill="#ddebfd"/><g fill="#94d8e6"><path d="m363.795 424.701h-242.858c-15.622 0-28.33-12.709-28.33-28.33v-280.742c0-15.621 12.708-28.33 28.33-28.33h242.858c15.621 0 28.33 12.709 28.33 28.33v280.742c0 15.621-12.709 28.33-28.33 28.33zm-242.858-321.949c-7.101 0-12.877 5.777-12.877 12.877v280.742c0 7.101 5.777 12.877 12.877 12.877h242.858c7.101 0 12.877-5.777 12.877-12.877v-280.742c0-7.101-5.777-12.877-12.877-12.877z"/><path d="m241.652 346.629c-1.096 0-2.209-.234-3.268-.729-3.865-1.808-5.534-6.406-3.726-10.272l1.306-2.793c1.808-3.864 6.405-5.533 10.272-3.726 3.865 1.808 5.534 6.406 3.726 10.272l-1.306 2.793c-1.313 2.806-4.098 4.455-7.004 4.455z"/><path d="m227.41 377.091c-1.096 0-2.208-.234-3.267-.728-3.865-1.807-5.535-6.405-3.728-10.272l1.305-2.792c1.807-3.866 6.403-5.534 10.272-3.728 3.865 1.807 5.535 6.405 3.728 10.272l-1.305 2.792c-1.313 2.807-4.098 4.456-7.005 4.456z"/><path d="m272.434 346.629c-1.097 0-2.21-.234-3.269-.729-3.865-1.809-5.533-6.407-3.725-10.273l1.306-2.792c1.808-3.866 6.408-5.532 10.273-3.725 3.865 1.809 5.533 6.407 3.725 10.273l-1.306 2.792c-1.313 2.806-4.098 4.454-7.004 4.454z"/><path d="m258.191 377.091c-1.097 0-2.21-.234-3.269-.729-3.865-1.809-5.533-6.407-3.725-10.273l1.306-2.792c1.809-3.865 6.409-5.532 10.273-3.725 3.865 1.809 5.533 6.407 3.725 10.273l-1.306 2.792c-1.313 2.806-4.097 4.454-7.004 4.454z"/><path d="m303.216 346.629c-1.096 0-2.208-.234-3.267-.728-3.865-1.807-5.535-6.405-3.728-10.272l1.305-2.792c1.807-3.866 6.403-5.534 10.272-3.728 3.865 1.807 5.535 6.405 3.728 10.272l-1.305 2.792c-1.312 2.807-4.097 4.456-7.005 4.456z"/><path d="m288.973 377.091c-1.097 0-2.21-.234-3.269-.729-3.865-1.809-5.533-6.407-3.725-10.273l1.306-2.792c1.808-3.865 6.408-5.532 10.273-3.725 3.865 1.809 5.533 6.407 3.725 10.273l-1.306 2.792c-1.313 2.806-4.098 4.454-7.004 4.454z"/></g></g></svg>