<svg id="Capa_1" enable-background="new 0 0 512 512" height="512" viewBox="0 0 512 512" width="512" xmlns="http://www.w3.org/2000/svg"><g><path d="m478.17 98.073-14.77-11.871c-9.06-7.282-13.782-18.681-12.524-30.236l2.05-18.838c.556-5.114-3.761-9.432-8.875-8.875l-18.838 2.05c-11.555 1.257-22.954-3.464-30.236-12.524l-11.871-14.77c-3.223-4.01-9.329-4.01-12.552 0l-11.871 14.77c-7.282 9.06-18.681 13.782-30.236 12.524l-18.838-2.05c-5.115-.556-9.432 3.761-8.875 8.875l2.05 18.838c1.257 11.555-3.464 22.954-12.524 30.236l-14.77 11.871c-4.01 3.223-4.01 9.328 0 12.552l14.77 11.871c9.06 7.282 13.781 18.681 12.524 30.236l-2.05 18.838c-.556 5.114 3.761 9.432 8.875 8.875l18.838-2.05c11.555-1.257 22.954 3.464 30.236 12.524l11.871 14.77c3.223 4.01 9.329 4.01 12.552 0l11.871-14.77c7.282-9.06 18.681-13.782 30.236-12.524l18.838 2.05c5.114.556 9.432-3.761 8.875-8.875l-2.05-18.838c-1.257-11.555 3.464-22.954 12.524-30.236l14.77-11.871c4.01-3.223 4.01-9.329 0-12.552z" fill="#ecc52e"/><circle cx="376.86" cy="104.349" fill="#e69642" r="51.686"/><path d="m421.848 79.891c.057.991.093 1.988.093 2.993 0 28.545-23.14 51.686-51.686 51.686-19.696 0-36.815-11.019-45.539-27.227 1.551 27.152 24.053 48.693 51.593 48.693 28.545 0 51.686-23.14 51.686-51.685 0-8.851-2.227-17.178-6.147-24.46z" fill="#e27c48"/><g fill="#ecc52e"><path d="m316.908 407.54c-4.204 0-7.612-3.407-7.612-7.611 0-2.589-.775-3.529-2.646-5.801-2.436-2.958-6.118-7.428-6.118-15.48 0-8.051 3.682-12.52 6.118-15.479 1.871-2.272 2.645-3.211 2.645-5.8s-.775-3.529-2.646-5.801c-2.436-2.958-6.118-7.428-6.118-15.479s3.682-12.52 6.118-15.479c1.871-2.272 2.646-3.212 2.646-5.801s-.775-3.529-2.646-5.801c-2.436-2.958-6.118-7.428-6.118-15.479 0-8.052 3.682-12.522 6.118-15.481 1.871-2.272 2.646-3.212 2.646-5.801 0-2.59-.775-3.53-2.646-5.802-2.095-2.544-4.964-6.028-5.849-11.819-.635-4.156 2.219-8.039 6.375-8.674 4.153-.639 8.038 2.219 8.674 6.375.242 1.585.915 2.454 2.551 4.44 2.437 2.957 6.118 7.428 6.118 15.48 0 8.051-3.681 12.521-6.118 15.479-1.871 2.273-2.646 3.213-2.646 5.803 0 2.589.775 3.528 2.645 5.8 2.437 2.958 6.118 7.428 6.118 15.48s-3.682 12.521-6.118 15.48c-1.871 2.272-2.645 3.211-2.645 5.8s.775 3.528 2.645 5.8c2.437 2.958 6.118 7.428 6.118 15.48 0 8.051-3.682 12.52-6.118 15.479-1.871 2.272-2.645 3.211-2.645 5.8s.775 3.529 2.646 5.801c2.436 2.958 6.118 7.428 6.118 15.48.001 4.204-3.406 7.611-7.61 7.611z"/><path d="m381.21 407.54c-4.204 0-7.612-3.407-7.612-7.611 0-2.589-.775-3.529-2.646-5.801-2.436-2.958-6.118-7.428-6.118-15.48 0-8.051 3.682-12.52 6.118-15.479 1.871-2.272 2.645-3.211 2.645-5.8s-.775-3.529-2.646-5.801c-2.436-2.958-6.118-7.428-6.118-15.479s3.682-12.52 6.118-15.479c1.871-2.272 2.646-3.212 2.646-5.801s-.775-3.529-2.646-5.801c-2.436-2.958-6.118-7.428-6.118-15.479 0-8.052 3.682-12.522 6.118-15.481 1.871-2.272 2.646-3.212 2.646-5.801 0-2.59-.775-3.53-2.646-5.802-2.095-2.544-4.964-6.028-5.849-11.819-.635-4.156 2.219-8.039 6.375-8.674 4.154-.632 8.039 2.219 8.674 6.375.242 1.585.916 2.454 2.551 4.44 2.437 2.957 6.118 7.428 6.118 15.48 0 8.051-3.681 12.521-6.118 15.479-1.871 2.273-2.646 3.213-2.646 5.803 0 2.589.775 3.528 2.645 5.8 2.437 2.958 6.118 7.428 6.118 15.48s-3.682 12.521-6.118 15.48c-1.871 2.272-2.645 3.211-2.645 5.8s.775 3.528 2.645 5.8c2.437 2.958 6.118 7.428 6.118 15.48 0 8.051-3.682 12.52-6.118 15.479-1.871 2.272-2.645 3.211-2.645 5.8s.775 3.529 2.646 5.801c2.436 2.958 6.118 7.428 6.118 15.48.001 4.204-3.407 7.611-7.61 7.611z"/><path d="m445.511 407.54c-4.204 0-7.611-3.407-7.611-7.611 0-2.589-.775-3.529-2.646-5.801-2.436-2.958-6.118-7.428-6.118-15.48 0-8.051 3.682-12.52 6.118-15.479 1.871-2.272 2.645-3.211 2.645-5.8s-.775-3.529-2.646-5.801c-2.436-2.958-6.118-7.428-6.118-15.479s3.682-12.52 6.118-15.479c1.871-2.272 2.646-3.212 2.646-5.801s-.775-3.529-2.646-5.801c-2.436-2.958-6.118-7.428-6.118-15.479 0-8.052 3.682-12.522 6.118-15.481 1.871-2.272 2.646-3.212 2.646-5.801 0-2.59-.775-3.53-2.646-5.802-2.095-2.544-4.964-6.028-5.849-11.819-.635-4.156 2.219-8.039 6.375-8.674 4.156-.639 8.039 2.219 8.674 6.375.242 1.585.915 2.454 2.551 4.44 2.437 2.957 6.118 7.428 6.118 15.48 0 8.051-3.681 12.521-6.118 15.479-1.871 2.273-2.646 3.213-2.646 5.803 0 2.589.775 3.528 2.645 5.8 2.437 2.958 6.118 7.428 6.118 15.48s-3.682 12.521-6.118 15.48c-1.871 2.272-2.645 3.211-2.645 5.8s.775 3.528 2.645 5.8c2.437 2.958 6.118 7.428 6.118 15.48 0 8.051-3.682 12.52-6.118 15.479-1.871 2.272-2.645 3.211-2.645 5.8s.775 3.529 2.646 5.801c2.436 2.958 6.118 7.428 6.118 15.48.001 4.204-3.407 7.611-7.611 7.611z"/></g><path d="m152.316 334.316c-2.56 0-5.059-1.29-6.496-3.632-2.198-3.584-1.075-8.271 2.508-10.469l52.776-32.373c3.584-2.198 8.269-1.075 10.468 2.508 2.198 3.584 1.075 8.271-2.508 10.469l-52.776 32.373c-1.241.761-2.615 1.124-3.972 1.124z" fill="#8c5e5e"/><path d="m87.061 423.607c-.352-2.587-1.912-4.91-4.174-6.212-11.089-6.39-24.572-5.926-35.188 1.206-10.615 7.135-16.138 19.444-14.412 32.123.352 2.587 1.912 4.909 4.174 6.212 5.202 2.998 10.931 4.488 16.644 4.487 6.464 0 12.908-1.907 18.544-5.694 10.616-7.134 16.137-19.444 14.412-32.122z" fill="#70c6db"/><path d="m140.288 400.434c-1.357 0-2.731-.363-3.972-1.124l-65.084-39.922c-3.583-2.198-4.707-6.885-2.508-10.469 2.198-3.582 6.884-4.706 10.468-2.508l65.084 39.922c3.583 2.198 4.707 6.885 2.508 10.469-1.437 2.341-3.936 3.632-6.496 3.632z" fill="#8c5e5e"/><path d="m154.745 279.728-69.097-69.097c-2.972-2.971-7.792-2.971-10.764 0-2.973 2.973-2.973 7.792 0 10.765l15.52 15.52h-17.842c-4.204 0-7.611 3.407-7.611 7.611s3.408 7.611 7.611 7.611h33.065l38.354 38.354c1.486 1.486 3.434 2.229 5.382 2.229s3.896-.743 5.382-2.229c2.973-2.972 2.973-7.79 0-10.764z" fill="#8c5e5e"/><path d="m275.171 365.849h-21.799c-1.603 0-3.165.506-4.464 1.446l-8.354 6.048 2.794-26.238c.445-4.18-2.583-7.93-6.763-8.375-4.176-.43-7.929 2.584-8.375 6.763l-4.244 39.86-66.765 48.338c-3.405 2.466-4.167 7.224-1.701 10.629 1.489 2.056 3.813 3.149 6.171 3.149 1.547 0 3.109-.471 4.457-1.447l47.696-34.532 44.858 6.207c.354.049.705.072 1.053.072 3.741 0 7.003-2.759 7.53-6.569.576-4.165-2.332-8.007-6.497-8.584l-29.123-4.03 24.192-17.515h19.333c4.204 0 7.612-3.407 7.612-7.612s-3.407-7.61-7.611-7.61z" fill="#8c5e5e"/><path d="m254.402 268.476c-.243-2.6-1.706-4.985-3.912-6.381-10.814-6.844-24.304-6.944-35.208-.255-10.902 6.686-16.931 18.755-15.734 31.498.245 2.599 1.707 4.983 3.912 6.379 5.478 3.467 11.641 5.202 17.808 5.202 6.008 0 12.019-1.647 17.4-4.947 10.902-6.688 16.931-18.756 15.734-31.496z" fill="#70c6db"/><path d="m65.014 320.411c-10.901-6.687-24.392-6.59-35.207.254-2.206 1.396-3.669 3.781-3.913 6.381v-.001c-1.198 12.742 4.832 24.811 15.734 31.497 5.38 3.3 11.389 4.948 17.398 4.947 6.167 0 12.332-1.735 17.81-5.202 2.205-1.395 3.667-3.779 3.912-6.379 1.198-12.743-4.831-24.811-15.734-31.497z" fill="#70c6db"/><path d="m148.306 185.695-28.253 318.694h63.878l-28.253-318.694c-.398-4.499-6.973-4.499-7.372 0z" fill="#8c5e5e"/><path d="m155.679 185.695c-.399-4.499-6.974-4.499-7.373 0l-6.336 71.471 21.917 247.222h20.045z" fill="#785252"/><path d="m481.177 512h-450.354c-4.204 0-7.611-3.407-7.611-7.612s3.408-7.611 7.611-7.611h450.354c4.204 0 7.611 3.407 7.611 7.611s-3.407 7.612-7.611 7.612z" fill="#ecc52e"/></g></svg>