<svg id="Capa_1" enable-background="new 0 0 512 512" height="512" viewBox="0 0 512 512" width="512" xmlns="http://www.w3.org/2000/svg"><g><path d="m451.225 504.5v-12.262c0-12.918-10.472-23.39-23.391-23.39h-27.367c.226-1.296.351-2.627.351-3.988 0-12.741-10.329-23.07-23.07-23.07-5.508 0-10.562 1.933-14.529 5.154-3.196-21.765-21.94-38.475-44.592-38.475-24.896 0-45.079 20.183-45.079 45.079 0 2.42.196 4.793.563 7.11-.188-.002-.374-.014-.563-.014-24.222 0-43.857 19.636-43.858 43.858h221.535z" fill="#ddebfd"/><path d="m182.728 504.5h-62.94l11.92-134.48h39.1z" fill="#8c5e5e"/><path d="m244.039 425.655h-185.565c-9.2 0-15.096-9.787-10.796-17.92l92.782-175.513c4.585-8.673 17.008-8.673 21.593 0l92.782 175.513c4.3 8.134-1.596 17.92-10.796 17.92z" fill="#70c6db"/><path d="m254.835 407.736-92.782-175.513c-4.585-8.673-17.008-8.673-21.593 0l-3.963 7.497 88.819 168.017c4.299 8.133-1.597 17.92-10.797 17.92h29.519c9.201-.002 15.097-9.788 10.797-17.921z" fill="#64b0cb"/><path d="m221.88 312.688h-141.247c-8.11 0-13.308-8.627-9.518-15.797l70.623-133.596c4.042-7.646 14.993-7.646 19.035 0l70.623 133.596c3.792 7.17-1.406 15.797-9.516 15.797z" fill="#94d8e6"/><path d="m231.398 296.891-70.623-133.596c-4.042-7.646-14.993-7.646-19.035 0l-5.242 9.916 65.382 123.68c3.79 7.17-1.408 15.797-9.518 15.797h29.519c8.109 0 13.307-8.627 9.517-15.797z" fill="#70c6db"/><path d="m208.752 243.566c3.011 0 4.941-3.203 3.534-5.865l-41.993-79.436c-3.74-7.074-11.033-11.47-19.035-11.47s-15.296 4.395-19.035 11.469l-41.993 79.437c-1.407 2.662.523 5.865 3.534 5.865h44.386c3.3 0 5.975 2.675 5.975 5.975v16.07c0 9.49 7.693 17.184 17.184 17.184 9.49 0 17.184-7.693 17.184-17.184v-16.07c0-3.3 2.675-5.975 5.975-5.975z" fill="#ddebfd"/><path d="m212.285 237.701-41.993-79.437c-3.74-7.074-11.033-11.47-19.036-11.47-3.539 0-6.938.863-9.953 2.434 3.803 1.981 6.997 5.091 9.083 9.037l41.993 79.437c1.407 2.662-.523 5.865-3.533 5.865h19.906c3.011-.001 4.94-3.204 3.533-5.866z" fill="#bed9fd"/><path d="m164.026 342.174c-1.338-1.854-4.1-1.854-5.439 0-4.977 6.895-15.044 21.754-15.044 29.14 0 9.811 7.953 17.763 17.763 17.763 9.811 0 17.763-7.953 17.763-17.763.001-7.386-10.066-22.245-15.043-29.14z" fill="#cde2ff"/><path d="m476.619 512h-443.757c-4.142 0-7.5-3.357-7.5-7.5s3.358-7.5 7.5-7.5h443.757c4.143 0 7.5 3.357 7.5 7.5s-3.357 7.5-7.5 7.5z" fill="#9ec8fc"/><g fill="#cde2ff"><g><path d="m326.693 270.382c-4.143 0-7.5-3.357-7.5-7.5v-5.459c0-4.143 3.357-7.5 7.5-7.5s7.5 3.357 7.5 7.5v5.459c0 4.143-3.357 7.5-7.5 7.5z"/><path d="m326.693 323.953c-4.143 0-7.5-3.357-7.5-7.5v-5.46c0-4.143 3.357-7.5 7.5-7.5s7.5 3.357 7.5 7.5v5.46c0 4.142-3.357 7.5-7.5 7.5z"/><path d="m326.693 377.522c-4.143 0-7.5-3.357-7.5-7.5v-5.459c0-4.143 3.357-7.5 7.5-7.5s7.5 3.357 7.5 7.5v5.459c0 4.143-3.357 7.5-7.5 7.5z"/></g><g><path d="m379.214 270.382c-4.143 0-7.5-3.357-7.5-7.5v-5.459c0-4.143 3.357-7.5 7.5-7.5s7.5 3.357 7.5 7.5v5.459c0 4.143-3.357 7.5-7.5 7.5z"/><path d="m379.214 323.953c-4.143 0-7.5-3.357-7.5-7.5v-5.46c0-4.143 3.357-7.5 7.5-7.5s7.5 3.357 7.5 7.5v5.46c0 4.142-3.357 7.5-7.5 7.5z"/><path d="m379.214 377.522c-4.143 0-7.5-3.357-7.5-7.5v-5.459c0-4.143 3.357-7.5 7.5-7.5s7.5 3.357 7.5 7.5v5.459c0 4.143-3.357 7.5-7.5 7.5z"/></g><g><path d="m431.733 270.382c-4.143 0-7.5-3.357-7.5-7.5v-5.459c0-4.143 3.357-7.5 7.5-7.5s7.5 3.357 7.5 7.5v5.459c0 4.143-3.357 7.5-7.5 7.5z"/><path d="m431.733 323.953c-4.143 0-7.5-3.357-7.5-7.5v-5.46c0-4.143 3.357-7.5 7.5-7.5s7.5 3.357 7.5 7.5v5.46c0 4.142-3.357 7.5-7.5 7.5z"/><path d="m431.733 377.522c-4.143 0-7.5-3.357-7.5-7.5v-5.459c0-4.143 3.357-7.5 7.5-7.5s7.5 3.357 7.5 7.5v5.459c0 4.143-3.357 7.5-7.5 7.5z"/></g></g><g fill="#6cbff8"><path d="m371.714 37.676v37.158c0 4.143 3.357 7.5 7.5 7.5s7.5-3.357 7.5-7.5v-37.158l23.154-25.089c2.809-3.044 2.619-7.789-.425-10.599s-7.789-2.619-10.599.425l-19.631 21.271-19.631-21.27c-2.809-3.043-7.553-3.232-10.599-.425-3.044 2.81-3.233 7.555-.425 10.599z"/><path d="m279.284 87.209c.546 0 1.102-.061 1.656-.186l33.305-7.509 32.179 18.58c1.181.682 2.471 1.006 3.743 1.006 2.592 0 5.113-1.345 6.502-3.751 2.071-3.587.842-8.174-2.745-10.245l-32.179-18.58-10.151-32.596c-1.232-3.955-5.436-6.161-9.391-4.932-3.955 1.231-6.163 5.437-4.932 9.391l8.606 27.637-28.237 6.366c-4.041.911-6.578 4.925-5.667 8.966.788 3.486 3.882 5.853 7.311 5.853z"/><path d="m353.925 131.625c3.587-2.071 4.816-6.658 2.745-10.245-2.072-3.588-6.66-4.814-10.245-2.745l-32.179 18.58-33.305-7.509c-4.047-.91-8.055 1.627-8.966 5.667-.911 4.041 1.626 8.055 5.667 8.966l28.237 6.366-8.606 27.637c-1.231 3.954.977 8.159 4.932 9.391.742.23 1.493.341 2.231.341 3.196 0 6.158-2.06 7.159-5.272l10.151-32.596z"/><path d="m386.714 179.054v-37.158c0-4.143-3.357-7.5-7.5-7.5s-7.5 3.357-7.5 7.5v37.158l-23.155 25.089c-2.809 3.044-2.619 7.789.425 10.599 1.442 1.331 3.266 1.988 5.085 1.988 2.021 0 4.035-.812 5.514-2.413l19.632-21.271 19.631 21.271c2.81 3.044 7.554 3.233 10.599.425 3.044-2.81 3.233-7.555.425-10.599z"/><path d="m477.487 129.706-33.305 7.509-32.18-18.58c-3.586-2.07-8.175-.844-10.245 2.745-2.071 3.587-.842 8.174 2.745 10.245l32.18 18.58 10.15 32.596c1.001 3.213 3.962 5.272 7.159 5.272.738 0 1.489-.11 2.231-.341 3.955-1.231 6.163-5.437 4.932-9.391l-8.605-27.637 28.237-6.366c4.041-.911 6.578-4.925 5.667-8.966-.911-4.039-4.925-6.573-8.966-5.666z"/><path d="m404.502 85.105c-3.587 2.071-4.816 6.658-2.745 10.245 1.39 2.406 3.91 3.751 6.502 3.751 1.272 0 2.563-.324 3.743-1.006l32.18-18.58 33.305 7.509c.556.125 1.11.186 1.656.186 3.429 0 6.523-2.367 7.31-5.853.911-4.041-1.626-8.055-5.667-8.966l-28.237-6.366 8.605-27.637c1.231-3.954-.977-8.159-4.932-9.391-3.956-1.229-8.158.977-9.391 4.932l-10.15 32.596z"/></g><path d="m379.214 69.834c-21.246 0-38.531 17.284-38.531 38.53s17.285 38.531 38.531 38.531 38.53-17.285 38.53-38.531-17.284-38.53-38.53-38.53z" fill="#75cff9"/></g></svg>