<svg id="Capa_1" enable-background="new 0 0 512 512" height="512" viewBox="0 0 512 512" width="512" xmlns="http://www.w3.org/2000/svg"><g><path d="m288.394 88.682c-1.977 0-3.955-.755-5.464-2.263-3.017-3.018-3.017-7.909 0-10.928l71.959-71.959c3.018-3.016 7.909-3.016 10.928 0 3.017 3.018 3.017 7.909 0 10.928l-71.959 71.959c-1.509 1.508-3.487 2.263-5.464 2.263z" fill="#bed9fd"/><path d="m228.579 93.656c-1.977 0-3.955-.755-5.464-2.263l-76.933-76.933c-3.017-3.018-3.017-7.909 0-10.928 3.018-3.016 7.909-3.016 10.928 0l76.933 76.933c3.017 3.018 3.017 7.909 0 10.928-1.509 1.508-3.487 2.263-5.464 2.263z" fill="#bed9fd"/><g><g fill="#9ec8fc"><path d="m415.807 447.504 31.687 60.263c.958 1.822 2.846 2.962 4.904 2.962h39.066c1.667 0 2.738-1.772 1.962-3.248l-31.537-59.978-22.239-10z"/><path d="m96.193 447.504-31.688 60.263c-.958 1.822-2.846 2.962-4.904 2.962h-39.065c-1.667 0-2.738-1.772-1.962-3.248l31.537-59.978 21.346-10z"/></g><path d="m0 370.859v67.779c0 4.896 3.969 8.865 8.865 8.865h494.269c4.896 0 8.865-3.969 8.865-8.865v-67.779z" fill="#6cbff8"/><path d="m474.518 438.638c0 4.896-3.969 8.865-8.865 8.865h37.482c3.672 0 6.823-2.232 8.169-5.415.112-.265.212-.537.298-.814.259-.833.399-1.718.399-2.636v-67.779h-37.482v67.779z" fill="#5fa7ee"/><path d="m503.135 398.744h-494.27c-4.896 0-8.865-3.969-8.865-8.865v-309.353c0-4.896 3.969-8.865 8.865-8.865h494.269c4.896 0 8.865 3.969 8.865 8.865v309.354c.001 4.895-3.968 8.864-8.864 8.864z" fill="#5d91b9"/><path d="m503.135 71.66h-37.482c4.896 0 8.866 3.969 8.866 8.865v318.219h28.616c4.896 0 8.865-3.969 8.865-8.865v-309.353c0-4.804-3.909-8.866-8.865-8.866z" fill="#407194"/><path d="m297.289 189.489-11.48-9.227c-7.042-5.66-10.712-14.52-9.735-23.502l1.593-14.643c.433-3.975-2.923-7.331-6.899-6.899l-14.643 1.593c-8.982.977-17.842-2.693-23.502-9.735l-9.227-11.48c-2.505-3.117-7.251-3.117-9.756 0l-9.227 11.48c-5.66 7.042-14.52 10.712-23.502 9.735l-14.643-1.593c-3.975-.433-7.331 2.923-6.899 6.899l1.593 14.643c.977 8.982-2.693 17.842-9.735 23.502l-11.48 9.227c-3.117 2.505-3.117 7.251 0 9.756l11.48 9.227c7.042 5.66 10.712 14.52 9.735 23.502l-1.593 14.643c-.433 3.975 2.923 7.331 6.899 6.899l14.643-1.593c8.982-.977 17.842 2.693 23.502 9.735l9.227 11.48c2.505 3.117 7.251 3.117 9.756 0l9.227-11.48c5.66-7.042 14.52-10.712 23.502-9.735l14.643 1.593c3.975.433 7.331-2.923 6.899-6.899l-1.593-14.643c-.977-8.982 2.693-17.842 9.735-23.502l11.48-9.227c3.117-2.505 3.117-7.251 0-9.756z" fill="#ecc52e"/><ellipse cx="218.518" cy="194.367" fill="#e69642" rx="41.58" ry="41.58" transform="matrix(1 -.019 .019 1 -3.621 4.149)"/><path d="m369.83 263.813c-2.941-2.941-7.009-4.761-11.494-4.761h-23.071c2.744-6.688 4.286-13.999 4.354-21.659.288-32.189-25.828-58.759-58.017-59.001-31.711-.238-57.633 24.764-58.872 56.113-.043 1.084-.934 1.94-2.019 1.94-4.627.001-15.786.002-15.786.002-15.219 0-27.556 12.337-27.556 27.556s12.337 27.556 27.556 27.556h153.147c8.84 0 16.267-6.953 16.512-15.79.13-4.667-1.712-8.913-4.754-11.956z" fill="#ddebfd"/></g><g fill="#94d8e6"><g><path d="m255.232 332.107c-1.097 0-2.209-.234-3.268-.729-3.866-1.808-5.534-6.406-3.726-10.273l1.404-3.003c1.808-3.864 6.408-5.532 10.272-3.725 3.866 1.808 5.534 6.406 3.726 10.273l-1.404 3.003c-1.312 2.805-4.097 4.454-7.004 4.454z"/><path d="m239.911 364.875c-1.096 0-2.209-.234-3.268-.729-3.865-1.807-5.534-6.405-3.726-10.272l1.404-3.004c1.806-3.865 6.405-5.534 10.272-3.726 3.865 1.807 5.534 6.405 3.726 10.272l-1.404 3.004c-1.311 2.806-4.097 4.455-7.004 4.455z"/></g><g><path d="m288.345 332.107c-1.096 0-2.208-.234-3.267-.728-3.865-1.807-5.534-6.405-3.728-10.272l1.403-3.003c1.808-3.866 6.403-5.533 10.272-3.728 3.865 1.807 5.534 6.405 3.728 10.272l-1.403 3.003c-1.313 2.807-4.097 4.456-7.005 4.456z"/><path d="m273.023 364.875c-1.096 0-2.209-.234-3.268-.729-3.865-1.807-5.534-6.405-3.726-10.272l1.404-3.004c1.806-3.865 6.406-5.534 10.272-3.726 3.865 1.807 5.534 6.405 3.726 10.272l-1.404 3.004c-1.312 2.806-4.097 4.455-7.004 4.455z"/></g><g><path d="m321.457 332.107c-1.097 0-2.209-.234-3.268-.729-3.866-1.808-5.534-6.406-3.726-10.273l1.404-3.003c1.808-3.864 6.408-5.532 10.272-3.725 3.866 1.808 5.534 6.406 3.726 10.273l-1.404 3.003c-1.313 2.805-4.098 4.454-7.004 4.454z"/><path d="m306.136 364.875c-1.096 0-2.209-.234-3.268-.729-3.865-1.807-5.534-6.405-3.726-10.272l1.404-3.004c1.807-3.865 6.404-5.534 10.272-3.726 3.865 1.807 5.534 6.405 3.726 10.272l-1.404 3.004c-1.312 2.806-4.098 4.455-7.004 4.455z"/></g></g></g></svg>