<svg id="Capa_1" enable-background="new 0 0 512 512" height="512" viewBox="0 0 512 512" width="512" xmlns="http://www.w3.org/2000/svg"><g><path d="m474.759 248.198v80.313h-49.459v-80.313c0-87.318-71.052-158.37-158.37-158.37-87.328 0-158.38 71.052-158.38 158.37v156.424h-49.459v-156.424c0-114.608 93.231-207.829 207.839-207.829 114.598 0 207.829 93.222 207.829 207.829z" fill="#df646e"/><path d="m425.3 248.198v80.313h-49.468v-80.312c0-60.049-48.856-108.919-108.905-108.919-60.059 0-108.909 48.87-108.909 108.919v156.423h-49.468v-156.424c0-87.318 71.052-158.37 158.38-158.37 87.318 0 158.37 71.052 158.37 158.37z" fill="#ecc52e"/><path d="m375.832 248.199v80.312h-49.451v-80.311c0-32.838-26.618-59.456-59.456-59.456s-59.455 26.618-59.455 59.456v156.422h-49.451v-156.423c0-60.054 48.855-108.919 108.909-108.919s108.904 48.866 108.904 108.919z" fill="#70c6db"/><path d="m477.262 294.297h-2.662l-6.184 4c-7.404-36.385-39.584-64.766-78.154-64.766-5.784 0-11.424-2.384-16.859-1.215-30.805 6.629-55.001 31.052-61.295 61.98-1.046 5.168-1.6 10.511-1.6 15.988 0 13.573 3.389 26.352 9.369 37.538 4.821 9.019 14.273 14.598 24.499 14.598h133.556c9.404 0 17.926-3.815 24.089-9.978 6.309-6.309 10.157-15.078 9.972-24.757-.356-18.658-16.068-33.388-34.731-33.388z" fill="#ddebfd"/><path d="m477.262 294.297h-8.846c-7.404-36.385-39.584-63.766-78.154-63.766-5.784 0-11.421.628-16.856 1.797 30.97 6.787 55.331 32.265 61.648 64.582h8.846c18.663 0 34.374 15.333 34.731 34.758.185 10.076-3.663 19.205-9.972 25.772-1.813 1.887-3.834 3.555-6.017 4.981h15.29c9.404 0 17.926-3.815 24.089-9.978 6.309-6.309 10.157-15.078 9.972-24.757-.356-18.659-16.068-33.389-34.731-33.389z" fill="#bed9fd"/><path d="m327.866 424.364c-5.011-5.011-11.94-8.111-19.581-8.111h-39.303c4.675-11.393 7.301-23.848 7.418-36.898.491-54.835-44.111-90.085-98.834-98.51-5.182-.798-10.393-1.674-15.421-.932-46.776 6.896-82.964 46.302-84.87 94.524-.073 1.847-1.591 3.305-3.44 3.305-7.883.001-26.891.003-26.891.003-25.927 0-46.944 21.017-46.944 46.943s21.017 46.943 46.943 46.943h260.893c15.06 0 27.711-11.844 28.13-26.898.221-7.953-2.918-15.187-8.1-20.369z" fill="#ddebfd"/><g><g fill="#bed9fd"><path d="m247.18 379.355c-.09 10.041-1.665 19.73-4.517 28.854-1.248 3.994 1.77 8.044 5.955 8.044h20.363c4.851-11.822 7.496-24.787 7.421-38.373-.294-53.028-42.778-96.956-95.769-98.965-6.305-.239-12.483.117-18.489 1.003 48.306 7.147 85.485 49.285 85.036 99.437z"/><path d="m327.866 424.364c-5.011-5.011-11.939-8.111-19.581-8.111h-29.22c7.641 0 14.57 3.1 19.581 8.111 5.182 5.182 8.321 12.417 8.1 20.369-.419 15.054-13.07 26.898-28.13 26.898h29.22c15.06 0 27.711-11.844 28.13-26.898.221-7.953-2.918-15.187-8.1-20.369z"/></g></g></g></svg>