<svg id="Capa_1" enable-background="new 0 0 512 512" height="512" viewBox="0 0 512 512" width="512" xmlns="http://www.w3.org/2000/svg"><g><g fill="#a2bbe3"><path d="m260.543 262.585c-1.948 0-3.896-.743-5.383-2.229-2.972-2.973-2.972-7.792 0-10.765l56.298-56.297c2.973-2.972 7.792-2.97 10.765 0 2.972 2.973 2.972 7.792 0 10.765l-56.298 56.297c-1.485 1.486-3.434 2.229-5.382 2.229z"/><path d="m236.727 238.769c-1.949 0-3.896-.743-5.383-2.229-2.972-2.973-2.972-7.792 0-10.765l56.298-56.297c2.974-2.972 7.793-2.97 10.765 0 2.972 2.973 2.972 7.792 0 10.765l-56.297 56.297c-1.487 1.485-3.435 2.229-5.383 2.229z"/></g><path d="m322.186 222.523-21.122-21.122-.928-9.928-9.838-.838-21.122-21.122c-2.007-2.007-2.007-5.26 0-7.267l40.221-40.22 10.669-.669.097-10.097 38.471-38.471 9.64-.64 1.125-10.125 40.22-40.22c2.007-2.007 5.26-2.007 7.267 0l21.122 21.122.999 8.999 9.766 1.766 21.122 21.122c2.007 2.007 2.007 5.26 0 7.267l-40.22 40.22-10.758.758-.008 10.008-38.471 38.471-10.982-.018.217 10.783-40.22 40.22c-2.006 2.008-5.26 2.008-7.267.001z" fill="#5d91b9"/><path d="m469.896 74.813-17.253-17.253c2.007 2.007 2.007 5.26 0 7.267l-140.443 140.443c-2.007 2.007-5.26 2.007-7.267 0l17.253 17.253c2.007 2.007 5.26 2.007 7.267 0l40.22-40.22-.137-11.016 10.902.251 38.471-38.471-4.486-15.514 15.252 4.748 40.22-40.22c2.008-2.007 2.008-5.261.001-7.268z" fill="#407194"/><g fill="#a2bbe3"><path d="m172.07 351.058c-1.948 0-3.896-.743-5.383-2.229-2.972-2.973-2.972-7.792 0-10.765l57.57-57.57c2.973-2.971 7.792-2.971 10.765 0 2.972 2.973 2.972 7.792 0 10.765l-57.57 57.57c-1.486 1.486-3.434 2.229-5.382 2.229z"/><path d="m145.91 329.586c-1.948 0-3.896-.743-5.383-2.229-2.972-2.973-2.972-7.792 0-10.765l59.914-59.914c2.973-2.971 7.792-2.971 10.765 0 2.972 2.973 2.972 7.792 0 10.765l-59.914 59.914c-1.486 1.486-3.434 2.229-5.382 2.229z"/></g><path d="m200.659 228.57c-1.947 0-3.896-.743-5.383-2.229l-22.139-22.139c-2.972-2.973-2.972-7.792 0-10.765 2.973-2.971 7.792-2.971 10.765 0l22.139 22.139c2.972 2.973 2.972 7.792 0 10.765-1.486 1.486-3.434 2.229-5.382 2.229z" fill="#5d91b9"/><path d="m404.921 97.545 43.854-43.854-10.766-10.765-43.854 43.854-24.755-24.755-10.765 10.765 24.755 24.755-38.471 38.472-24.756-24.756-10.765 10.766 24.755 24.755-43.854 43.854 10.765 10.765 43.855-43.854 24.755 24.756 10.765-10.766-24.755-24.755 38.471-38.471 24.756 24.755 10.765-10.765z" fill="#94d8e6"/><g fill="#70c6db"><path d="m408.055 106.857h15.224v24.399h-15.224z" transform="matrix(.707 -.707 .707 .707 37.56 328.792)"/><path d="m358.818 156.094h15.224v24.399h-15.224z" transform="matrix(.707 -.707 .707 .707 -11.678 308.393)"/></g><ellipse cx="161.44" cy="181.739" fill="#df646e" rx="28.021" ry="28.021" transform="matrix(.766 -.643 .643 .766 -79.047 146.274)"/><path d="m428.426 452.081c-4.756 0-9.229-1.844-12.602-5.193l-23.684-22.961c-3.018-2.926-3.092-7.744-.167-10.763 2.925-3.017 7.743-3.093 10.763-.167 0 0 23.777 23.052 23.805 23.08.679.679 1.472.781 1.884.781s1.206-.102 1.885-.782l65.693-65.693c1.04-1.039 1.04-2.73 0-3.77l-10.312-10.313c-2.972-2.973-2.972-7.792 0-10.765 2.973-2.971 7.792-2.971 10.765 0l10.313 10.313c6.974 6.976 6.973 18.325 0 25.3l-65.693 65.693c-3.379 3.378-7.872 5.24-12.65 5.24z" fill="#5d91b9"/><path d="m502.961 333.887-13.772-13.772c-6.975-6.977-18.329-6.977-25.305 0l-3.613 3.613c-6.977 6.976-6.977 18.328 0 25.305l13.772 13.772c1.645 1.645 3.833 2.552 6.159 2.552 2.327 0 4.514-.907 6.16-2.552l16.599-16.599c1.645-1.645 2.552-3.833 2.552-6.16 0-2.326-.907-4.513-2.552-6.159z" fill="#94d8e6"/><path d="m386.593 439.641-34.187-9.511 19.112-39.41 38.312-18.015 9.511 34.187c.981 3.527-.013 7.308-2.601 9.896l-20.251 20.251c-2.588 2.589-6.369 3.583-9.896 2.602z" fill="#ddebfd"/><path d="m263.559 319.795-73.691-73.691c-3.963-3.963-3.963-10.389 0-14.353l21.585-21.585c3.963-3.963 10.389-3.963 14.353 0l73.691 73.691-5.257 31.024z" fill="#ddebfd"/><path d="m263.559 319.795 30.679-4.913 5.258-31.025-9.593-9.592-35.937 35.937z" fill="#bed9fd"/><path d="m243.432 347.189 92.324 92.324c2.007 2.007 5.26 2.007 7.267 0l76.191-76.191c2.007-2.007 2.007-5.26 0-7.267l-92.324-92.324c-2.007-2.007-5.26-2.007-7.267 0l-76.191 76.191c-2.007 2.007-2.007 5.26 0 7.267z" fill="#6cbff8"/><path d="m419.214 356.055-6.84-6.84c.246 1.584-.226 3.259-1.447 4.48l-77.14 77.14c-1.498 1.498-3.679 1.882-5.538 1.172l7.506 7.506c2.007 2.007 5.26 2.007 7.267 0l76.191-76.191c2.008-2.007 2.008-5.26.001-7.267z" fill="#5fa7ee"/><path d="m202.226 342.488-21.124-21.124-9.702-2.702-1.063-8.063-21.124-21.124c-2.005-2.005-5.257-2.005-7.262 0l-40.223 40.223-3.253 9.253-7.513 1.513-38.472 38.472-2.873 8.873-7.892 1.892-40.22 40.22c-2.007 2.007-2.007 5.26 0 7.267l21.122 21.122 6.985 2.985 3.78 7.78 21.121 21.121c2.007 2.007 5.26 2.007 7.267 0l40.22-40.22 1.892-8.892 8.873-1.873 38.472-38.472 2.7-9.699 8.066-1.066 40.223-40.223c2.006-2.006 2.006-5.258 0-7.263z" fill="#5d91b9"/><path d="m202.226 342.488-17.253-17.253c2.005 2.005 2.005 5.257 0 7.262l-140.445 140.446c-2.007 2.006-5.26 2.006-7.267 0l17.253 17.253c2.007 2.006 5.26 2.006 7.267 0l40.22-40.22 1.42-9.42 9.345-1.345 38.472-38.472 2.067-8.067 8.699-2.699 40.223-40.223c2.005-2.005 2.005-5.257-.001-7.262z" fill="#407194"/><path d="m137.248 365.218 43.854-43.854-10.765-10.765-43.854 43.854-24.756-24.756-10.765 10.765 24.756 24.756-38.472 38.472-24.756-24.756-10.765 10.765 24.756 24.756-43.854 43.854 10.766 10.765 43.853-43.854 24.755 24.755 10.766-10.765-24.755-24.755 38.471-38.472 24.755 24.756 10.766-10.766z" fill="#94d8e6"/><g fill="#70c6db"><path d="m140.382 374.53h15.224v24.399h-15.224z" transform="matrix(.707 -.707 .707 .707 -230.112 217.918)"/><path d="m91.145 423.767h15.225v24.399h-15.225z" transform="matrix(.707 -.707 .707 .707 -279.355 197.532)"/></g></g></svg>