<svg id="Capa_1" enable-background="new 0 0 512 512" height="512" viewBox="0 0 512 512" width="512" xmlns="http://www.w3.org/2000/svg"><g><path d="m398.367 320.334c9.226 8.33 9.953 22.561 1.624 31.788l-26.327 29.163-18.56-12.949-14.855-17.215 26.331-29.163c8.329-9.227 22.56-9.953 31.787-1.624z" fill="#ffcdbe"/><path d="m340.248 351.121-63.851 69.942-8.535-61.813c-2.227-16.126-15.999-28.128-32.274-28.128h-42.791l-46.47 20-46.471-20h-42.794c-16.272 0-30.049 12.005-32.276 28.125l-19.51 141.274c-.838 6.069 3.877 11.479 10.003 11.479h219.634c5.941 0 10.514-5.249 9.701-11.135l-5.337-38.638c6.953 22.012 35.186 28.159 50.66 11.02l83.727-91.963z" fill="#5d91b9"/><path d="m398.367 320.334c-1.61-1.454-3.379-2.614-5.236-3.519 4.438 8.156 3.529 18.548-3.046 25.832l-26.593 29.456 10.172 9.183 26.327-29.163c8.329-9.227 7.602-23.459-1.624-31.789z" fill="#ebae9d"/><path d="m363.491 372.102-83.46 91.67c-10.158 11.251-25.814 12.467-37.339 5.748 10.206 15.863 33.648 18.788 47.245 3.728l83.727-91.963z" fill="#407194"/><path d="m146.327 344.19c-4.267 0-7.726 3.459-7.726 7.726v160.084h15.453v-160.083c0-4.268-3.459-7.727-7.727-7.727z" fill="#407194"/><path d="m179.681 379.858 29.625-17.957c2.861-1.734 3.55-5.587 1.465-8.205l-17.974-22.574h-92.94l-17.974 22.574c-2.084 2.618-1.396 6.471 1.465 8.205l29.625 17.957-11.673 12.769c-3.497 3.826-4.201 9.44-1.755 14.01 12.072 22.545 46.759 87.327 46.781 87.358.022-.031 34.709-64.813 46.781-87.358 2.447-4.57 1.743-10.184-1.755-14.01z" fill="#ddebfd"/><path d="m154.054 479.573v-127.656c0-4.268-3.459-7.726-7.726-7.726s-7.726 3.458-7.726 7.726v127.655c4.64 8.665 7.72 14.414 7.727 14.423.005-.01 3.085-5.759 7.725-14.422z" fill="#bed9fd"/><path d="m167.09 299.124h-41.525v37.147l14.958 36.47c2.129 5.191 9.48 5.191 11.609 0l14.958-36.47z" fill="#ebae9d"/><path d="m418.855 86.747-13.064-10.5c-8.014-6.441-12.19-16.523-11.078-26.744l1.813-16.663c.492-4.524-3.326-8.342-7.85-7.85l-16.663 1.813c-10.221 1.112-20.303-3.064-26.744-11.078l-10.5-13.064c-2.851-3.547-8.251-3.547-11.102 0l-10.5 13.064c-6.441 8.014-16.523 12.19-26.744 11.078l-16.663-1.813c-4.524-.492-8.342 3.326-7.85 7.85l1.813 16.663c1.112 10.221-3.064 20.303-11.078 26.744l-13.064 10.5c-3.547 2.851-3.547 8.251 0 11.102l13.064 10.5c8.014 6.441 12.19 16.523 11.078 26.744l-1.813 16.663c-.492 4.524 3.326 8.342 7.85 7.85l16.662-1.813c10.221-1.112 20.303 3.064 26.744 11.078l10.5 13.064c2.851 3.547 8.251 3.547 11.102 0l10.5-13.064c6.441-8.014 16.523-12.19 26.744-11.078l16.662 1.813c4.524.492 8.342-3.326 7.85-7.85l-1.813-16.662c-1.112-10.221 3.064-20.303 11.078-26.744l13.064-10.5c3.549-2.852 3.549-8.253.002-11.103z" fill="#ecc52e"/><ellipse cx="329.218" cy="92.297" fill="#e69642" rx="44.445" ry="44.445" transform="matrix(1 -.019 .019 1 -1.679 6.215)"/><path d="m501.402 171.324c-3.347-3.347-7.975-5.418-13.08-5.418h-26.254c3.123-7.611 4.877-15.93 4.955-24.647.328-36.629-29.391-66.865-66.02-67.14-36.086-.271-65.583 28.18-66.993 63.854-.049 1.234-1.063 2.208-2.298 2.208-5.266.001-17.963.002-17.963.002-17.318 0-31.358 14.039-31.358 31.358 0 17.318 14.039 31.357 31.358 31.357h174.273c10.06 0 18.511-7.912 18.79-17.968.149-5.312-1.948-10.145-5.41-13.606z" fill="#ddebfd"/><g><g fill="#bed9fd"><path d="m444.783 141.259c-.078 8.716-1.832 17.036-4.955 24.647h22.241c3.123-7.611 4.877-15.931 4.955-24.647.328-36.629-29.391-66.864-66.02-67.14-3.969-.03-7.851.307-11.632.943 31.586 5.368 55.706 33.18 55.411 66.197z"/><path d="m501.402 171.324c-3.347-3.347-7.976-5.418-13.08-5.418h-22.242c5.104 0 9.733 2.071 13.08 5.418 3.462 3.462 5.558 8.294 5.411 13.606-.28 10.056-8.73 17.968-18.79 17.968h22.242c10.06 0 18.51-7.912 18.79-17.968.148-5.312-1.949-10.145-5.411-13.606z"/></g></g><path d="m62.95 392.915c-4.217-.574-8.126 2.37-8.711 6.597l-15.39 111.432c-.049.356-.064.708-.065 1.057h15.519l15.244-110.374c.584-4.228-2.37-8.128-6.597-8.712z" fill="#407194"/><path d="m230.487 398.062c-.584-4.227-4.483-7.182-8.711-6.597-4.227.585-7.18 4.484-6.597 8.711l15.447 111.824h4.287c5.941 0 10.514-5.249 9.701-11.134l-5.337-38.638c.037.116.083.225.12.341z" fill="#407194"/><g fill="#75cff9"><g><path d="m370.998 244.88c-1.096 0-2.209-.234-3.268-.729-3.866-1.808-5.534-6.406-3.726-10.272l1.598-3.418c1.807-3.865 6.406-5.534 10.272-3.726s5.534 6.406 3.726 10.272l-1.598 3.418c-1.312 2.807-4.098 4.455-7.004 4.455z"/><path d="m353.564 282.169c-1.096 0-2.209-.234-3.267-.729-3.866-1.807-5.534-6.405-3.727-10.271l1.598-3.418c1.806-3.867 6.403-5.537 10.272-3.727 3.866 1.807 5.534 6.405 3.727 10.271l-1.598 3.418c-1.313 2.807-4.098 4.456-7.005 4.456z"/></g><g><path d="m408.678 244.88c-1.096 0-2.209-.234-3.268-.729-3.866-1.808-5.534-6.406-3.726-10.272l1.598-3.418c1.807-3.865 6.407-5.534 10.272-3.726 3.866 1.808 5.534 6.406 3.726 10.272l-1.598 3.418c-1.312 2.807-4.097 4.455-7.004 4.455z"/><path d="m391.244 282.169c-1.096 0-2.209-.234-3.268-.729-3.866-1.808-5.534-6.406-3.726-10.272l1.598-3.418c1.807-3.865 6.406-5.533 10.272-3.726 3.866 1.808 5.534 6.406 3.726 10.272l-1.598 3.418c-1.313 2.806-4.098 4.455-7.004 4.455z"/></g><g><path d="m446.358 244.88c-1.096 0-2.209-.234-3.268-.729-3.866-1.808-5.534-6.406-3.726-10.272l1.598-3.418c1.807-3.865 6.406-5.534 10.272-3.726s5.534 6.406 3.726 10.272l-1.598 3.418c-1.312 2.807-4.097 4.455-7.004 4.455z"/><path d="m428.924 282.169c-1.096 0-2.209-.234-3.268-.729-3.866-1.808-5.534-6.406-3.726-10.272l1.598-3.418c1.808-3.865 6.407-5.533 10.272-3.726 3.866 1.808 5.534 6.406 3.726 10.272l-1.598 3.418c-1.313 2.806-4.098 4.455-7.004 4.455z"/></g></g><path d="m220.226 255.729c13.027-18.516 20.826-42.025 20.826-67.618 0-59.698-42.41-72.838-94.725-72.838s-94.725 13.14-94.725 72.838c0 25.593 7.799 49.102 20.826 67.618z" fill="#5d91b9"/><path d="m146.327 115.274c-4.364 0-8.658.094-12.865.296 46.229 2.223 81.86 17.823 81.86 72.541 0 25.593-7.799 49.102-20.826 67.618h25.73c13.027-18.516 20.826-42.025 20.826-67.618.001-59.697-42.409-72.837-94.725-72.837z" fill="#407194"/><path d="m204.873 209.641v75.913c0 13.017-10.552 23.569-23.569 23.569h-69.955c-13.017 0-23.569-10.552-23.569-23.569v-88.56c0-12.222 9.908-22.13 22.13-22.13h7.453c3.995 0 7.916.978 11.477 2.788 16.394 8.333 38.876 13.7 58.823 14.317 9.578.297 17.21 8.089 17.21 17.672z" fill="#ffcdbe"/><path d="m222.138 269.842h-17.264v-46.394h17.264c10.446 0 18.915 8.469 18.915 18.915v8.564c0 10.446-8.469 18.915-18.915 18.915z" fill="#ebae9d"/><path d="m70.517 269.842h17.264v-46.394h-17.264c-10.446 0-18.915 8.469-18.915 18.915v8.564c0 10.446 8.469 18.915 18.915 18.915z" fill="#ebae9d"/><path d="m120.598 233.903c-4.267 0-7.726-3.459-7.726-7.726v-2.66c0-4.268 3.459-7.726 7.726-7.726s7.726 3.459 7.726 7.726v2.66c0 4.267-3.459 7.726-7.726 7.726z" fill="#d47f6c"/><path d="m172.058 233.903c-4.267 0-7.726-3.459-7.726-7.726v-2.66c0-4.268 3.459-7.726 7.726-7.726s7.726 3.459 7.726 7.726v2.66c0 4.267-3.459 7.726-7.726 7.726z" fill="#d47f6c"/><path d="m146.328 277.609c-7.301 0-14.602-1.999-21.852-5.997-3.736-2.06-5.096-6.76-3.035-10.496 2.06-3.737 6.76-5.097 10.497-3.035 9.817 5.412 18.963 5.412 28.78 0 3.736-2.063 8.436-.703 10.497 3.035 2.06 3.736.701 8.436-3.035 10.496-7.25 3.998-14.551 5.997-21.852 5.997z" fill="#d47f6c"/></g></svg>