<svg id="Capa_1" enable-background="new 0 0 512 512" height="512" viewBox="0 0 512 512" width="512" xmlns="http://www.w3.org/2000/svg"><g><path d="m150.578 60.051h-4.904c-4.145-20.367-22.158-35.693-43.747-35.693s-39.603 15.326-43.748 35.693c-.585 2.893-.895 5.884-.895 8.949 0 10.085 3.343 19.388 8.982 26.86 1.12 1.483 2.897 2.324 4.756 2.324h79.979c5.264 0 10.034-2.135 13.484-5.585 3.509-3.509 5.658-8.377 5.583-13.754-.145-10.494-8.996-18.794-19.49-18.794z" fill="#ddebfd"/><path d="m437.221 126.155c-41.625 6.388-81.24-21.76-88.902-63.17-3.701-20.002.535-39.579 10.439-55.549 2.311-3.727-1.081-8.358-5.33-7.277-13.364 3.401-26.15 9.949-37.217 19.731-36.848 32.571-40.418 89.401-7.976 126.363 32.415 36.931 88.606 40.921 125.923 8.786 8.28-7.13 14.937-15.443 19.939-24.473 2.115-3.818-1.534-8.24-5.707-6.962-3.603 1.104-7.331 1.962-11.169 2.551z" fill="#ebb34c"/><path d="m448.39 123.605c-3.603 1.104-7.331 1.961-11.169 2.55-41.625 6.388-81.24-21.76-88.902-63.169-3.701-20.002.535-39.579 10.439-55.549 2.311-3.727-1.081-8.358-5.33-7.276-8.345 2.124-16.465 5.475-24.082 10.075.339-.091.677-.188 1.017-.275 4.25-1.082 7.642 3.55 5.33 7.277-9.905 15.969-14.14 35.546-10.439 55.548 7.662 41.41 47.276 69.558 88.902 63.169 3.838-.589 7.566-1.446 11.169-2.55 4.174-1.278 7.822 3.144 5.707 6.962-5.002 9.03-11.659 17.343-19.939 24.473-3.918 3.375-8.054 6.326-12.34 8.907 12.672-3.371 24.801-9.576 35.404-18.707 8.28-7.13 14.937-15.443 19.939-24.473 2.116-3.818-1.533-8.241-5.706-6.962z" fill="#e69642"/><path d="m405.749 233.508c-4.693-4.693-11.183-7.597-18.34-7.597h-36.813c4.379-10.671 6.839-22.338 6.948-34.56.049-5.472-.38-10.842-1.249-16.071-2.709-16.312-14.69-27.245-24.754-39.585-12.516-15.347-24.798-30.683-44.555-35.674-7.058-1.783-14.431-2.756-22.016-2.813-50.599-.38-91.96 39.514-93.938 89.535-.068 1.73-1.491 3.096-3.222 3.096-7.384.001-25.188.003-25.188.003-24.284 0-43.969 19.686-43.969 43.969 0 24.284 19.686 43.969 43.969 43.969h244.365c14.106 0 25.955-11.094 26.347-25.194.209-7.448-2.731-14.224-7.585-19.078z" fill="#ddebfd"/><path d="m334.123 191.351c-.099 11.102-2.138 21.744-5.792 31.6-.533 1.436.526 2.96 2.058 2.96h20.207c4.379-10.672 6.839-22.338 6.948-34.56.459-51.361-41.211-93.757-92.573-94.142-4.223-.032-8.381.223-12.458.735 46.196 5.827 82.036 45.755 81.61 93.407z" fill="#bed9fd"/><path d="m405.749 233.508c-4.693-4.693-11.183-7.597-18.34-7.597h-23.421c7.157 0 13.647 2.904 18.34 7.597 4.854 4.854 7.794 11.63 7.587 19.078-.392 14.1-12.242 25.194-26.347 25.194h23.421c14.106 0 25.955-11.094 26.347-25.194.207-7.448-2.733-14.224-7.587-19.078z" fill="#bed9fd"/><g fill="#75cff9"><path d="m127.765 328.581-8.824 2.867v-9.279c0-4.204-3.408-7.611-7.611-7.611s-7.611 3.407-7.611 7.611v9.279l-8.825-2.867c-3.998-1.299-8.292.89-9.591 4.887-1.299 3.998.889 8.292 4.887 9.591l8.824 2.867-5.454 7.507c-2.471 3.4-1.717 8.161 1.684 10.631 1.351.982 2.916 1.455 4.467 1.455 2.354 0 4.675-1.089 6.165-3.139l5.453-7.506 5.453 7.506c1.49 2.051 3.811 3.139 6.165 3.139 1.551 0 3.116-.473 4.467-1.455 3.401-2.471 4.155-7.231 1.684-10.631l-5.454-7.507 8.824-2.867c3.998-1.298 6.186-5.593 4.887-9.591-1.298-3.999-5.592-6.187-9.59-4.887z"/><path d="m420.587 333.468c-1.298-3.999-5.598-6.183-9.591-4.887l-8.825 2.867v-9.279c0-4.204-3.407-7.611-7.612-7.611s-7.611 3.407-7.611 7.611v9.279l-8.825-2.867c-3.996-1.296-8.292.89-9.591 4.887-1.299 3.998.889 8.292 4.887 9.591l8.824 2.867-5.454 7.506c-2.471 3.4-1.718 8.161 1.684 10.631 1.351.982 2.916 1.455 4.468 1.455 2.353 0 4.675-1.089 6.164-3.139l5.454-7.507 5.454 7.507c1.489 2.051 3.81 3.139 6.164 3.139 1.551 0 3.117-.473 4.468-1.455 3.401-2.471 4.155-7.231 1.684-10.631l-5.454-7.506 8.824-2.867c3.999-1.299 6.187-5.593 4.888-9.591z"/></g><g fill="#6cbff8"><path d="m248.39 361.193v30.609c0 4.204 3.408 7.612 7.611 7.612 4.204 0 7.612-3.407 7.612-7.612v-30.609l19.045-20.636c2.85-3.09 2.658-7.905-.431-10.756-3.091-2.852-7.906-2.657-10.756.431l-15.469 16.763-15.469-16.763c-2.85-3.088-7.667-3.283-10.756-.431-3.089 2.851-3.282 7.666-.432 10.756z"/><path d="m172.286 403.497c.554 0 1.117-.061 1.681-.188l27.394-6.176 26.508 15.305c1.199.692 2.507 1.021 3.799 1.021 2.63 0 5.189-1.365 6.599-3.807 2.102-3.64.855-8.295-2.786-10.397l-26.509-15.305-8.349-26.811c-1.249-4.014-5.516-6.249-9.53-5.005-4.013 1.25-6.254 5.517-5.004 9.53l6.781 21.778-22.251 5.017c-4.101.925-6.676 4.998-5.751 9.099.797 3.537 3.938 5.939 7.418 5.939z"/><path d="m235.481 440.527c3.641-2.102 4.888-6.757 2.786-10.397-2.102-3.641-6.759-4.886-10.397-2.786l-26.508 15.305-27.394-6.175c-4.105-.926-8.174 1.65-9.099 5.751-.924 4.101 1.651 8.174 5.751 9.099l22.251 5.016-6.781 21.778c-1.25 4.013.991 8.28 5.004 9.53.754.234 1.516.346 2.266.346 3.243 0 6.25-2.09 7.265-5.351l8.349-26.811z"/><path d="m263.613 478.591v-30.61c0-4.204-3.408-7.612-7.612-7.612s-7.611 3.407-7.611 7.612v30.609l-19.045 20.636c-2.851 3.089-2.658 7.905.432 10.756 3.089 2.851 7.904 2.657 10.756-.431l15.469-16.762 15.469 16.762c1.5 1.625 3.545 2.449 5.596 2.449 1.845 0 3.697-.668 5.161-2.018 3.089-2.851 3.281-7.667.431-10.756z"/><path d="m338.036 436.474-27.394 6.175-26.509-15.305c-3.642-2.101-8.296-.855-10.397 2.786-2.102 3.64-.854 8.295 2.786 10.397l26.509 15.305 8.348 26.811c1.016 3.261 4.022 5.351 7.266 5.351.749 0 1.511-.112 2.265-.346 4.014-1.25 6.255-5.516 5.005-9.53l-6.781-21.778 22.251-5.016c4.101-.925 6.676-4.998 5.751-9.099-.926-4.1-4.991-6.671-9.1-5.751z"/><path d="m276.521 399.255c-3.64 2.102-4.888 6.757-2.786 10.397 1.409 2.442 3.968 3.807 6.599 3.807 1.291 0 2.601-.329 3.799-1.021l26.509-15.305 27.394 6.176c.564.127 1.127.188 1.681.188 3.48 0 6.62-2.402 7.418-5.94.925-4.101-1.65-8.174-5.751-9.099l-22.251-5.017 6.781-21.778c1.25-4.014-.991-8.28-5.005-9.53-4.015-1.25-8.28.991-9.53 5.005l-8.348 26.811z"/></g><circle cx="256" cy="419.891" fill="#75cff9" r="33.246"/></g></svg>