<svg id="Capa_1" enable-background="new 0 0 512 512" height="512" viewBox="0 0 512 512" width="512" xmlns="http://www.w3.org/2000/svg"><g><path d="m466.231 55.721h-8.316c-6.47-31.795-34.59-55.721-68.294-55.721s-61.824 23.926-68.294 55.721c-.914 4.516-1.398 9.185-1.398 13.971 0 17.421 6.389 33.345 16.955 45.559h129.346c8.217 0 15.664-3.334 21.05-8.719 5.386-5.386 8.719-12.824 8.719-21.05.001-16.436-13.333-29.761-29.768-29.761z" fill="#ddebfd"/><g><path d="m465.48 199.5c-6.869-6.869-16.368-11.12-26.844-11.12h-53.881c6.409-15.619 10.01-32.694 10.17-50.584.672-75.175-60.32-137.228-135.495-137.792-74.06-.556-134.598 57.835-137.492 131.049-.1 2.532-2.182 4.531-4.716 4.531-10.807.002-36.866.004-36.866.004-35.543 0-64.356 28.813-64.356 64.356s28.813 64.355 64.356 64.355h357.666c20.646 0 37.99-16.238 38.564-36.876.302-10.901-4.001-20.819-11.106-27.923z" fill="#ddebfd"/><g fill="#bed9fd"><path d="m465.48 199.5c-6.869-6.869-16.368-11.12-26.844-11.12h-34.28c10.476 0 19.975 4.25 26.844 11.12 7.105 7.105 11.408 17.022 11.105 27.924-.574 20.638-17.918 36.876-38.564 36.876h34.28c20.646 0 37.99-16.238 38.564-36.876.303-10.902-4-20.82-11.105-27.924z"/><path d="m360.645 137.796c-.145 16.249-3.129 31.826-8.478 46.251-.78 2.102.769 4.333 3.012 4.333h29.576c6.409-15.619 10.01-32.694 10.17-50.584.672-75.175-60.32-137.228-135.495-137.792-6.182-.046-12.266.327-18.234 1.076 67.615 8.53 120.073 66.97 119.449 136.716z"/></g></g><path d="m376.606 483.92c6.214-.422 12.04-4.043 14.976-10.038 4.375-8.935.679-19.724-8.256-24.099s-19.724-.679-24.099 8.256c-.078.16-.144.322-.217.484l-212.165-103.887c.082-.157.171-.308.249-.468 4.375-8.935.679-19.724-8.256-24.099s-19.724-.679-24.099 8.256c-2.935 5.995-2.223 12.818 1.255 17.985-6.214.422-12.04 4.043-14.976 10.038-4.375 8.934-.678 19.723 8.257 24.098s19.724.679 24.099-8.256c.079-.16.144-.323.217-.484l212.165 103.887c-.082.157-.171.308-.249.468-4.375 8.934-.678 19.723 8.257 24.098s19.724.679 24.099-8.256c2.933-5.994 2.221-12.816-1.257-17.983z" fill="#b5adb7"/><path d="m115.993 483.92c-6.214-.422-12.04-4.043-14.976-10.038-4.375-8.935-.679-19.724 8.256-24.099s19.724-.679 24.099 8.256c.078.16.144.322.217.484l212.165-103.887c-.082-.157-.171-.308-.249-.468-4.375-8.935-.679-19.724 8.256-24.099s19.724-.679 24.099 8.256c2.935 5.995 2.223 12.818-1.255 17.985 6.214.422 12.04 4.043 14.976 10.038 4.375 8.934.678 19.723-8.257 24.098s-19.724.679-24.099-8.256c-.079-.16-.144-.323-.217-.484l-212.163 103.888c.082.157.171.308.249.468 4.375 8.934.678 19.723-8.257 24.098s-19.724.679-24.099-8.256c-2.935-5.995-2.222-12.817 1.255-17.984z" fill="#d4cfd5"/><path d="m246.3 138.439c-56.298 0-101.937 35.559-101.937 91.857 0 7.951.911 15.689 2.634 23.115 4.792 20.656 22.03 35.749 42.593 38.627 2.727.382 4.762 2.7 4.762 5.454v34.467c0 14.414 11.685 26.099 26.099 26.099h51.699c14.414 0 26.099-11.685 26.099-26.099v-34.467c0-2.754 2.035-5.072 4.762-5.454 20.564-2.878 37.801-17.971 42.593-38.627 1.723-7.427 2.634-15.164 2.634-23.115-.001-56.298-45.64-91.857-101.938-91.857z" fill="#d4cfd5"/><g fill="#766d78"><path d="m225.578 236.774c0 11.756-9.53 21.286-21.287 21.286-11.748 0-21.278-9.53-21.278-21.286 0-4.934 1.671-9.474 4.492-13.074l36.104 4.138c1.262 2.716 1.969 5.746 1.969 8.936z"/><path d="m267.021 236.774c0 11.756 9.53 21.286 21.287 21.286 11.748 0 21.278-9.53 21.278-21.286 0-4.934-1.671-9.474-4.492-13.074l-36.104 4.138c-1.262 2.716-1.969 5.746-1.969 8.936z"/></g><g><g fill="#b5adb7"><path d="m264.864 306.809c-4.268 0-7.726 3.459-7.726 7.726v43.522s15.305-.009 15.453-.011v-43.511c0-4.267-3.459-7.726-7.727-7.726z"/><path d="m220.451 358.057h15.012v-43.522c0-4.268-3.459-7.726-7.726-7.726s-7.726 3.459-7.726 7.726v43.511c.146.002.292.011.44.011z"/></g></g></g></svg>