<svg id="Capa_1" enable-background="new 0 0 512 512" height="512" viewBox="0 0 512 512" width="512" xmlns="http://www.w3.org/2000/svg"><g><path d="m86.787 0h193.723c14.103 0 25.536 11.433 25.536 25.536v460.929c0 14.103-11.433 25.536-25.536 25.536h-193.723c-14.103 0-25.536-11.433-25.536-25.536v-460.929c0-14.103 11.433-25.536 25.536-25.536z" fill="#94d8e6"/><path d="m280.51 0h-3.162v460.71c0 14.103-11.433 25.536-25.536 25.536h-190.561v.219c0 14.103 11.433 25.536 25.536 25.536h193.723c14.103 0 25.536-11.433 25.536-25.536v-460.929c0-14.103-11.433-25.536-25.536-25.536z" fill="#70c6db"/><path d="m183.648 52.686c-18.125 0-32.818 14.693-32.818 32.818v153.844l32.818 11 32.818-11v-153.844c0-18.125-14.693-32.818-32.818-32.818z" fill="#ddebfd"/><path d="m150.83 239.348v105.672c-18.037 11.313-29.831 31.661-29.004 54.708 1.194 33.267 29.153 59.909 62.44 59.583 33.881-.331 61.244-27.901 61.244-61.859 0-22.107-11.604-41.493-29.045-52.432v-105.672z" fill="#df646e"/><path d="m267.069 172.996v166.007c0 7.091 5.748 12.839 12.839 12.839h158.002c7.091 0 12.839-5.748 12.839-12.839v-166.007c0-7.091-5.748-12.839-12.839-12.839h-158.001c-7.091 0-12.84 5.749-12.84 12.839z" fill="#ddebfd"/><path d="m437.91 160.157h-21.373c7.091 0 12.839 5.748 12.839 12.839v166.007c0 7.091-5.748 12.839-12.839 12.839h21.373c7.091 0 12.839-5.748 12.839-12.839v-166.007c0-7.091-5.748-12.839-12.839-12.839z" fill="#bed9fd"/><g fill="#5d91b9"><g><path d="m97.469 167.202h-36.218v15.453h36.218c4.268 0 7.726-3.459 7.726-7.726s-3.459-7.727-7.726-7.727z"/><path d="m105.195 239.346c0-4.268-3.459-7.726-7.726-7.726h-36.218v15.453h36.218c4.267-.001 7.726-3.459 7.726-7.727z"/><path d="m105.195 303.764c0-4.268-3.459-7.726-7.726-7.726h-36.218v15.453h36.218c4.267-.001 7.726-3.46 7.726-7.727z"/><path d="m97.469 102.785h-36.218v15.453h36.218c4.268 0 7.726-3.459 7.726-7.726 0-4.269-3.459-7.727-7.726-7.727z"/></g><path d="m411.023 257.386h-35.652v-37.466h36.92c4.268 0 7.726-3.459 7.726-7.726s-3.459-7.726-7.726-7.726h-40.583c-6.5 0-11.789 5.289-11.789 11.789v95.714c0 4.268 3.459 7.726 7.726 7.726s7.726-3.459 7.726-7.726v-39.132h35.652c4.268 0 7.726-3.459 7.726-7.726s-3.458-7.727-7.726-7.727z"/><path d="m321.532 239.764c-13.085 0-23.73-10.646-23.73-23.73 0-13.085 10.646-23.73 23.73-23.73s23.73 10.646 23.73 23.73-10.645 23.73-23.73 23.73zm0-32.008c-4.564 0-8.278 3.713-8.278 8.278 0 4.564 3.713 8.278 8.278 8.278s8.278-3.713 8.278-8.278-3.714-8.278-8.278-8.278z"/></g></g></svg>