<svg id="Capa_1" enable-background="new 0 0 512 512" height="512" viewBox="0 0 512 512" width="512" xmlns="http://www.w3.org/2000/svg"><g><path d="m283.989 249.79c-9.016 1.62-18.3 2.467-27.783 2.467-9.627 0-19.048-.877-28.194-2.546 16.79 7.301 33.847 11.31 52.287 12.576 1.514-4.318 2.726-8.475 3.69-12.497z" fill="#56988c"/><path d="m256 196.65c-69.264 0-128.096 44.661-149.272 106.756-5.447 15.974 9.709 34.387 9.709 52.205 0 15.633-15.837 29.449-11.599 43.707 11.533 38.807 37.603 71.357 71.896 91.339 9.923 5.782 26.662-7.92 37.809-4.396 11.967 3.784 18.424 24.61 31.437 25.426 3.313.208 6.654.313 10.02.313 12.507 0 24.675-1.456 36.341-4.209 69.562-16.41 108.18-69.38 108.18-143.954 0-13.202 11.531-35.538 8.475-47.794-17.105-68.582-79.116-119.393-152.996-119.393z" fill="#6cbff8"/><path d="m284.479 199.221c55.81 24.279 94.84 79.9 94.84 144.645 0 87.082-70.593 157.675-157.675 157.675-9.724 0-19.241-.886-28.478-2.571 9.298 4.045 19.06 3.221 29.185 5.425 7.682 1.672 15.573 6.784 23.629 7.291 3.313.208 6.654.314 10.02.314 12.507 0 24.675-1.456 36.341-4.208 69.562-16.41 110.334-78.892 110.334-153.467 0-13.202 9.377-26.025 6.321-38.281-14.854-59.554-63.572-105.705-124.517-116.823z" fill="#5fa7ee"/><path d="m272.973 328.994c-9.157 3.442-14.356 13.121-12.053 22.629l.107.441c2.289 9.451 11.277 15.617 20.94 14.534 16.872-1.892 34.144-2.203 50.977-.888 6.12.477 11.494 4.485 13.316 10.347 5.934 19.084-4.165 40.73-15.744 55.925-9.221 12.102-20.06 23.085-27.511 36.351-6.744 12.007-10.314 25.689-10.666 39.451 69.562-16.41 121.336-78.885 121.336-153.459 0-13.202-1.632-26.022-4.689-38.279-45.46-7.502-92.847-3.28-136.013 12.948z" fill="#bae6ef"/><path d="m408.986 316.046c-10.842-1.789-21.794-2.904-32.772-3.356 2.022 10.08 3.104 20.5 3.104 31.176 0 59.896-33.397 111.991-82.585 138.68-2.706 8.125-4.175 16.665-4.394 25.237 54.096-12.763 97.529-53.435 114.092-106.094 8.615-27.394 9.646-57.224 2.555-85.643z" fill="#94d8e6"/><path d="m171.528 379.533c-30.912-24.21 37.368-23.403 21.63-63.64-10.05-25.693-55.14-19.976-86.426-12.486-5.447 15.974-8.407 33.1-8.407 50.918 0 15.634 2.287 30.732 6.524 44.989 23.563 14.506 52.578 33.481 69.347 48.543 6.069 5.451 9.07 13.511 8.034 21.602-1.019 7.958-2.83 15.452-4.675 21.673 20.379 11.711 43.626 18.986 68.424 20.542 29.125-83.092-46.509-110.257-74.451-132.141z" fill="#bae6ef"/><path d="m249.707 499.049c-9.107 1.636-18.485 2.492-28.064 2.492-9.724 0-19.241-.886-28.478-2.571 16.709 7.27 34.53 11.556 52.815 12.704 1.529-4.363 2.753-8.563 3.727-12.625z" fill="#94d8e6"/><path d="m342.998 202.548c4.648-8.853 8.591-18.059 11.606-27.598 7.472-23.705 8.863-49.78.857-73.304-7.396-21.705-22.75-40.706-43.519-49.907-1.645-.729-3.433.854-2.832 2.55 2.7 7.617.276 17.042-5.87 22.542-7.482 6.695-19.148 7.613-28.233 3.327-9.075-4.285-15.548-13.108-18.311-22.768-2.773-9.649-2.117-20.035.383-29.765 2.016-7.866 3.886-16.908 6.899-24.833.679-1.786-1.256-3.448-2.934-2.534-21.043 11.464-41.935 23.95-57.476 42.088-16.839 19.652-26.408 47.532-17.807 71.943 3.237 9.206 8.853 17.484 11.505 26.871 2.642 9.397 1.412 21.023-6.584 26.619-8.47 5.929-21.044 2.027-27.477-6.07-5.239-6.585-8.939-16.568-10.144-25.629-.261-1.966-2.84-2.488-3.846-.778-6.767 11.502-10.013 25.077-9.08 38.395.524 7.603 2.42 15.094 5.505 22.072-8.398-1.909-16.712-3.234-24.868-3.983-1.616-.148-2.769 1.505-2.072 2.97 9.163 19.259 22.271 36.289 38.263 50.047 26.599 22.879 61.205 36.703 99.037 36.703 20.953 0 40.907-4.245 59.067-11.908 34.356-14.507 62.268-41.288 78.233-74.843.689-1.448-.438-3.118-2.035-2.971-15.695 1.446-31.981 4.998-48.267 10.764z" fill="#ecc52e"/><path d="m309.828 64.847c11.656 10.295 20.416 24.194 25.465 39.388 8.006 24.123 6.614 50.862-.857 75.172-3.015 9.781-6.957 19.222-11.606 28.3 6.934-2.518 13.865-4.598 20.753-6.301 4.391-8.503 8.135-17.325 11.021-26.456 7.472-23.705 8.863-49.78.857-73.304-7.396-21.705-22.75-40.706-43.519-49.907-1.645-.729-3.433.854-2.832 2.55 1.181 3.334 1.381 7.013.718 10.558z" fill="#e69824"/><path d="m236.911 28.329c-2.501 9.978-3.156 20.629-.383 30.524 2.763 9.906 9.236 18.953 18.311 23.348 7.597 3.675 16.989 3.603 24.24-.528-1.396-.399-2.763-.896-4.072-1.513-9.075-4.286-15.548-13.108-18.311-22.768-2.773-9.649-2.117-20.035.383-29.765 2.016-7.867 3.886-16.908 6.899-24.833.679-1.786-1.256-3.448-2.934-2.534-6.754 3.68-13.491 7.468-20.042 11.512-1.534 5.599-2.785 11.33-4.091 16.557z" fill="#e69824"/><path d="m391.265 191.787c-12.464 1.146-25.303 3.645-38.217 7.504 6.08-1.186 12.107-2.059 18.049-2.619 1.597-.15 2.725 1.561 2.035 3.047-15.965 34.409-43.876 61.873-78.233 76.749-.01.005-.021.009-.031.013 6.938-1.831 13.686-4.132 20.199-6.88 34.356-14.507 62.268-41.288 78.233-74.843.689-1.448-.438-3.118-2.035-2.971z" fill="#e69824"/><path d="m285.288 239.987c0-20.814-11.914-38.834-29.288-47.647-17.374 8.813-29.288 26.833-29.288 47.647 0 16.596 7.579 31.409 19.455 41.202 3.251.208 6.529.32 9.833.32 3.307 0 6.586-.118 9.841-.326 11.872-9.793 19.447-24.603 19.447-41.196z" fill="#e27c48"/><g fill="#cde2ff"><path d="m381.548 86.092c-4.268 0-7.726-3.459-7.726-7.726 0-8.303 3.259-12.831 5.639-16.137 1.816-2.522 2.727-3.789 2.727-7.109s-.911-4.587-2.727-7.109c-2.38-3.306-5.639-7.834-5.639-16.137s3.26-12.83 5.639-16.136c1.816-2.522 2.727-3.789 2.727-7.107 0-4.268 3.459-7.726 7.726-7.726s7.726 3.459 7.726 7.726c0 8.302-3.26 12.829-5.639 16.135-1.816 2.522-2.727 3.789-2.727 7.108 0 3.32.911 4.587 2.727 7.109 2.38 3.306 5.639 7.834 5.639 16.137s-3.259 12.831-5.639 16.137c-1.816 2.522-2.727 3.789-2.727 7.109 0 4.267-3.459 7.726-7.726 7.726z"/><path d="m143.004 86.092c-4.267 0-7.726-3.459-7.726-7.726 0-8.303 3.259-12.831 5.639-16.137 1.816-2.523 2.727-3.789 2.727-7.109s-.911-4.586-2.727-7.109c-2.38-3.306-5.639-7.834-5.639-16.137s3.26-12.83 5.639-16.136c1.816-2.522 2.727-3.789 2.727-7.107 0-4.268 3.459-7.726 7.726-7.726s7.726 3.459 7.726 7.726c0 8.302-3.26 12.829-5.639 16.135-1.816 2.522-2.727 3.789-2.727 7.108 0 3.32.911 4.586 2.728 7.109 2.38 3.306 5.639 7.834 5.639 16.137s-3.259 12.831-5.639 16.137c-1.816 2.523-2.728 3.789-2.728 7.109 0 4.267-3.459 7.726-7.726 7.726z"/><path d="m436.269 239.242c-4.268 0-7.726-3.459-7.726-7.726 0-9.55 2.855-14.707 5.15-18.851 1.867-3.372 3.216-5.809 3.216-11.367s-1.349-7.994-3.216-11.366c-2.294-4.144-5.15-9.301-5.15-18.851s2.856-14.707 5.151-18.851c1.866-3.371 3.215-5.807 3.215-11.363 0-4.268 3.459-7.726 7.726-7.726s7.726 3.459 7.726 7.726c0 9.549-2.856 14.706-5.15 18.85-1.867 3.371-3.216 5.807-3.216 11.364 0 5.558 1.349 7.994 3.216 11.366 2.294 4.143 5.15 9.301 5.15 18.851 0 9.551-2.856 14.708-5.15 18.852-1.867 3.372-3.216 5.808-3.216 11.366 0 4.268-3.459 7.726-7.726 7.726z"/><path d="m67.365 239.242c-4.267 0-7.726-3.459-7.726-7.726 0-9.55 2.856-14.708 5.151-18.852 1.867-3.371 3.216-5.808 3.216-11.366 0-5.557-1.349-7.994-3.216-11.365-2.295-4.144-5.151-9.301-5.151-18.852 0-9.55 2.856-14.707 5.151-18.851 1.867-3.371 3.216-5.807 3.216-11.363 0-4.268 3.459-7.726 7.726-7.726s7.726 3.459 7.726 7.726c0 9.55-2.856 14.706-5.151 18.85-1.867 3.371-3.216 5.807-3.216 11.364s1.349 7.994 3.216 11.365c2.295 4.144 5.151 9.301 5.151 18.852s-2.856 14.709-5.151 18.853c-1.867 3.371-3.216 5.808-3.216 11.365 0 4.268-3.459 7.726-7.726 7.726z"/></g></g></svg>