<svg id="Capa_1" enable-background="new 0 0 512 512" height="512" viewBox="0 0 512 512" width="512" xmlns="http://www.w3.org/2000/svg"><g><path d="m147.613 295.238-43.016 120.866c-1.25 3.513 1.687 7.094 5.376 6.556l44.074-6.427c2.89-.421 5.178 2.401 4.169 5.141l-31.597 85.758c-1.435 3.896 3.778 6.723 6.26 3.394l101.395-136.005c2.498-3.35-.192-8.068-4.348-7.626l-47.128 5.022c-3.309.353-5.736-3.042-4.332-6.058l40.639-87.323z" fill="#e69824"/><path d="m136.708 38.742h-5.323c-4.499-22.106-24.051-38.742-47.484-38.742s-42.985 16.636-47.483 38.742c-.635 3.14-.972 6.386-.972 9.713 0 10.947 3.629 21.043 9.75 29.154 1.215 1.61 3.145 2.522 5.162 2.522h86.809c5.713 0 10.891-2.318 14.636-6.062 3.809-3.808 6.141-9.093 6.06-14.929-.158-11.389-9.765-20.398-21.155-20.398z" fill="#ddebfd"/><path d="m458.848 143.538c-45.18 6.933-88.178-23.618-96.494-68.565-4.017-21.711.58-42.959 11.331-60.293 2.509-4.045-1.173-9.072-5.786-7.898-14.505 3.692-28.383 10.798-40.396 21.417-39.995 35.353-43.87 97.037-8.657 137.155 35.183 40.085 96.174 44.415 136.678 9.536 8.987-7.739 16.212-16.762 21.642-26.563 2.296-4.144-1.665-8.944-6.195-7.557-3.911 1.198-7.957 2.128-12.123 2.768z" fill="#ebb34c"/><path d="m470.97 140.77c-3.91 1.198-7.957 2.128-12.123 2.768-45.181 6.934-88.178-23.618-96.495-68.565-4.017-21.71.58-42.959 11.331-60.292 2.509-4.045-1.173-9.072-5.786-7.898-10.565 2.689-20.793 7.198-30.214 13.548 3.143-1.156 6.328-2.154 9.547-2.973 4.613-1.174 8.294 3.853 5.786 7.898-10.75 17.333-15.348 38.582-11.331 60.293 8.316 44.946 51.314 75.498 96.494 68.564 4.166-.639 8.212-1.57 12.123-2.768 4.53-1.387 8.49 3.413 6.195 7.557-5.429 9.801-12.655 18.824-21.642 26.563-2.968 2.556-6.049 4.896-9.219 7.032 10.646-3.917 20.784-9.769 29.887-17.607 8.987-7.738 16.212-16.762 21.642-26.563 2.296-4.144-1.665-8.944-6.195-7.557z" fill="#e69642"/><path d="m424.688 260.06c-5.094-5.094-12.138-8.246-19.907-8.246h-39.957c4.753-11.583 7.423-24.245 7.541-37.512.055-6.179-.451-12.238-1.471-18.129-3.729-21.53-18.321-34.811-33.436-49.459-12.547-12.159-24.211-27.126-41.652-31.536-7.668-1.939-15.679-2.997-23.92-3.059-54.921-.412-99.815 42.889-101.961 97.182-.074 1.878-1.618 3.36-3.497 3.36-8.014.001-27.339.003-27.339.003-26.358 0-47.725 21.367-47.725 47.725s21.367 47.724 47.725 47.724h265.236c15.311 0 28.172-12.041 28.598-27.346.224-8.084-2.967-15.438-8.235-20.707z" fill="#ddebfd"/><path d="m346.945 214.302c-.108 12.05-2.32 23.602-6.287 34.299-.578 1.559.571 3.213 2.233 3.213h21.933c4.753-11.583 7.423-24.245 7.541-37.512.499-55.748-44.731-101.765-100.48-102.183-4.584-.034-9.096.242-13.522.798 50.143 6.326 89.044 49.664 88.582 101.385z" fill="#bed9fd"/><path d="m424.688 260.06c-5.094-5.094-12.138-8.246-19.907-8.246h-25.421c7.768 0 14.813 3.152 19.907 8.246 5.269 5.269 8.46 12.623 8.235 20.708-.426 15.305-13.287 27.346-28.598 27.346h25.421c15.311 0 28.172-12.041 28.598-27.346.224-8.085-2.967-15.439-8.235-20.708z" fill="#bed9fd"/><g fill="#75cff9"><path d="m63.598 120.926c-1.191 0-2.399-.277-3.531-.859-3.794-1.953-5.286-6.612-3.332-10.406l2.98-5.788c1.953-3.794 6.614-5.284 10.406-3.332 3.794 1.953 5.286 6.612 3.332 10.406l-2.98 5.788c-1.37 2.661-4.074 4.191-6.875 4.191z"/><path d="m41.885 163.1c-1.191 0-2.399-.277-3.531-.859-3.794-1.953-5.286-6.612-3.332-10.406l2.98-5.788c1.953-3.794 6.614-5.284 10.406-3.332 3.794 1.953 5.286 6.612 3.332 10.406l-2.98 5.788c-1.37 2.661-4.074 4.191-6.875 4.191z"/><path d="m105.7 120.926c-1.19 0-2.398-.277-3.53-.858-3.794-1.953-5.287-6.612-3.334-10.406l2.979-5.788c1.954-3.793 6.611-5.284 10.406-3.334 3.794 1.953 5.287 6.612 3.334 10.406l-2.979 5.788c-1.371 2.661-4.074 4.192-6.876 4.192z"/><path d="m83.987 163.1c-1.19 0-2.398-.277-3.53-.858-3.794-1.953-5.287-6.612-3.334-10.406l2.979-5.788c1.955-3.792 6.612-5.283 10.406-3.334 3.794 1.953 5.287 6.612 3.334 10.406l-2.979 5.788c-1.371 2.661-4.075 4.192-6.876 4.192z"/><path d="m307.942 367.999c-1.361 0-2.739-.359-3.989-1.115-3.652-2.207-4.824-6.957-2.617-10.609l4.455-7.371c2.207-3.653 6.959-4.823 10.609-2.617 3.652 2.207 4.824 6.957 2.617 10.609l-4.455 7.371c-1.452 2.403-4.004 3.732-6.62 3.732z"/><path d="m275.48 421.714c-1.361 0-2.739-.359-3.989-1.115-3.652-2.207-4.824-6.957-2.617-10.609l4.455-7.371c2.207-3.653 6.959-4.825 10.609-2.617 3.652 2.207 4.824 6.957 2.617 10.609l-4.455 7.371c-1.451 2.403-4.004 3.732-6.62 3.732z"/><path d="m243.02 475.43c-1.361 0-2.739-.359-3.989-1.115-3.652-2.207-4.824-6.957-2.617-10.609l4.455-7.371c2.207-3.653 6.958-4.824 10.609-2.617 3.652 2.207 4.824 6.957 2.617 10.609l-4.455 7.371c-1.452 2.403-4.005 3.732-6.62 3.732z"/><path d="m354.449 367.999c-1.361 0-2.739-.359-3.989-1.115-3.652-2.207-4.824-6.957-2.617-10.609l4.455-7.371c2.207-3.653 6.959-4.823 10.609-2.617 3.652 2.207 4.824 6.957 2.617 10.609l-4.455 7.371c-1.452 2.403-4.004 3.732-6.62 3.732z"/><path d="m321.989 421.714c-1.361 0-2.738-.359-3.989-1.115-3.652-2.206-4.824-6.956-2.617-10.609l4.454-7.371c2.207-3.653 6.956-4.825 10.609-2.617 3.652 2.206 4.824 6.956 2.617 10.609l-4.454 7.371c-1.452 2.403-4.005 3.732-6.62 3.732z"/><path d="m289.527 475.431c-1.361 0-2.739-.359-3.989-1.115-3.652-2.206-4.824-6.957-2.617-10.609l4.455-7.372c2.207-3.653 6.958-4.824 10.609-2.617 3.652 2.206 4.824 6.957 2.617 10.609l-4.455 7.372c-1.452 2.403-4.005 3.732-6.62 3.732z"/><path d="m400.956 367.999c-1.361 0-2.739-.359-3.989-1.115-3.652-2.207-4.824-6.957-2.617-10.609l4.455-7.371c2.206-3.653 6.959-4.823 10.609-2.617 3.652 2.207 4.824 6.957 2.617 10.609l-4.455 7.371c-1.452 2.403-4.004 3.732-6.62 3.732z"/><path d="m368.496 421.714c-1.361 0-2.739-.359-3.989-1.115-3.652-2.207-4.824-6.957-2.617-10.609l4.455-7.371c2.207-3.653 6.958-4.825 10.609-2.617 3.652 2.207 4.824 6.957 2.617 10.609l-4.455 7.371c-1.452 2.403-4.005 3.732-6.62 3.732z"/><path d="m336.035 475.431c-1.361 0-2.738-.359-3.989-1.115-3.652-2.206-4.824-6.956-2.617-10.609l4.454-7.371c2.207-3.652 6.955-4.824 10.609-2.617 3.652 2.206 4.824 6.956 2.617 10.609l-4.454 7.371c-1.452 2.403-4.004 3.732-6.62 3.732z"/></g></g></svg>