<svg id="Capa_1" enable-background="new 0 0 512 512" height="512" viewBox="0 0 512 512" width="512" xmlns="http://www.w3.org/2000/svg"><g><path d="m301.538 512c-4.204 0-7.611-3.408-7.611-7.612v-32.849c0-4.203 3.409-7.611 7.612-7.611 4.204 0 7.611 3.408 7.611 7.612v32.849c.001 4.204-3.409 7.611-7.612 7.611z" fill="#c95929"/><path d="m301.54 434.77c-4.203 0-7.612-3.407-7.612-7.611v-35.764c0-4.204 3.406-7.612 7.611-7.612 4.203 0 7.612 3.407 7.612 7.611v35.764c0 4.203-3.407 7.612-7.611 7.612z" fill="#c95929"/><circle cx="301.54" cy="449.35" fill="#e69642" r="24.83"/><g fill="#c95929"><path d="m281.612 399.007c-4.204 0-7.612-3.408-7.612-7.612v-49.002c0-4.204 3.407-7.611 7.612-7.611s7.612 3.408 7.612 7.611v49.002c0 4.205-3.407 7.612-7.612 7.612z"/><path d="m321.471 399.007c-4.204 0-7.612-3.408-7.612-7.612v-49.002c0-4.204 3.407-7.611 7.612-7.611s7.611 3.408 7.611 7.611v49.002c0 4.205-3.407 7.612-7.611 7.612z"/></g><path d="m186.09 106.013c-25.015-28.424-65.95-42.792-102.653-33.483-36.702 9.309-66.541 43.251-68.404 81.07 5.18-6.657 14.063-10.921 22.295-12.761 8.232-1.839 17.093-.726 24.614 3.094-14.37 5.535-25.545 20.429-26.21 35.813 14.432-7.606 34.3-6.091 48.476 1.982-14.072 7.159-24.062 22.064-27.67 37.435 13.662-5.987 29.59 2.272 39.856 13.094s16.638 24.712 25.697 36.562c18.793 24.583 49.676 39.439 80.613 38.778l10.071-95.272c7.528-37.107-1.669-77.887-26.685-106.312z" fill="#e27c48"/><path d="m186.09 106.013c-25.015-28.424-65.95-42.792-102.653-33.483-2.56.649-5.082 1.431-7.568 2.313 27.995-1.2 56.662 9.363 77.315 28.577 27.722 25.791 40.671 65.452 36.878 103.126v95.801c-6.46.787-13.251.882-19.726.344 10.425 3.414 21.392 5.141 32.369 4.906l10.071-95.272c7.528-37.107-1.67-77.887-26.686-106.312z" fill="#df6937"/><path d="m319.604 1.435c-28.51-7.483-20.501 16.507-15.052 20.984-35.378-.869-57.79 19.571-66.284 37.025-2.66 5.466 1.419 11.848 7.49 11.542 27.012-1.362 61.084 11.601 63.361 49.424l56.727-25.717c12.148-45.216-7.204-83.011-46.242-93.258z" fill="#c95929"/><path d="m379.985 212.728c5.332 1.694 10.805 2.577 16.131 1.853 6.871-.934 13.559-4.826 17.445-11.622 9.78-17.103-3.424-30.325-14.481-39.624-6.646-5.59-14.746-14.985-12.211-25.634l-28.272 3.08c1.029 9.443 4.65 42.678 5.432 49.853.616 5.65-.053 15.109 4.937 17.553 3.534 1.734 7.241 3.341 11.019 4.541z" fill="#c95929"/><path d="m369.254 156.888v-50.641l55.003 21.027c3.94 1.506 3.94 7.081 0 8.587z" fill="#ecc52e"/><path d="m392.998 222.573c-10.66-6.642-17.344-18.116-17.344-30.676v-84.468c0-22.449-18.372-41.249-40.817-40.82-21.751.416-39.256 18.178-39.256 40.029v41.53c0 19.964-14.657 36.9-34.414 39.766l-39.877 5.783c-28.109 4.077-48.961 28.172-48.961 56.575 0 50.867 41.236 92.102 92.102 92.102h94.341c35.788 0 64.8-29.012 64.8-64.8-.001-23.222-12.218-43.583-30.574-55.021z" fill="#e9a761"/><path d="m392.998 222.573c-10.66-6.642-17.344-18.116-17.344-30.676v-84.468c0-22.449-18.372-41.249-40.817-40.82-3.518.067-6.921.595-10.16 1.513 16.9 4.859 29.332 20.843 29.332 39.307v84.468c0 12.56 6.684 24.034 17.344 30.676 18.356 11.438 30.573 31.799 30.573 55.02 0 35.788-29.012 64.8-64.8 64.8h21.646c35.788 0 64.8-29.012 64.8-64.8-.001-23.221-12.218-43.582-30.574-55.02z" fill="#e5936a"/><path d="m302.49 219.57h-3.346c-15.553 0-29.469 9.664-34.902 24.238l-5.179 13.893c-3.089 8.286-9.067 15.177-16.833 19.406l-17.283 9.41c-7.174 3.906-9.031 13.371-3.865 19.699 18.694 22.895 46.687 36.178 76.245 36.178h6.076c16.961 0 32.308-6.872 43.418-17.983 11.16-11.16 18.041-26.576 17.993-43.607-.097-33.997-28.327-61.234-62.324-61.234z" fill="#e27c48"/><path d="m341.935 135.389c-4.204 0-7.612-3.408-7.612-7.611v-5.008c0-4.204 3.407-7.611 7.612-7.611s7.611 3.408 7.611 7.611v5.008c0 4.203-3.407 7.611-7.611 7.611z" fill="#ad4c23"/><path d="m364.002 271.091c-.548.132-1.116.203-1.705.203h-38.2c-4.202 0-7.612-3.41-7.612-7.611 0-4.212 3.41-7.612 7.612-7.612h35.348c2.142 4.719 3.694 9.753 4.557 15.02z" fill="#c95929"/><path d="m363.312 294.534v.01c-1.177 5.257-3.045 10.25-5.48 14.908h-55.249c-4.202 0-7.612-3.41-7.612-7.611 0-4.212 3.41-7.612 7.612-7.612h58.598c.741.001 1.451.102 2.131.305z" fill="#c95929"/><path d="m456.763 399.006h-272.055c-4.204 0-7.611-3.409-7.611-7.612s3.408-7.611 7.611-7.611h272.055c4.204 0 7.612 3.409 7.612 7.612s-3.408 7.611-7.612 7.611z" fill="#e69824"/><g fill="#ecc52e"><path d="m439.094 363.061c-4.986 6.772 17.67 20.282 17.67 28.334s-22.656 21.562-17.67 28.334c9.089 12.346 57.872-13.932 57.872-28.334s-48.783-40.68-57.872-28.334z"/><path d="m107.137 371.163 13.491 18.223c.884 1.194.884 2.825 0 4.019l-13.491 18.223c-2.524 3.41-.09 8.24 4.152 8.24h41.505c3.364 0 6.632-1.116 9.294-3.172l26.581-20.539c3.117-2.409 3.117-7.114 0-9.523l-26.581-20.539c-2.662-2.057-5.93-3.172-9.294-3.172h-41.504c-4.243 0-6.677 4.83-4.153 8.24z"/></g></g></svg>