<svg id="Capa_1" enable-background="new 0 0 512 512" height="512" viewBox="0 0 512 512" width="512" xmlns="http://www.w3.org/2000/svg"><g><path d="m507.659 246.941-21.32-17.136c-13.078-10.511-19.893-26.965-18.078-43.645l2.959-27.192c.803-7.383-5.429-13.614-12.811-12.811l-27.192 2.958c-16.68 1.815-33.134-5.001-43.645-18.078l-17.136-21.32c-4.652-5.788-13.465-5.788-18.118 0l-17.136 21.32c-10.511 13.078-26.965 19.893-43.645 18.078l-27.192-2.958c-7.383-.803-13.614 5.429-12.811 12.811l2.959 27.192c1.815 16.68-5.001 33.134-18.078 43.645l-21.32 17.136c-5.788 4.652-5.788 13.465 0 18.118l21.32 17.136c13.078 10.511 19.893 26.965 18.078 43.645l-2.959 27.192c-.803 7.383 5.429 13.614 12.811 12.811l27.192-2.959c16.68-1.815 33.134 5.001 43.645 18.078l17.136 21.32c4.652 5.788 13.465 5.788 18.118 0l17.136-21.32c10.511-13.078 26.965-19.893 43.645-18.078l27.192 2.959c7.383.803 13.614-5.429 12.811-12.811l-2.958-27.192c-1.815-16.68 5.001-33.134 18.078-43.645l21.32-17.136c5.787-4.652 5.787-13.466-.001-18.118z" fill="#ecc52e"/><circle cx="361.452" cy="256" fill="#e69642" r="81.45"/><path d="m433.215 217.457c.089 1.562.146 3.132.146 4.716 0 44.984-36.466 81.45-81.45 81.45-31.039 0-58.016-17.365-71.763-42.907 2.445 42.787 37.905 76.733 81.304 76.733 44.984 0 81.45-36.466 81.45-81.449 0-13.945-3.51-27.068-9.687-38.543z" fill="#e27c48"/><circle cx="237.498" cy="256" fill="#a29aa5" r="124.963"/><g fill="#8c818f"><path d="m292.022 143.532c27.702 22.921 45.353 57.561 45.353 96.325 0 69.015-55.948 124.963-124.963 124.963-19.549 0-38.047-4.493-54.524-12.496 21.619 17.888 49.359 28.639 79.611 28.639 69.015 0 124.963-55.948 124.963-124.963-.001-49.467-28.745-92.217-70.44-112.468z"/><path d="m124.694 202.174c3.475 13.515 15.742 23.502 30.342 23.502 17.301 0 31.327-14.025 31.327-31.327s-14.026-31.327-31.327-31.327c-.353 0-.702.015-1.052.027-12.158 10.93-22.16 24.209-29.29 39.125z"/><ellipse cx="180.544" cy="288.695" rx="23.748" ry="23.748" transform="matrix(.987 -.16 .16 .987 -43.912 32.648)"/><ellipse cx="275.765" cy="259.872" rx="25.09" ry="25.09" transform="matrix(.987 -.16 .16 .987 -38.066 47.528)"/></g><path d="m131.162 148.156h-123.551c-4.204 0-7.611-3.407-7.611-7.611s3.407-7.611 7.611-7.611h123.55c4.204 0 7.611 3.407 7.611 7.611s-3.406 7.611-7.61 7.611z" fill="#bed9fd"/><path d="m90.591 184.576h-82.98c-4.204 0-7.611-3.407-7.611-7.611s3.407-7.611 7.611-7.611h82.979c4.204 0 7.611 3.407 7.611 7.611s-3.406 7.611-7.61 7.611z" fill="#bed9fd"/><path d="m50.02 220.995h-42.409c-4.204 0-7.611-3.407-7.611-7.611s3.407-7.611 7.611-7.611h42.409c4.204 0 7.611 3.407 7.611 7.611s-3.407 7.611-7.611 7.611z" fill="#bed9fd"/></g></svg>