<svg id="Capa_1" enable-background="new 0 0 512 512" height="512" viewBox="0 0 512 512" width="512" xmlns="http://www.w3.org/2000/svg"><g><path d="m213.74 430.376c-4.259 0-7.71-3.452-7.71-7.71v-159.306c0-4.258 3.451-7.71 7.71-7.71s7.71 3.452 7.71 7.71v159.306c0 4.258-3.451 7.71-7.71 7.71z" fill="#5d91b9"/><g><path d="m478.104 100.653-15.158-12.184c-9.298-7.473-14.144-19.172-12.854-31.032l2.104-19.334c.571-5.249-3.86-9.68-9.109-9.109l-19.334 2.103c-11.859 1.29-23.558-3.555-31.031-12.854l-12.184-15.156c-3.308-4.115-9.574-4.115-12.882 0l-12.184 15.158c-7.473 9.298-19.172 14.144-31.031 12.854l-19.334-2.103c-5.249-.571-9.68 3.86-9.109 9.109l2.104 19.334c1.29 11.859-3.555 23.558-12.854 31.032l-15.158 12.184c-4.115 3.308-4.115 9.574 0 12.882l15.158 12.184c9.298 7.473 14.144 19.172 12.854 31.031l-2.104 19.334c-.571 5.249 3.86 9.68 9.109 9.109l19.334-2.104c11.859-1.29 23.558 3.555 31.032 12.854l12.184 15.158c3.308 4.115 9.574 4.115 12.882 0l12.184-15.158c7.473-9.298 19.172-14.144 31.032-12.854l19.334 2.104c5.249.571 9.68-3.86 9.109-9.109l-2.103-19.334c-1.29-11.859 3.555-23.558 12.854-31.032l15.158-12.184c4.112-3.31 4.112-9.576-.003-12.883z" fill="#ecc52e"/><circle cx="374.097" cy="107.093" fill="#e69642" r="50.029"/><path d="m387.344 58.851c10.901 9.177 17.833 22.917 17.833 38.282 0 27.63-22.399 50.029-50.029 50.029-4.588 0-9.026-.63-13.247-1.786 8.702 7.326 19.93 11.747 32.196 11.747 27.63 0 50.029-22.399 50.029-50.029 0-23.043-15.583-42.435-36.782-48.243z" fill="#e27c48"/></g><path d="m245.925 512c-25.92 0-47.007-22.123-47.007-49.315v-41.592c0-8.214 6.386-14.897 14.235-14.897s14.235 6.682 14.235 14.897v41.592c0 10.765 8.316 19.523 18.536 19.523 10.222 0 18.537-8.758 18.537-19.523v-11.238c0-8.214 6.386-14.896 14.235-14.896s14.235 6.682 14.235 14.896v11.238c.002 27.192-21.085 49.315-47.006 49.315z" fill="#6bbdd5"/><path d="m198.454 99.456v50.288h31.866v-50.288c0-8.799-7.133-15.933-15.933-15.933-8.799 0-15.933 7.133-15.933 15.933z" fill="#6bbdd5"/><path d="m397.937 287.554c.325 2.365-2.213 4.087-4.291 2.911-13.201-7.475-28.457-11.743-44.714-11.743-25.223 0-48.041 10.27-64.517 26.857-.762.767-1.759 1.151-2.755 1.151s-42.05-68.008-67.273-68.008-65.879 67.835-66.664 67.96c-1.188.189-2.446-.179-3.364-1.103-16.475-16.587-39.293-26.857-64.517-26.857-16.257 0-31.513 4.268-44.714 11.743-2.078 1.176-4.616-.546-4.291-2.911 12.411-90.275 89.862-159.811 183.549-159.811s171.14 69.535 183.551 159.811z" fill="#df646e"/><path d="m397.936 287.554c-12.059-87.714-85.519-155.848-175.615-159.644-2.631-.111-5.276 9.833-7.934 9.833-2.452 0-4.891-9.95-7.319-9.854-2.175.086-4.341.21-6.496.369 85.159 6.278 154.308 70.112 168.703 152.755 8.66 1.981 16.85 5.194 24.371 9.453 2.077 1.175 4.616-.547 4.29-2.912z" fill="#cd5668"/><path d="m207.069 127.896c-29.099 10.893-52.734 83.612-59.347 178.774.785-.125 1.541-.482 2.148-1.093 16.468-16.586 39.295-26.856 64.518-26.856s48.05 10.27 64.518 26.856c.75.756 1.728 1.135 2.708 1.147-6.603-95.125-30.214-167.836-59.292-178.807-2.632-.111-5.275-.174-7.934-.174-2.453 0-4.891.059-7.319.153z" fill="#ddebfd"/><path d="m230.883 133.045c-2.792-2.299-5.649-4.028-8.562-5.127 0 0 0 0-.001 0-5.537-.233-10.026-.225-15.252-.021-.607.227-1.211.492-1.813.772 8.735.866 17.292 2.339 25.628 4.376z" fill="#bed9fd"/></g></svg>