<svg id="Capa_1" enable-background="new 0 0 512 512" height="512" viewBox="0 0 512 512" width="512" xmlns="http://www.w3.org/2000/svg"><g><path d="m229.597 446.553c-4.142 0-7.5-3.358-7.5-7.5v-190.635c0-4.142 3.358-7.5 7.5-7.5s7.5 3.358 7.5 7.5v190.635c0 4.142-3.358 7.5-7.5 7.5z" fill="#5d91b9"/><path d="m261.847 512c-25.38 0-46.027-21.685-46.027-48.34v-41.68c0-7.649 5.903-13.849 13.187-13.849 7.283 0 13.187 6.2 13.187 13.849v41.68c0 11.382 8.817 20.642 19.654 20.642s19.655-9.26 19.655-20.642v-11.262c0-7.649 5.903-13.849 13.187-13.849s13.187 6.2 13.187 13.849v11.262c-.002 26.655-20.65 48.34-46.03 48.34z" fill="#6bbdd5"/><path d="m214.276 99.665v50.394h31.933v-50.394c0-8.818-7.148-15.966-15.966-15.966s-15.967 7.148-15.967 15.966z" fill="#6bbdd5"/><path d="m414.179 288.16c.326 2.37-2.218 4.096-4.3 2.917-13.229-7.491-28.517-11.768-44.808-11.768-25.276 0-48.142 10.292-64.653 26.913-.764.769-1.762 1.154-2.761 1.153s-42.138-58.067-67.414-58.067-66.018 57.893-66.804 58.019c-1.191.189-2.451-.179-3.371-1.105-16.51-16.622-39.376-26.913-64.653-26.913-16.291 0-31.579 4.277-44.808 11.768-2.082 1.179-4.626-.547-4.3-2.917 12.437-90.466 90.051-160.147 183.936-160.147s171.499 69.681 183.936 160.147z" fill="#df646e"/><path d="m414.179 288.16c-12.437-90.466-90.051-160.147-183.936-160.147-3.65 0-7.271.118-10.869.325 85.158 5.019 154.605 69.815 168.66 153.899 7.727 2.008 15.058 4.997 21.845 8.84 2.082 1.179 4.626-.547 4.3-2.917z" fill="#cd5668"/><path d="m222.909 128.166c-29.16 10.916-52.846 83.788-59.472 179.151.787-.125 1.545-.483 2.152-1.095 16.503-16.621 39.377-26.913 64.654-26.913s48.151 10.292 64.654 26.913c.752.757 1.731 1.138 2.714 1.149-6.617-95.325-30.278-168.19-59.417-179.184-2.637-.111-5.286-.175-7.951-.175-2.457 0-4.9.059-7.334.154z" fill="#ddebfd"/><path d="m222.032 128.524c7.655.565 15.177 1.614 22.54 3.116-2.093-1.477-4.22-2.638-6.378-3.453-.01 0-2.634-.099-3.941-.128-1.332-.028-4.009-.046-4.01-.046-1.583 0-3.158.032-4.731.074-.505.014-2.267.081-2.644.097-.28.104-.558.223-.836.34z" fill="#bed9fd"/><g fill="#6cbff8"><path d="m367.964 57.809c-1.494-2.654-5.31-2.654-6.804 0-6.452 11.46-19.825 37.079-19.825 52.537 0 12.828 10.399 23.228 23.228 23.228 12.828 0 23.228-10.399 23.228-23.228-.001-15.458-13.375-41.077-19.827-52.537z"/><path d="m445.896 1.991c-1.494-2.654-5.31-2.654-6.804 0-6.452 11.46-19.825 37.079-19.825 52.537 0 12.828 10.399 23.228 23.228 23.228s23.228-10.399 23.228-23.228c-.001-15.458-13.375-41.078-19.827-52.537z"/><path d="m445.896 113.627c-1.494-2.654-5.31-2.654-6.804 0-6.452 11.46-19.825 37.079-19.825 52.537 0 12.828 10.399 23.228 23.228 23.228s23.228-10.399 23.228-23.228c-.001-15.458-13.375-41.077-19.827-52.537z"/></g></g></svg>