<svg id="Capa_1" enable-background="new 0 0 512 512" height="512" viewBox="0 0 512 512" width="512" xmlns="http://www.w3.org/2000/svg"><g><path d="m274.105 236.492c-72.033-1.126-130.801-59.926-131.885-131.96-.524-34.794 12.217-66.603 33.487-90.706 4.964-5.625.567-14.406-6.91-13.797-23.512 1.916-46.949 9.304-68.413 22.64-71.46 44.402-93.728 139.234-49.578 210.849 44.114 71.556 137.748 94.349 209.875 50.818 16.003-9.658 29.607-21.777 40.626-35.576 4.659-5.835-.231-14.337-7.636-13.374-6.391.83-12.924 1.21-19.566 1.106z" fill="#ebb34c"/><path d="m293.672 235.385c-6.392.831-12.925 1.212-19.567 1.108-72.033-1.126-130.801-59.926-131.885-131.96-.524-34.794 12.217-66.603 33.487-90.706 4.964-5.625.567-14.406-6.91-13.797-15.63 1.274-31.223 4.981-46.229 11.231 4.029-.656 8.069-1.159 12.112-1.489 7.477-.609 11.874 8.172 6.91 13.797-21.271 24.103-34.011 55.911-33.487 90.706 1.084 72.034 59.852 130.833 131.885 131.96 6.642.104 13.175-.277 19.567-1.108 7.405-.963 12.295 7.539 7.636 13.374-11.019 13.8-24.623 25.918-40.626 35.576-6.645 4.011-13.474 7.454-20.43 10.353 18.765-3.058 37.273-9.67 54.547-20.095 16.003-9.658 29.607-21.777 40.626-35.576 4.658-5.835-.231-14.337-7.636-13.374z" fill="#e69642"/><path d="m256.259 103.237c-4.877 16.863-12.129 24.115-28.992 28.992-5.02 1.452-5.02 8.625 0 10.077 16.863 4.877 24.115 12.129 28.992 28.993 1.452 5.02 8.625 5.02 10.077 0 4.877-16.863 12.129-24.115 28.992-28.993 5.02-1.452 5.02-8.625 0-10.077-16.863-4.877-24.115-12.129-28.992-28.992-1.452-5.02-8.625-5.02-10.077 0z" fill="#ebb34c"/><path d="m331.85 4.27c-4.877 16.863-12.129 24.115-28.992 28.992-5.02 1.452-5.02 8.625 0 10.077 16.863 4.877 24.115 12.129 28.992 28.993 1.452 5.02 8.625 5.02 10.077 0 4.877-16.863 12.129-24.115 28.992-28.993 5.02-1.452 5.02-8.625 0-10.077-16.863-4.877-24.115-12.129-28.992-28.992-1.452-5.02-8.625-5.02-10.077 0z" fill="#ebb34c"/><g fill="#bed9fd"><path d="m395.085 512c-4.276 0-8.619-.244-13.045-.731-27.744-3.054-55.313-15.192-81.975-26.93-52.391-23.065-101.873-44.85-151.385-1.254-3.156 2.779-7.965 2.472-10.743-.682-2.778-3.155-2.472-7.965.682-10.743 25.546-22.493 53.547-31.71 85.604-28.183 27.743 3.054 55.313 15.191 81.975 26.93 52.39 23.065 101.873 44.851 151.385 1.254 3.156-2.779 7.965-2.472 10.743.682 2.778 3.155 2.472 7.965-.682 10.743-22.018 19.387-45.867 28.914-72.559 28.914z"/><path d="m395.085 431.733c-4.276 0-8.619-.244-13.045-.731-27.744-3.054-55.313-15.192-81.975-26.93-52.391-23.065-101.873-44.851-151.385-1.254-3.156 2.779-7.965 2.472-10.743-.682-2.778-3.155-2.472-7.965.682-10.743 25.546-22.493 53.547-31.71 85.604-28.183 27.743 3.054 55.313 15.191 81.975 26.93 52.39 23.065 101.873 44.85 151.385 1.254 3.156-2.779 7.965-2.472 10.743.682 2.778 3.155 2.472 7.965-.682 10.743-22.018 19.387-45.867 28.912-72.559 28.914z"/><path d="m393.34 360.189c-24.017 0-46.982-9.456-64.91-18.119-3.785-1.829-5.371-6.38-3.542-10.165 1.829-3.786 6.38-5.371 10.165-3.542 35.461 17.136 54.351 17.606 66.846 16.098 19.129-2.305 46.531-16.271 59.636-37.611 7.667-12.484 9.163-25.378 4.447-38.323-3.663-10.053-14.235-18.31-25.708-20.079-9.621-1.484-19.619 1.751-25.476 8.239-5.958 6.599-7.373 16.896-3.292 23.952 2.122 3.671 6.347 6.638 11.025 7.746 4.096.969 7.977.437 10.925-1.502 3.512-2.308 8.232-1.333 10.542 2.179 2.309 3.512 1.334 8.232-2.179 10.542-6.484 4.262-14.58 5.539-22.795 3.595-8.748-2.071-16.485-7.655-20.697-14.938-7.363-12.732-5.188-30.301 5.171-41.775 9.341-10.348 24.321-15.362 39.095-13.083 16.98 2.618 32.126 14.64 37.692 29.914 6.297 17.283 4.299 35.092-5.778 51.501-15.772 25.684-47.549 41.958-70.787 44.759-3.473.418-6.938.612-10.38.612z"/></g></g></svg>