<svg id="Capa_1" enable-background="new 0 0 512 512" height="512" viewBox="0 0 512 512" width="512" xmlns="http://www.w3.org/2000/svg"><g><path d="m481.48 84.652h-8.526c-6.633-32.597-35.463-57.127-70.017-57.127s-63.383 24.53-70.017 57.127c-.937 4.63-1.433 9.417-1.433 14.323 0 17.86 6.551 34.186 17.382 46.708h132.61c8.425 0 16.059-3.418 21.581-8.939 5.522-5.522 8.939-13.147 8.939-21.581.001-16.85-13.67-30.511-30.519-30.511z" fill="#ddebfd"/><path d="m460.82 249.506c-7.043-7.043-16.781-11.4-27.521-11.4h-55.24c6.571-16.013 10.262-33.519 10.426-51.86.689-77.071-61.841-140.69-138.913-141.268-75.928-.57-137.994 59.294-140.961 134.355-.103 2.596-2.237 4.645-4.835 4.646-11.08.002-37.796.004-37.796.004-36.44 0-65.98 29.54-65.98 65.979s29.54 65.979 65.979 65.979h366.689c21.167 0 38.948-16.647 39.536-37.806.312-11.177-4.1-21.345-11.384-28.629z" fill="#ddebfd"/><path d="m460.82 249.506c-7.043-7.043-16.781-11.4-27.521-11.4h-35.144c10.74 0 20.479 4.358 27.521 11.4 7.284 7.284 11.696 17.452 11.385 28.628-.589 21.159-18.37 37.806-39.536 37.806h35.144c21.167 0 38.948-16.647 39.536-37.806.311-11.176-4.101-21.344-11.385-28.628z" fill="#bed9fd"/><path d="m353.34 186.246c-.149 16.659-3.208 32.629-8.692 47.418-.799 2.155.789 4.442 3.088 4.442h30.322c6.571-16.013 10.262-33.519 10.426-51.86.689-77.071-61.841-140.69-138.913-141.268-6.338-.048-12.576.335-18.694 1.103 69.322 8.745 123.103 68.66 122.463 140.165z" fill="#bed9fd"/><path d="m299.241 141.54h-67.883c-5.986 0-10.042 6.096-7.728 11.617l32.973 78.705c1.661 3.965-1.487 8.274-5.769 7.897l-52.759-4.645c-4.077-.359-7.198 3.561-5.934 7.454l34.636 106.645c1.309 4.03-2.071 8.032-6.263 7.416l-34.624-5.089c-4.911-.722-8.342 4.733-5.564 8.848l79.574 117.854c2.126 3.148 7.027.943 6.082-2.736l-17.226-67.036c-1.016-3.954 2.324-7.667 6.363-7.073l38.932 5.722c4.192.616 7.572-3.386 6.263-7.416l-34.637-106.643c-1.264-3.893 1.856-7.813 5.934-7.454l54.843 4.829c3.718.327 6.746-2.941 6.136-6.624l-21.988-132.639c-.922-5.557-5.728-9.632-11.361-9.632z" fill="#ebb34c"/><g fill="#e9a52d"><path d="m332.589 283.81-21.988-132.639c-.921-5.557-5.727-9.632-11.36-9.632h-20.555c3.882 1.309 6.892 4.634 7.655 8.86l23.902 132.307c.46 2.548-.835 4.92-2.913 6.044l19.122 1.684c3.72.328 6.747-2.941 6.137-6.624z"/><path d="m265.677 293.06c-.8-2.462.157-4.932 1.998-6.326l-18.378-1.351c-4.082-.3-7.146 3.665-5.825 7.539l36.173 106.133c.733 2.15.11 4.305-1.265 5.762l15.67 2.303c4.192.616 7.572-3.386 6.263-7.416z"/><path d="m248.755 408.471c-.483-1.88.026-3.7 1.119-5.034l-15.396-2.036c-4.047-.535-7.333 3.225-6.26 7.164l10.393 38.148 21.288 31.529c2.126 3.148 7.027.944 6.082-2.736z"/></g><g fill="#6cbff8"><path d="m458.44 385.08c0 12.741-10.328 23.069-23.069 23.069s-23.069-10.328-23.069-23.069c0-17.802 19.166-38.234 23.069-38.234s23.069 20.432 23.069 38.234z"/><path d="m383.274 461.406c0 12.741-10.328 23.069-23.069 23.069s-23.069-10.328-23.069-23.069c0-17.802 19.166-38.234 23.069-38.234s23.069 20.431 23.069 38.234z"/><path d="m53.56 385.08c0 12.741 10.328 23.069 23.069 23.069s23.069-10.328 23.069-23.069c0-17.802-19.166-38.234-23.069-38.234s-23.069 20.432-23.069 38.234z"/><path d="m128.726 461.406c0 12.741 10.328 23.069 23.069 23.069s23.069-10.328 23.069-23.069c0-17.802-19.166-38.234-23.069-38.234s-23.069 20.431-23.069 38.234z"/></g></g></svg>